<?xml version="1.0" encoding="UTF-8" standalone="no"?>
<svg
   xmlns:dc="http://purl.org/dc/elements/1.1/"
   xmlns:cc="http://creativecommons.org/ns#"
   xmlns:rdf="http://www.w3.org/1999/02/22-rdf-syntax-ns#"
   xmlns:svg="http://www.w3.org/2000/svg"
   xmlns="http://www.w3.org/2000/svg"
   xmlns:sodipodi="http://sodipodi.sourceforge.net/DTD/sodipodi-0.dtd"
   xmlns:inkscape="http://www.inkscape.org/namespaces/inkscape"
   width="190.5mm"
   height="31.750002mm"
   viewBox="0 0 190.5 31.750002"
   version="1.1"
   id="svg8"
   inkscape:version="1.0.2 (e86c870879, 2021-01-15)"
   sodipodi:docname="article41-example1.svg"
   inkscape:export-filename="/home/taconocat/tacokin_blog/tacokin_common_materials/tacokin-p-school/blog41/article41-example1.png"
   inkscape:export-xdpi="98.043701"
   inkscape:export-ydpi="98.043701">
  <defs
     id="defs2" />
  <sodipodi:namedview
     id="base"
     pagecolor="#ffffff"
     bordercolor="#666666"
     borderopacity="1.0"
     inkscape:pageopacity="0.0"
     inkscape:pageshadow="2"
     inkscape:zoom="1.4"
     inkscape:cx="337.67448"
     inkscape:cy="57.988241"
     inkscape:document-units="mm"
     inkscape:current-layer="layer1"
     inkscape:document-rotation="0"
     showgrid="false"
     inkscape:window-width="1920"
     inkscape:window-height="1114"
     inkscape:window-x="0"
     inkscape:window-y="31"
     inkscape:window-maximized="1"
     fit-margin-top="0"
     fit-margin-left="0"
     fit-margin-right="0"
     fit-margin-bottom="0" />
  <metadata
     id="metadata5">
    <rdf:RDF>
      <cc:Work
         rdf:about="">
        <dc:format>image/svg+xml</dc:format>
        <dc:type
           rdf:resource="http://purl.org/dc/dcmitype/StillImage" />
        <dc:title></dc:title>
      </cc:Work>
    </rdf:RDF>
  </metadata>
  <g
     inkscape:label="レイヤー 1"
     inkscape:groupmode="layer"
     id="layer1">
    <g
       id="g1009"
       style="display:inline;opacity:0"
       sodipodi:insensitive="true">
      <rect
         style="fill:#a3caa3;fill-opacity:1;stroke:none;stroke-width:0;stroke-linecap:round;stroke-linejoin:round;stroke-miterlimit:4;stroke-dasharray:none;paint-order:stroke markers fill"
         id="rect851"
         width="31.75"
         height="31.75"
         x="0"
         y="0" />
      <rect
         style="fill:#ecec81;fill-opacity:1;stroke:none;stroke-width:0;stroke-linecap:round;stroke-linejoin:round;stroke-miterlimit:4;stroke-dasharray:none;paint-order:stroke markers fill"
         id="rect851-7"
         width="31.75"
         height="31.75"
         x="31.75"
         y="3.5762787e-07" />
      <rect
         style="fill:#a3caa3;fill-opacity:1;stroke:none;stroke-width:0;stroke-linecap:round;stroke-linejoin:round;stroke-miterlimit:4;stroke-dasharray:none;paint-order:stroke markers fill"
         id="rect851-1"
         width="31.75"
         height="31.75"
         x="63.5"
         y="3.5762787e-07" />
      <rect
         style="fill:#ecec81;fill-opacity:1;stroke:none;stroke-width:0;stroke-linecap:round;stroke-linejoin:round;stroke-miterlimit:4;stroke-dasharray:none;paint-order:stroke markers fill"
         id="rect851-7-7"
         width="31.75"
         height="31.75"
         x="95.25"
         y="3.5762787e-07" />
      <rect
         style="fill:#a3caa3;fill-opacity:1;stroke:none;stroke-width:0;stroke-linecap:round;stroke-linejoin:round;stroke-miterlimit:4;stroke-dasharray:none;paint-order:stroke markers fill"
         id="rect851-1-2"
         width="31.75"
         height="31.75"
         x="127"
         y="1.9073486e-06" />
      <rect
         style="fill:#ecec81;fill-opacity:1;stroke:none;stroke-width:0;stroke-linecap:round;stroke-linejoin:round;stroke-miterlimit:4;stroke-dasharray:none;paint-order:stroke markers fill"
         id="rect851-7-7-7"
         width="31.75"
         height="31.75"
         x="158.75"
         y="1.9073486e-06" />
    </g>
    <circle
       style="fill:#eca389;fill-opacity:1;stroke:none;stroke-width:0;stroke-linecap:round;stroke-linejoin:round;stroke-miterlimit:4;stroke-dasharray:none;paint-order:stroke markers fill"
       id="path1011"
       sodipodi:type="arc"
       sodipodi:cx="14.356964"
       sodipodi:cy="22.925442"
       sodipodi:rx="8.0870705"
       sodipodi:ry="7.9717007"
       sodipodi:start="0"
       sodipodi:end="6.282557"
       sodipodi:arc-type="slice"
       d="m 22.444035,22.925442 a 8.0870705,7.9717007 0 0 1 -8.085801,7.9717 8.0870705,7.9717007 0 0 1 -8.08834,-7.969196 8.0870705,7.9717007 0 0 1 8.083259,-7.974204 8.0870705,7.9717007 0 0 1 8.09088,7.966691 l -8.087069,0.005 z" />
    <circle
       style="fill:#eca389;fill-opacity:1;stroke:none;stroke-width:0;stroke-linecap:round;stroke-linejoin:round;stroke-miterlimit:4;stroke-dasharray:none;paint-order:stroke markers fill"
       id="path1011-2"
       sodipodi:type="arc"
       sodipodi:cx="79.629761"
       sodipodi:cy="15.647679"
       sodipodi:rx="6.9656048"
       sodipodi:ry="10.383198"
       sodipodi:start="0"
       sodipodi:end="6.282557"
       sodipodi:arc-type="slice"
       d="M 86.595366,15.647679 A 6.9656048,10.383198 0 0 1 79.630855,26.030877 6.9656048,10.383198 0 0 1 72.664156,15.650941 6.9656048,10.383198 0 0 1 79.626478,5.2644827 6.9656048,10.383198 0 0 1 86.595364,15.641155 l -6.965603,0.0065 z" />
    <circle
       style="fill:#eca389;fill-opacity:1;stroke:none;stroke-width:0;stroke-linecap:round;stroke-linejoin:round;stroke-miterlimit:4;stroke-dasharray:none;paint-order:stroke markers fill"
       id="path1011-2-2"
       sodipodi:type="arc"
       sodipodi:cx="112.34168"
       sodipodi:cy="8.1328087"
       sodipodi:rx="8.2461758"
       sodipodi:ry="8.0506372"
       sodipodi:start="0"
       sodipodi:end="6.282557"
       sodipodi:arc-type="slice"
       d="m 120.58786,8.1328087 a 8.2461758,8.0506372 0 0 1 -8.24488,8.0506373 8.2461758,8.0506372 0 0 1 -8.24747,-8.0481082 8.2461758,8.0506372 0 0 1 8.24229,-8.05316547 8.2461758,8.0506372 0 0 1 8.25006,8.04557807 l -8.24618,0.00506 z" />
    <circle
       style="fill:#eca389;fill-opacity:1;stroke:none;stroke-width:0;stroke-linecap:round;stroke-linejoin:round;stroke-miterlimit:4;stroke-dasharray:none;paint-order:stroke markers fill"
       id="path1011-2-6"
       sodipodi:type="arc"
       sodipodi:cx="144.36319"
       sodipodi:cy="12.531442"
       sodipodi:rx="7.8169651"
       sodipodi:ry="8.0994778"
       sodipodi:start="0"
       sodipodi:end="6.282557"
       sodipodi:arc-type="slice"
       d="m 152.18015,12.531442 a 7.8169651,8.0994778 0 0 1 -7.81573,8.099477 7.8169651,8.0994778 0 0 1 -7.8182,-8.096933 7.8169651,8.0994778 0 0 1 7.81329,-8.1020212 7.8169651,8.0994778 0 0 1 7.82064,8.0943882 l -7.81696,0.0051 z" />
    <circle
       style="fill:#eca389;fill-opacity:1;stroke:none;stroke-width:0;stroke-linecap:round;stroke-linejoin:round;stroke-miterlimit:4;stroke-dasharray:none;paint-order:stroke markers fill"
       id="path1011-2-6-1"
       sodipodi:type="arc"
       sodipodi:cx="47.166992"
       sodipodi:cy="26.002316"
       sodipodi:rx="10.633931"
       sodipodi:ry="4.9145164"
       sodipodi:start="0"
       sodipodi:end="6.282557"
       sodipodi:arc-type="slice"
       d="m 57.800923,26.002316 a 10.633931,4.9145164 0 0 1 -10.63226,4.914516 10.633931,4.9145164 0 0 1 -10.635601,-4.912973 10.633931,4.9145164 0 0 1 10.628919,-4.916059 10.633931,4.9145164 0 0 1 10.63894,4.911428 l -10.633929,0.0031 z" />
    <circle
       style="fill:#eca389;fill-opacity:1;stroke:none;stroke-width:0;stroke-linecap:round;stroke-linejoin:round;stroke-miterlimit:4;stroke-dasharray:none;paint-order:stroke markers fill"
       id="path1011-2-6-0"
       sodipodi:type="arc"
       sodipodi:cx="175.15044"
       sodipodi:cy="20.519445"
       sodipodi:rx="7.8169651"
       sodipodi:ry="8.0994778"
       sodipodi:start="0"
       sodipodi:end="6.282557"
       sodipodi:arc-type="slice"
       d="m 182.9674,20.519445 a 7.8169651,8.0994778 0 0 1 -7.81574,8.099478 7.8169651,8.0994778 0 0 1 -7.81819,-8.096933 7.8169651,8.0994778 0 0 1 7.81328,-8.102021 7.8169651,8.0994778 0 0 1 7.82065,8.094387 l -7.81696,0.0051 z" />
  </g>
</svg>
