<?xml version="1.0" encoding="UTF-8" standalone="no"?>
<!DOCTYPE svg PUBLIC "-//W3C//DTD SVG 1.1//EN" "http://www.w3.org/Graphics/SVG/1.1/DTD/svg11.dtd">
<svg xmlns="http://www.w3.org/2000/svg" version="1.1" viewBox="0.00 0.00 400.00 399.00">
<g stroke-width="2.00" fill="none" stroke-linecap="butt">
<path stroke="#70a96c" vector-effect="non-scaling-stroke" d="
  M 209.81 6.17
  Q 206.07 9.72 203.55 13.61
  Q 201.70 16.47 201.71 18.51
  Q 201.73 21.64 204.28 23.83
  C 208.89 27.79 214.33 31.67 220.44 32.47
  Q 232.21 34.02 241.44 29.41
  Q 243.79 28.23 244.28 26.02
  Q 245.44 20.67 245.02 12.46"
/>
<path stroke="#70a96c" vector-effect="non-scaling-stroke" d="
  M 296.39 53.08
  Q 285.79 53.50 284.32 63.49
  Q 283.98 65.76 283.54 68.05
  Q 283.07 70.47 283.20 72.78
  Q 283.80 83.73 293.59 89.86
  Q 294.71 90.57 295.87 90.59
  Q 300.35 90.66 305.11 89.81"
/>
<path stroke="#689d66" vector-effect="non-scaling-stroke" d="
  M 286.27 148.98
  Q 285.18 150.00 283.88 151.33
  Q 282.69 152.55 281.36 153.48
  C 277.85 155.95 274.02 159.32 270.14 160.47
  Q 267.30 161.31 264.46 161.73
  A 4.03 4.03 0.0 0 1 260.98 160.52
  Q 257.96 157.36 252.32 158.18
  Q 247.82 158.84 248.00 162.68
  Q 248.06 163.90 248.67 164.90
  C 249.45 166.20 250.47 168.22 252.14 168.38
  Q 252.63 168.43 252.87 168.86
  Q 253.49 170.00 253.52 171.37
  Q 253.70 179.20 253.69 186.08
  C 253.68 189.90 252.63 193.26 251.99 196.92
  Q 250.47 205.71 252.24 213.70
  C 253.19 218.03 255.95 221.10 260.01 222.86
  Q 263.32 224.30 266.62 225.92
  A 0.70 0.70 0.0 0 1 266.67 227.15
  Q 263.00 229.34 258.54 229.33
  C 252.30 229.33 248.44 227.59 243.30 224.04
  C 241.64 222.89 240.47 221.12 240.20 219.11
  Q 239.29 212.45 238.02 206.28
  C 236.76 200.19 237.96 194.16 239.49 188.35
  C 240.08 186.11 240.00 183.91 240.58 181.74
  C 241.61 177.91 241.42 173.79 240.34 170.02
  Q 239.46 166.98 240.58 164.07
  C 240.95 163.09 240.94 162.09 240.90 161.06
  A 1.56 1.55 -3.4 0 0 239.22 159.57
  Q 236.77 159.78 234.32 159.98
  Q 231.98 160.17 232.07 162.50
  C 232.12 163.67 231.97 164.74 232.55 165.82
  C 236.57 173.33 234.91 181.64 233.11 189.78
  C 231.55 196.86 230.82 202.64 231.96 208.75
  Q 233.53 217.05 235.35 225.11
  C 235.96 227.76 236.04 231.44 235.43 234.06
  Q 234.75 236.95 234.41 240.15
  C 233.75 246.43 228.48 253.88 224.24 257.50
  Q 221.21 260.09 216.60 260.99
  A 0.70 0.69 88.6 0 1 215.79 260.21
  Q 216.82 252.67 216.12 245.39
  Q 214.87 232.29 214.68 219.21
  Q 214.62 214.89 214.27 210.98
  Q 213.88 206.70 214.34 203.47
  C 214.89 199.57 214.71 195.74 215.68 191.87
  C 217.40 185.01 219.45 178.51 220.39 171.49"
/>
<path stroke="#70a96c" vector-effect="non-scaling-stroke" d="
  M 220.39 171.49
  Q 220.14 169.43 220.97 167.70
  Q 221.20 167.21 221.71 167.00
  L 224.46 165.85
  A 1.70 1.69 -1.8 0 0 225.40 164.86
  Q 226.52 161.74 224.15 159.35
  Q 223.75 158.96 223.20 158.86
  Q 219.96 158.30 217.79 159.09
  Q 211.71 161.33 213.97 167.31
  C 214.52 168.77 214.37 170.02 214.42 171.54"
/>
<path stroke="#689d66" vector-effect="non-scaling-stroke" d="
  M 214.42 171.54
  Q 213.18 178.11 211.63 184.59
  Q 211.61 184.69 210.58 189.93
  C 209.94 193.20 207.85 196.61 208.13 200.10
  C 208.56 205.74 208.07 211.43 208.62 217.07
  C 209.44 225.45 208.65 234.12 209.55 242.69
  Q 210.11 248.08 210.41 253.58
  Q 210.91 262.49 207.20 271.84
  Q 205.93 275.04 202.67 277.80
  C 199.84 280.19 196.14 280.81 192.93 282.60
  A 0.42 0.42 0.0 0 1 192.31 282.20
  Q 192.62 279.01 193.50 277.28"
/>
<path stroke="#85ba81" vector-effect="non-scaling-stroke" d="
  M 193.50 277.28
  Q 197.35 277.76 200.56 275.51
  Q 203.09 273.74 204.14 271.04
  Q 207.04 263.65 207.15 256.89
  Q 207.21 253.01 204.21 251.09
  Q 203.98 250.95 203.72 250.86
  Q 200.33 249.70 199.94 253.25
  C 199.55 256.86 199.73 260.47 198.62 263.99
  Q 197.28 268.27 194.80 272.02"
/>
<path stroke="#689d66" vector-effect="non-scaling-stroke" d="
  M 194.80 272.02
  Q 196.41 260.92 194.98 249.76
  Q 193.54 238.46 192.12 226.25
  C 192.01 225.24 191.53 224.27 191.49 223.24
  Q 191.09 213.85 192.08 206.03
  Q 192.90 199.50 195.77 191.36
  Q 198.29 184.22 200.51 176.78
  Q 201.61 173.10 202.35 169.10
  Q 203.26 164.19 197.95 163.88
  Q 196.18 163.78 196.00 165.54
  Q 195.45 170.69 194.33 177.15
  C 193.88 179.75 192.41 182.20 191.69 184.80
  Q 190.81 187.95 189.73 191.21
  Q 188.18 195.87 187.05 200.84
  Q 186.11 204.95 185.93 209.85
  Q 185.46 222.57 186.49 229.96
  Q 188.17 242.01 189.69 254.36
  C 190.22 258.67 189.28 262.64 188.88 266.83
  A 0.42 0.42 0.0 0 1 188.28 267.16
  Q 176.48 261.19 174.70 248.49
  Q 174.08 244.07 174.77 236.14
  C 175.50 227.70 175.33 219.59 175.41 211.29
  Q 175.45 207.06 175.10 202.44
  Q 174.75 197.90 175.65 193.67
  Q 176.53 189.51 177.37 185.08
  C 178.28 180.25 180.11 175.95 181.45 171.26
  Q 181.89 169.69 183.44 167.52"
/>
<path stroke="#70a96c" vector-effect="non-scaling-stroke" d="
  M 183.44 167.52
  C 185.83 166.16 189.35 163.67 189.18 160.73
  C 188.87 155.60 182.24 156.56 179.20 157.52
  Q 176.77 158.30 175.66 161.00
  Q 175.47 161.47 175.63 161.95
  Q 176.17 163.53 176.90 164.99
  Q 177.66 166.50 176.55 167.54"
/>
<path stroke="#689d66" vector-effect="non-scaling-stroke" d="
  M 176.55 167.54
  Q 173.95 174.41 171.87 181.69
  C 170.67 185.87 170.51 189.98 169.59 194.14
  C 169.02 196.77 169.60 199.64 169.31 202.35
  Q 168.41 210.87 169.62 218.11
  Q 170.19 221.58 169.98 225.18
  Q 169.46 233.65 168.85 241.51
  Q 168.79 242.28 168.26 242.82
  A 1.33 1.32 43.4 0 1 166.43 242.87
  Q 161.60 238.53 159.60 232.19
  Q 158.55 228.86 158.98 223.77
  Q 159.38 219.13 159.84 215.32
  C 160.42 210.50 160.46 205.70 160.47 200.86
  C 160.48 197.81 159.10 195.50 160.04 192.35
  Q 160.20 191.81 160.07 191.27
  C 159.72 189.74 159.06 188.43 159.05 186.83
  Q 159.02 175.97 163.59 166.98
  Q 164.84 164.53 162.48 162.59
  Q 162.09 162.27 161.52 162.30
  Q 159.14 162.44 158.13 164.60
  Q 154.68 172.00 153.95 179.69
  Q 153.00 189.75 154.26 198.07
  C 155.30 204.98 154.39 211.89 152.92 218.36
  A 1.56 1.54 -12.9 0 1 152.34 219.27
  Q 147.43 222.94 144.74 223.69
  Q 140.12 224.98 135.43 226.95
  A 0.76 0.75 64.0 0 1 134.48 226.62
  L 134.35 226.39
  A 0.48 0.48 0.0 0 1 134.53 225.75
  Q 140.87 222.16 145.01 215.49
  C 147.48 211.49 147.54 207.26 145.73 203.02
  Q 142.78 196.10 141.56 188.38"
/>
<path stroke="#85ba81" vector-effect="non-scaling-stroke" d="
  M 141.56 188.38
  Q 142.82 194.45 147.51 194.87
  Q 149.73 195.06 150.62 193.58
  C 151.90 191.43 150.84 186.85 149.92 184.59
  Q 148.65 181.50 145.00 181.30
  Q 140.91 181.08 141.20 184.97"
/>
<path stroke="#689d66" vector-effect="non-scaling-stroke" d="
  M 141.20 184.97
  Q 140.07 180.68 140.50 178.99
  Q 142.12 172.68 143.14 166.81
  A 1.75 1.74 -64.0 0 0 142.60 165.23
  Q 139.47 162.33 135.45 162.90
  Q 133.15 163.23 131.07 162.70
  Q 126.99 161.67 122.68 158.81
  Q 115.08 153.78 110.54 148.99"
/>
<path stroke="#70a96c" vector-effect="non-scaling-stroke" d="
  M 92.66 108.41
  Q 101.23 108.74 108.76 105.11
  Q 110.69 104.18 111.26 106.33
  Q 111.55 107.45 112.12 106.44
  C 112.35 106.04 112.43 105.64 112.31 105.19
  Q 111.86 103.41 112.36 101.97
  C 114.74 94.95 116.52 89.35 113.01 82.12
  Q 111.18 78.34 108.06 76.87
  Q 103.14 74.54 99.64 74.34
  Q 98.10 74.26 96.25 74.54
  Q 94.41 74.82 93.90 73.29"
/>
<path stroke="#70a96c" vector-effect="non-scaling-stroke" d="
  M 96.94 61.57
  Q 102.93 64.54 109.08 65.10
  Q 113.73 65.53 117.68 63.76
  Q 122.06 61.79 124.84 58.31
  Q 128.80 53.35 127.84 48.22"
/>
<path stroke="#85ba81" vector-effect="non-scaling-stroke" d="
  M 127.84 48.22
  Q 129.93 45.09 127.81 41.43
  Q 126.88 39.81 125.36 39.56
  Q 123.79 39.30 122.01 40.00"
/>
<path stroke="#70a96c" vector-effect="non-scaling-stroke" d="
  M 122.01 40.00
  Q 123.08 38.59 121.94 38.24
  Q 117.42 36.84 115.69 32.61"
/>
<path stroke="#70a96c" vector-effect="non-scaling-stroke" d="
  M 134.00 19.70
  Q 136.36 19.27 138.56 17.86
  Q 138.97 17.61 139.38 17.85
  L 148.32 23.27"
/>
<path stroke="#85ba81" vector-effect="non-scaling-stroke" d="
  M 148.32 23.27
  Q 146.76 23.36 145.36 24.12
  Q 144.20 24.74 143.07 25.28
  C 138.51 27.44 134.46 29.48 132.91 34.72
  Q 132.75 35.24 133.02 35.70
  Q 135.29 39.74 139.73 37.91
  Q 145.02 35.74 150.22 33.97
  C 152.33 33.25 154.24 32.27 156.42 31.66
  C 164.66 29.37 172.33 26.12 181.34 24.91
  Q 182.57 24.74 183.63 24.31
  C 185.66 23.50 187.52 23.95 189.23 22.34
  Q 190.59 21.05 191.65 19.59
  A 1.68 1.67 31.1 0 0 191.03 17.11
  Q 186.86 15.07 182.01 15.28
  Q 177.15 15.50 173.78 16.45"
/>
<path stroke="#70a96c" vector-effect="non-scaling-stroke" d="
  M 173.78 16.45
  Q 175.28 13.27 173.61 7.28"
/>
<path stroke="#7eb07c" vector-effect="non-scaling-stroke" d="
  M 173.78 16.45
  Q 166.37 16.60 160.68 19.06
  Q 159.98 19.36 159.09 19.47
  C 155.49 19.90 151.80 21.77 148.32 23.27"
/>
<path stroke="#7eb07c" vector-effect="non-scaling-stroke" d="
  M 122.01 40.00
  Q 118.55 41.01 118.13 44.60
  C 117.37 51.17 123.95 49.48 127.84 48.22"
/>
<path stroke="#77a576" vector-effect="non-scaling-stroke" d="
  M 141.20 184.97
  L 141.56 188.38"
/>
<path stroke="#629461" vector-effect="non-scaling-stroke" d="
  M 176.55 167.54
  Q 178.06 166.80 177.93 164.87
  Q 177.89 164.37 178.21 164.00
  Q 179.53 162.44 181.60 161.82
  Q 182.97 161.40 183.60 162.69
  Q 184.72 164.96 183.44 167.52"
/>
<path stroke="#77a576" vector-effect="non-scaling-stroke" d="
  M 194.80 272.02
  L 193.50 277.28"
/>
<path stroke="#629461" vector-effect="non-scaling-stroke" d="
  M 214.42 171.54
  L 214.60 166.31
  Q 214.62 165.78 215.04 165.46
  Q 216.39 164.44 218.14 164.92
  Q 219.50 165.29 220.01 167.32
  Q 220.51 169.32 220.39 171.49"
/>
<path stroke="#86a977" vector-effect="non-scaling-stroke" d="
  M 374.57 223.27
  Q 372.20 209.99 366.51 198.70
  Q 360.72 187.18 353.85 176.86
  C 351.88 173.90 349.43 171.54 347.39 168.67
  C 345.33 165.77 342.59 163.98 340.21 161.47
  C 338.41 159.57 336.05 158.35 333.52 157.41
  Q 332.60 157.07 332.20 157.89
  A 2.56 2.54 -44.9 0 0 332.19 160.05
  Q 334.79 165.62 335.77 171.11
  Q 337.95 183.27 337.73 197.25
  Q 337.47 213.08 337.11 219.80
  Q 336.98 222.18 335.96 231.45"
/>
<path stroke="#86a977" vector-effect="non-scaling-stroke" d="
  M 328.62 231.66
  Q 328.65 223.24 328.05 219.50
  C 327.54 216.30 327.57 213.07 327.19 210.52
  C 326.36 205.06 326.06 199.55 325.08 194.12
  Q 324.47 190.73 323.76 187.47
  Q 322.45 181.47 318.54 173.76
  Q 315.47 167.71 309.88 162.77
  C 308.71 161.73 306.85 161.73 305.48 162.18
  Q 290.51 167.12 275.14 170.79"
/>
<path stroke="#689d66" vector-effect="non-scaling-stroke" d="
  M 275.14 170.79
  Q 274.18 171.67 272.27 169.38"
/>
<path stroke="#629461" vector-effect="non-scaling-stroke" d="
  M 272.27 169.38
  Q 270.62 166.61 267.50 167.19
  Q 264.12 167.81 261.16 167.91
  A 1.71 1.71 0.0 0 0 259.51 169.63
  L 259.55 179.21"
/>
<path stroke="#689d66" vector-effect="non-scaling-stroke" d="
  M 259.55 179.21
  C 259.14 183.88 259.55 188.59 258.51 193.04
  C 257.04 199.31 256.74 204.75 258.15 211.39
  C 259.22 216.45 264.06 219.51 268.96 219.70
  C 271.33 219.79 275.86 220.48 275.71 223.67
  C 275.48 228.50 272.11 230.96 268.06 233.02
  C 263.02 235.57 257.52 235.10 252.01 234.96
  Q 247.54 234.84 242.19 230.86"
/>
<path stroke="#629461" vector-effect="non-scaling-stroke" d="
  M 242.19 230.86
  Q 241.73 233.59 241.47 235.94
  Q 241.16 238.77 240.53 241.18
  Q 239.34 245.74 238.16 250.50
  C 237.75 252.14 236.88 253.46 236.68 255.17
  Q 236.62 255.72 236.13 255.99
  L 233.45 257.44
  Q 233.03 257.67 232.91 258.13
  Q 232.14 260.98 229.59 262.45
  Q 224.13 265.60 219.33 266.30
  C 217.75 266.53 214.84 267.78 214.33 269.36
  Q 213.13 273.07 211.72 276.68"
/>
<path stroke="#689d66" vector-effect="non-scaling-stroke" d="
  M 211.72 276.68
  C 210.09 278.81 208.59 281.06 206.39 282.58
  Q 200.14 286.88 192.93 288.42
  C 190.35 288.97 186.70 288.42 186.49 285.22
  Q 186.21 280.95 187.17 276.92
  C 187.54 275.38 186.45 273.96 185.25 273.16
  Q 177.74 268.10 172.30 259.82
  Q 171.29 258.29 170.70 256.59
  C 170.09 254.82 169.42 251.93 167.59 251.03
  Q 166.24 250.36 165.25 249.50
  Q 164.22 248.60 163.05 247.91
  Q 160.00 246.12 158.53 243.54
  Q 156.89 240.65 154.89 237.95
  Q 153.32 235.81 152.98 233.41
  Q 152.66 231.15 152.95 228.04
  A 0.65 0.64 -87.6 0 0 152.30 227.33
  Q 149.95 227.37 147.99 228.57
  Q 137.78 234.85 126.49 231.66
  C 122.58 230.56 122.33 226.84 125.64 224.78
  Q 133.19 220.05 138.25 214.54
  Q 141.45 211.05 140.53 206.97
  Q 139.68 203.19 138.21 200.15
  Q 137.18 198.01 136.62 195.79
  Q 136.06 193.56 135.34 191.46
  Q 133.31 185.49 134.55 179.42
  Q 135.01 177.20 135.28 174.98
  Q 135.59 172.51 135.86 169.79
  Q 135.91 169.31 135.51 169.04
  Q 134.97 168.67 134.25 168.87
  A 0.35 0.32 -47.0 0 1 134.11 168.88
  L 127.08 168.21
  Q 126.49 168.15 126.01 168.50
  L 122.38 171.17"
/>
<path stroke="#86a977" vector-effect="non-scaling-stroke" d="
  M 122.38 171.17
  L 90.29 161.54
  A 2.18 2.18 0.0 0 0 88.65 161.69
  Q 86.69 162.71 85.30 164.17
  Q 77.70 172.12 74.54 182.58
  Q 72.11 190.66 70.72 203.00
  Q 68.82 219.84 68.21 231.86"
/>
<path stroke="#86a977" vector-effect="non-scaling-stroke" d="
  M 60.76 231.04
  Q 60.67 227.88 59.76 222.26
  C 58.99 217.59 59.86 212.06 59.61 207.56
  Q 58.87 193.71 59.52 183.26
  Q 60.29 171.00 64.88 159.04
  A 1.08 1.07 9.3 0 0 63.83 157.58
  C 61.62 157.68 58.26 160.00 56.41 161.24
  Q 54.09 162.80 51.97 165.42
  Q 38.03 182.61 30.08 199.27
  Q 25.22 209.46 22.28 222.80"
/>
<path stroke="#70a96c" vector-effect="non-scaling-stroke" d="
  M 211.72 276.68
  Q 215.70 275.75 217.95 274.17
  Q 222.47 271.02 229.23 264.92
  Q 229.58 264.61 230.05 264.52
  C 232.03 264.16 233.98 264.91 235.77 263.87
  Q 241.88 260.33 242.58 253.61
  C 242.79 251.65 241.61 249.72 241.18 247.86
  Q 240.83 246.37 241.59 243.60
  Q 243.36 237.22 242.19 230.86"
/>
<path stroke="#70a96c" vector-effect="non-scaling-stroke" d="
  M 279.64 179.98
  Q 277.45 180.83 275.20 181.63
  Q 272.49 182.60 271.42 184.04
  C 268.26 188.34 269.31 193.30 271.21 197.84
  C 273.15 202.47 278.50 205.58 282.98 207.27
  Q 284.84 207.97 291.27 208.30"
/>
<path stroke="#70a96c" vector-effect="non-scaling-stroke" d="
  M 295.76 233.25
  Q 289.52 232.77 286.40 237.68
  Q 285.62 238.91 285.05 244.30
  Q 284.81 246.59 285.75 249.11
  Q 286.77 251.86 287.74 253.76
  Q 290.12 258.43 296.99 256.74"
/>
<path stroke="#689d66" vector-effect="non-scaling-stroke" d="
  M 282.60 328.23
  Q 284.93 321.02 284.65 317.74
  Q 284.19 312.15 280.00 308.47
  A 2.36 2.34 -34.4 0 0 277.63 308.04
  Q 274.34 309.28 273.87 311.73"
/>
<path stroke="#70a96c" vector-effect="non-scaling-stroke" d="
  M 252.69 280.40
  Q 247.89 275.55 244.50 274.22
  C 241.10 272.88 237.85 274.66 234.60 275.64
  C 231.15 276.67 228.80 279.01 226.71 281.75
  C 223.52 285.94 225.16 292.76 227.31 297.27
  Q 227.99 298.70 229.48 299.57
  Q 233.83 302.12 236.62 302.78
  Q 242.13 304.06 248.99 302.92
  Q 250.42 302.68 253.21 300.31"
/>
<path stroke="#70a96c" vector-effect="non-scaling-stroke" d="
  M 253.61 329.06
  Q 248.20 330.15 245.04 331.57
  C 241.59 333.13 239.15 336.89 238.86 340.73
  Q 238.48 345.74 239.50 349.61
  A 4.27 4.22 14.0 0 0 240.78 351.71
  Q 244.03 354.65 247.95 356.44
  C 249.37 357.08 250.50 358.47 252.00 358.73
  Q 252.53 358.81 252.61 359.34
  L 252.93 361.31"
/>
<path stroke="#70a96c" vector-effect="non-scaling-stroke" d="
  M 216.28 370.20
  Q 224.42 367.64 228.43 360.12
  C 229.92 357.31 228.48 355.06 227.66 352.42
  A 1.41 1.40 -7.9 0 1 229.04 350.60
  Q 230.04 350.62 231.15 351.04
  A 0.65 0.64 -2.5 0 0 231.96 350.16
  C 231.47 349.11 229.95 348.67 228.90 348.82
  Q 226.45 349.16 225.00 347.10
  C 223.38 344.79 220.01 344.08 217.59 344.64
  Q 213.45 345.59 211.92 345.67"
/>
<path stroke="#70a96c" vector-effect="non-scaling-stroke" d="
  M 190.41 321.52
  Q 186.79 320.68 183.28 320.47
  Q 181.60 320.37 180.37 321.04
  C 177.27 322.74 174.50 325.89 171.94 328.57
  C 168.80 331.87 167.54 335.51 170.45 339.65
  Q 173.31 343.72 175.58 345.19
  Q 177.42 346.37 183.76 348.81"
/>
<path stroke="#70a96c" vector-effect="non-scaling-stroke" d="
  M 143.96 362.63
  L 144.68 360.57
  Q 144.86 360.04 145.39 359.87
  Q 149.80 358.42 150.96 355.66
  Q 152.28 352.50 152.69 349.11
  C 152.97 346.87 151.69 344.21 150.87 342.10
  C 149.56 338.74 146.52 338.08 143.63 336.98"
/>
<path stroke="#70a96c" vector-effect="non-scaling-stroke" d="
  M 143.36 323.72
  Q 149.42 323.82 153.75 321.36
  C 157.44 319.26 163.11 313.96 163.82 309.09
  Q 165.52 297.38 158.58 287.60
  Q 157.90 286.64 156.73 286.27
  C 153.27 285.16 149.58 283.40 145.80 284.12
  Q 145.03 284.27 144.74 283.97
  Q 144.38 283.61 144.33 282.78"
/>
<path stroke="#689d66" vector-effect="non-scaling-stroke" d="
  M 121.22 309.65
  Q 120.81 308.41 119.89 307.59
  Q 119.54 307.27 119.12 307.47
  Q 114.75 309.51 114.04 313.38
  Q 113.47 316.44 113.34 319.82
  Q 113.21 323.34 114.10 326.29"
/>
<path stroke="#70a96c" vector-effect="non-scaling-stroke" d="
  M 100.06 261.16
  Q 108.19 262.29 110.97 255.58
  Q 112.56 251.76 112.90 247.53
  C 113.48 240.16 110.11 233.57 102.56 232.40
  Q 102.01 232.32 101.91 231.77
  L 101.49 229.45"
/>
<path stroke="#70a96c" vector-effect="non-scaling-stroke" d="
  M 109.30 198.62
  Q 111.50 203.71 117.37 202.84
  C 126.86 201.43 130.52 191.54 127.86 183.11
  C 127.22 181.08 125.83 179.87 123.65 179.24
  Q 121.54 178.62 119.50 177.53"
/>
<path stroke="#94be82" vector-effect="non-scaling-stroke" d="
  M 122.38 171.17
  Q 123.05 171.72 122.22 173.00
  Q 120.13 176.21 119.50 177.53"
/>
<path stroke="#8eb47d" vector-effect="non-scaling-stroke" d="
  M 119.50 177.53
  C 118.14 179.43 116.76 181.27 115.76 183.36
  Q 113.84 187.35 111.91 191.34
  C 110.77 193.69 110.11 196.09 109.30 198.62"
/>
<path stroke="#94be82" vector-effect="non-scaling-stroke" d="
  M 109.30 198.62
  Q 107.66 201.46 106.73 205.01
  Q 104.39 213.94 102.20 222.98"
/>
<path stroke="#629461" vector-effect="non-scaling-stroke" d="
  M 75.31 133.79
  Q 72.46 131.25 71.25 131.05
  Q 67.51 130.43 64.03 129.37"
/>
<path stroke="#70a96c" vector-effect="non-scaling-stroke" d="
  M 272.27 169.38
  Q 269.43 168.99 266.91 170.76
  C 264.90 172.18 263.56 172.75 261.58 173.57
  A 2.80 2.78 81.6 0 0 259.87 175.89
  L 259.55 179.21"
/>
<path stroke="#629461" vector-effect="non-scaling-stroke" d="
  M 331.82 130.08
  L 324.07 132.37
  Q 323.59 132.51 323.28 132.90
  Q 321.35 135.33 318.55 135.92"
/>
<path stroke="#94be82" vector-effect="non-scaling-stroke" d="
  M 294.34 222.92
  L 291.27 208.30"
/>
<path stroke="#8eb47d" vector-effect="non-scaling-stroke" d="
  M 291.27 208.30
  Q 286.74 193.54 279.64 179.98"
/>
<path stroke="#94be82" vector-effect="non-scaling-stroke" d="
  M 279.64 179.98
  Q 278.02 177.33 275.69 174.25
  Q 274.81 173.10 275.14 170.79"
/>
<path stroke="#70a96c" vector-effect="non-scaling-stroke" d="
  M 182.52 39.81
  Q 178.52 41.28 174.28 42.55
  A 2.85 2.85 0.0 0 1 171.87 42.19
  Q 169.51 40.60 167.05 41.26
  Q 165.26 41.74 166.58 43.03
  Q 168.93 45.36 171.53 44.69
  A 0.96 0.96 0.0 0 1 172.70 45.84
  C 171.79 49.72 170.50 55.19 174.78 57.38
  Q 178.18 59.12 182.23 58.86
  Q 185.44 58.65 189.53 56.78
  Q 193.43 55.01 194.81 53.14
  Q 197.99 48.86 195.73 43.31
  C 193.81 38.60 186.29 38.42 182.52 39.81"
/>
<path stroke="#70a96c" vector-effect="non-scaling-stroke" d="
  M 247.44 71.94
  Q 252.46 72.57 255.95 71.74
  Q 262.51 70.17 266.43 63.53
  Q 268.25 60.45 267.46 56.75
  C 266.64 52.92 265.71 48.48 262.75 45.66
  Q 254.67 37.96 243.90 39.36
  Q 238.18 40.11 234.35 42.89
  Q 228.41 47.22 225.47 52.23
  C 223.60 55.41 224.51 59.85 226.79 62.61
  Q 231.64 68.46 238.76 70.31
  Q 242.78 71.35 247.44 71.94"
/>
<path stroke="#70a96c" vector-effect="non-scaling-stroke" d="
  M 148.28 61.93
  Q 148.07 61.39 147.56 61.63
  Q 145.29 62.70 142.75 63.05
  C 138.10 63.70 134.13 67.01 134.82 72.05
  C 135.39 76.19 138.91 78.65 143.03 78.47
  Q 149.43 78.20 150.30 72.35
  Q 150.75 69.29 150.81 65.95
  Q 150.82 65.43 150.55 64.99
  Q 149.77 63.73 148.98 62.37
  Q 148.82 62.09 148.50 62.08
  Q 148.34 62.07 148.28 61.93"
/>
<path stroke="#689d66" vector-effect="non-scaling-stroke" d="
  M 234.20 115.75
  Q 236.73 113.85 237.90 111.09
  C 239.04 108.40 237.82 105.50 234.65 105.42
  Q 231.75 105.35 229.63 107.84
  Q 225.32 112.89 219.65 116.99
  C 216.97 118.93 215.82 122.74 219.12 124.85
  C 222.19 126.82 223.13 125.19 225.26 123.54
  Q 228.89 120.71 231.52 117.70
  Q 231.98 117.18 232.68 117.17
  Q 233.24 117.16 233.49 116.63
  Q 233.73 116.10 234.20 115.75"
/>
<path stroke="#70a96c" vector-effect="non-scaling-stroke" d="
  M 164.06 115.73
  Q 167.56 119.25 171.73 122.50
  A 2.40 2.32 -85.4 0 1 172.38 123.29
  C 174.05 126.57 177.66 126.19 179.53 123.35
  C 180.85 121.34 179.60 118.81 177.80 117.68
  Q 176.78 117.05 175.75 116.39
  Q 174.87 115.83 174.17 114.96
  Q 171.18 111.26 167.08 108.87
  Q 166.56 108.57 166.27 108.04
  Q 164.78 105.32 162.18 105.71
  C 159.02 106.17 157.82 109.21 159.35 111.81
  Q 161.08 114.75 163.91 115.64
  Q 163.99 115.67 164.06 115.73"
/>
<path stroke="#85ba81" vector-effect="non-scaling-stroke" d="
  M 276.63 147.73
  Q 276.77 147.71 276.82 147.97
  A 0.03 0.03 0.0 0 0 276.88 147.97
  Q 278.43 142.52 277.69 136.89
  Q 277.64 136.43 277.37 136.06
  Q 276.47 134.83 276.65 133.16
  A 0.09 0.09 0.0 0 0 276.53 133.07
  Q 276.19 133.22 275.80 133.09
  A 0.75 0.74 77.4 0 1 275.49 132.89
  Q 274.51 131.91 273.61 130.93
  Q 272.60 129.83 271.08 129.65
  Q 267.86 129.26 264.59 130.93
  C 262.32 132.09 260.01 131.14 257.70 132.06
  Q 253.06 133.90 250.75 138.59
  Q 249.86 140.41 250.48 142.37
  Q 251.08 144.23 251.61 146.19
  C 251.93 147.35 251.74 148.37 252.21 149.45
  Q 252.39 149.85 252.77 150.05
  L 259.57 153.61
  Q 260.03 153.86 260.55 153.87
  C 261.72 153.89 262.81 154.56 264.02 154.72
  Q 272.76 155.86 276.49 147.83
  Q 276.54 147.74 276.63 147.73"
/>
<path stroke="#3b5939" vector-effect="non-scaling-stroke" d="
  M 167.56 139.45
  Q 170.51 135.45 166.45 131.97
  Q 164.86 130.60 162.91 129.93
  Q 162.45 129.76 161.99 129.94
  Q 160.09 130.68 158.06 131.14
  C 155.77 131.65 155.25 133.45 154.87 135.45
  Q 154.15 139.34 158.12 142.29
  C 159.61 143.39 161.20 142.83 162.89 143.42
  A 1.11 1.08 -54.5 0 0 163.94 143.23
  Q 166.06 141.48 167.56 139.45"
/>
<path stroke="#3b5939" vector-effect="non-scaling-stroke" d="
  M 242.10 136.50
  A 6.76 6.76 0.0 0 0 235.34 129.74
  A 6.76 6.76 0.0 0 0 228.58 136.50
  A 6.76 6.76 0.0 0 0 235.34 143.26
  A 6.76 6.76 0.0 0 0 242.10 136.50"
/>
<path stroke="#85ba81" vector-effect="non-scaling-stroke" d="
  M 133.89 136.60
  Q 130.61 134.20 127.05 135.56
  A 1.96 1.93 38.4 0 1 126.10 135.66
  Q 124.74 135.45 123.27 136.09
  A 0.62 0.62 0.0 0 0 122.90 136.64
  Q 122.88 137.35 122.33 137.79
  Q 121.71 138.28 121.43 138.98
  Q 120.77 140.62 121.40 142.36
  Q 123.42 148.00 129.29 148.10
  C 130.63 148.12 131.65 147.24 132.91 146.86
  Q 133.42 146.70 133.68 146.23
  C 134.87 144.01 134.25 140.64 134.56 138.16
  Q 134.68 137.18 133.89 136.60"
/>
<path stroke="#85ba81" vector-effect="non-scaling-stroke" d="
  M 251.78 188.43
  C 252.71 185.43 250.91 181.38 249.03 178.84
  A 0.82 0.82 0.0 0 0 248.21 178.52
  C 242.63 179.57 241.99 183.60 241.54 188.28
  C 241.31 190.71 243.00 192.70 244.42 194.43
  Q 244.92 195.05 245.69 194.78
  Q 250.33 193.16 251.78 188.43"
/>
<path stroke="#85ba81" vector-effect="non-scaling-stroke" d="
  M 187.50 192.11
  Q 188.34 188.28 186.50 184.30
  Q 186.23 183.72 185.62 183.57
  C 180.72 182.39 180.02 187.00 178.86 190.25
  C 177.82 193.16 178.92 196.19 182.12 196.94
  Q 183.75 197.31 185.06 196.12
  Q 187.02 194.34 187.50 192.11"
/>
<path stroke="#85ba81" vector-effect="non-scaling-stroke" d="
  M 219.00 191.74
  C 218.02 196.30 215.75 200.70 221.78 203.20
  A 1.54 1.51 42.7 0 0 223.07 203.16
  C 227.24 201.07 226.06 198.00 227.52 194.54
  C 228.39 192.50 228.42 187.17 226.52 185.61
  Q 226.12 185.28 225.61 185.39
  Q 220.08 186.68 219.00 191.74"
/>
<path stroke="#85ba81" vector-effect="non-scaling-stroke" d="
  M 161.55 191.66
  Q 159.93 195.81 162.80 198.90
  C 164.47 200.71 167.02 200.13 167.91 198.03
  Q 169.20 195.01 168.62 190.75
  C 168.18 187.56 165.05 186.73 163.12 189.00
  Q 162.12 190.18 161.55 191.66"
/>
<path stroke="#85ba81" vector-effect="non-scaling-stroke" d="
  M 206.10 201.96
  C 206.41 201.06 206.92 200.36 207.08 199.39
  Q 207.82 194.95 207.24 190.67
  C 206.71 186.69 202.69 187.21 200.70 189.47
  Q 196.95 193.72 197.13 199.36
  Q 197.21 202.01 198.03 203.59
  C 200.03 207.46 204.80 205.61 206.10 201.96"
/>
<path stroke="#85ba81" vector-effect="non-scaling-stroke" d="
  M 246.52 224.52
  C 248.22 225.31 250.14 225.73 252.01 225.01
  Q 253.87 224.28 252.86 222.56
  C 251.33 219.94 247.12 216.85 245.45 221.54
  Q 244.70 223.67 246.52 224.52"
/>
<path stroke="#85ba81" vector-effect="non-scaling-stroke" d="
  M 163.5051 233.6837
  A 4.49 3.34 96.2 0 0 167.3105 229.5807
  A 4.49 3.34 96.2 0 0 164.4749 224.7563
  A 4.49 3.34 96.2 0 0 160.6695 228.8593
  A 4.49 3.34 96.2 0 0 163.5051 233.6837"
/>
<path stroke="#85ba81" vector-effect="non-scaling-stroke" d="
  M 220.82 241.83
  C 220.24 244.74 219.41 249.07 219.87 251.76
  A 2.53 2.53 0.0 0 0 224.55 252.62
  C 226.83 248.76 231.83 244.51 227.31 239.85
  C 225.49 237.98 221.31 239.38 220.82 241.83"
/>
<path stroke="#85ba81" vector-effect="non-scaling-stroke" d="
  M 183.80 259.28
  A 0.71 0.70 34.3 0 0 184.90 259.08
  Q 187.14 254.65 186.22 249.67
  C 185.64 246.56 180.68 245.61 180.09 249.30
  Q 179.15 255.09 183.80 259.28"
/>
<path stroke="#629461" vector-effect="non-scaling-stroke" d="
  M 47.29 160.07
  Q 50.39 158.45 52.89 156.13
  Q 54.44 154.68 57.16 153.71
  Q 62.22 151.91 67.27 149.97
  Q 71.85 148.20 73.05 152.63
  Q 73.23 153.29 72.72 153.76
  Q 70.91 155.43 70.54 157.81
  C 70.08 160.75 68.72 166.54 72.67 167.50
  A 1.37 1.37 0.0 0 0 73.64 167.37
  C 75.53 166.33 76.50 164.30 78.20 162.98
  C 81.15 160.68 82.36 157.33 84.77 154.60
  C 86.79 152.31 85.64 148.74 83.87 146.68
  C 80.15 142.38 75.87 140.98 70.82 139.05
  C 68.34 138.10 66.03 135.38 63.21 136.59
  Q 57.50 139.04 54.38 142.92
  Q 52.75 144.94 50.55 146.67
  Q 47.12 149.36 44.83 152.86
  Q 40.30 159.80 35.72 166.44
  C 32.90 170.52 31.70 174.26 31.68 179.05
  A 0.51 0.51 0.0 0 0 32.13 179.56
  Q 32.75 179.62 33.16 179.15
  C 35.50 176.50 36.97 173.21 39.27 170.52
  Q 42.95 166.20 46.04 161.23
  A 3.22 3.15 1.5 0 1 47.29 160.07"
/>
<path stroke="#629461" vector-effect="non-scaling-stroke" d="
  M 344.24 146.77
  C 341.53 144.03 338.30 143.95 336.23 140.07
  C 334.02 135.93 329.05 135.57 325.86 138.82
  C 324.47 140.23 321.77 141.70 321.26 143.61
  Q 320.65 145.83 322.83 147.08
  Q 328.00 150.04 335.06 152.02
  C 338.05 152.87 340.68 154.71 343.52 156.12
  Q 347.96 158.32 352.05 161.80
  A 1.10 1.10 0.0 0 0 353.84 161.20
  Q 354.30 159.14 353.12 157.42
  Q 349.28 151.86 344.24 146.77"
/>
<path stroke="#629461" vector-effect="non-scaling-stroke" d="
  M 311.47 157.17
  Q 314.78 158.68 317.94 160.61
  A 1.93 1.93 0.0 0 0 320.86 159.19
  C 321.38 154.81 318.18 151.00 315.53 147.72
  Q 313.44 145.13 310.79 145.62
  C 302.46 147.16 306.55 154.92 311.47 157.17"
/>
<path stroke="#70a96c" vector-effect="non-scaling-stroke" d="
  M 122.5176 212.1241
  A 7.42 5.87 -45.1 0 0 113.1220 213.2365
  A 7.42 5.87 -45.1 0 0 112.0424 222.6359
  A 7.42 5.87 -45.1 0 0 121.4380 221.5235
  A 7.42 5.87 -45.1 0 0 122.5176 212.1241"
/>
<path stroke="#70a96c" vector-effect="non-scaling-stroke" d="
  M 272.52 261.88
  A 2.41 2.40 -47.8 0 0 275.38 261.74
  C 279.73 258.16 277.89 254.58 275.72 250.39
  Q 275.43 249.82 274.83 249.61
  C 272.09 248.66 268.18 249.52 267.92 253.05
  Q 267.52 258.50 272.52 261.88"
/>
<path stroke="#70a96c" vector-effect="non-scaling-stroke" d="
  M 155.97 269.48
  C 153.56 275.32 159.93 278.26 164.75 278.90
  C 168.47 279.39 171.10 276.66 170.82 273.15
  Q 170.25 265.85 163.16 263.25
  C 159.44 261.89 157.08 266.81 155.97 269.48"
/>
<path stroke="#70a96c" vector-effect="non-scaling-stroke" d="
  M 190.3039 303.9015
  A 7.46 6.30 13.5 0 0 184.5207 296.0341
  A 7.46 6.30 13.5 0 0 175.7961 300.4185
  A 7.46 6.30 13.5 0 0 181.5793 308.2859
  A 7.46 6.30 13.5 0 0 190.3039 303.9015"
/>
<path stroke="#70a96c" vector-effect="non-scaling-stroke" d="
  M 223.07 324.04
  Q 226.28 327.27 229.73 327.74
  C 237.15 328.78 238.83 321.54 234.27 316.93
  C 231.19 313.83 226.82 311.87 223.25 315.58
  C 221.82 317.06 222.42 319.18 222.11 321.04
  Q 221.82 322.78 223.07 324.04"
/>
</g>
<path fill="#76b271" d="
  M 209.81 6.17
  Q 206.07 9.72 203.55 13.61
  Q 201.70 16.47 201.71 18.51
  Q 201.73 21.64 204.28 23.83
  C 208.89 27.79 214.33 31.67 220.44 32.47
  Q 232.21 34.02 241.44 29.41
  Q 243.79 28.23 244.28 26.02
  Q 245.44 20.67 245.02 12.46
  Q 255.11 15.46 265.82 21.42
  Q 286.33 32.82 296.39 53.08
  Q 285.79 53.50 284.32 63.49
  Q 283.98 65.76 283.54 68.05
  Q 283.07 70.47 283.20 72.78
  Q 283.80 83.73 293.59 89.86
  Q 294.71 90.57 295.87 90.59
  Q 300.35 90.66 305.11 89.81
  Q 305.57 105.12 301.82 119.95
  C 301.35 121.81 300.46 123.38 299.91 125.32
  Q 298.56 130.12 296.29 134.19
  Q 295.95 134.80 295.92 135.50
  Q 295.88 136.76 294.82 137.38
  Q 294.54 137.54 294.36 137.82
  Q 294.25 137.99 294.22 138.19
  Q 294.16 138.54 293.94 138.83
  L 286.27 148.98
  Q 285.18 150.00 283.88 151.33
  Q 282.69 152.55 281.36 153.48
  C 277.85 155.95 274.02 159.32 270.14 160.47
  Q 267.30 161.31 264.46 161.73
  A 4.03 4.03 0.0 0 1 260.98 160.52
  Q 257.96 157.36 252.32 158.18
  Q 247.82 158.84 248.00 162.68
  Q 248.06 163.90 248.67 164.90
  C 249.45 166.20 250.47 168.22 252.14 168.38
  Q 252.63 168.43 252.87 168.86
  Q 253.49 170.00 253.52 171.37
  Q 253.70 179.20 253.69 186.08
  C 253.68 189.90 252.63 193.26 251.99 196.92
  Q 250.47 205.71 252.24 213.70
  C 253.19 218.03 255.95 221.10 260.01 222.86
  Q 263.32 224.30 266.62 225.92
  A 0.70 0.70 0.0 0 1 266.67 227.15
  Q 263.00 229.34 258.54 229.33
  C 252.30 229.33 248.44 227.59 243.30 224.04
  C 241.64 222.89 240.47 221.12 240.20 219.11
  Q 239.29 212.45 238.02 206.28
  C 236.76 200.19 237.96 194.16 239.49 188.35
  C 240.08 186.11 240.00 183.91 240.58 181.74
  C 241.61 177.91 241.42 173.79 240.34 170.02
  Q 239.46 166.98 240.58 164.07
  C 240.95 163.09 240.94 162.09 240.90 161.06
  A 1.56 1.55 -3.4 0 0 239.22 159.57
  Q 236.77 159.78 234.32 159.98
  Q 231.98 160.17 232.07 162.50
  C 232.12 163.67 231.97 164.74 232.55 165.82
  C 236.57 173.33 234.91 181.64 233.11 189.78
  C 231.55 196.86 230.82 202.64 231.96 208.75
  Q 233.53 217.05 235.35 225.11
  C 235.96 227.76 236.04 231.44 235.43 234.06
  Q 234.75 236.95 234.41 240.15
  C 233.75 246.43 228.48 253.88 224.24 257.50
  Q 221.21 260.09 216.60 260.99
  A 0.70 0.69 88.6 0 1 215.79 260.21
  Q 216.82 252.67 216.12 245.39
  Q 214.87 232.29 214.68 219.21
  Q 214.62 214.89 214.27 210.98
  Q 213.88 206.70 214.34 203.47
  C 214.89 199.57 214.71 195.74 215.68 191.87
  C 217.40 185.01 219.45 178.51 220.39 171.49
  Q 220.14 169.43 220.97 167.70
  Q 221.20 167.21 221.71 167.00
  L 224.46 165.85
  A 1.70 1.69 -1.8 0 0 225.40 164.86
  Q 226.52 161.74 224.15 159.35
  Q 223.75 158.96 223.20 158.86
  Q 219.96 158.30 217.79 159.09
  Q 211.71 161.33 213.97 167.31
  C 214.52 168.77 214.37 170.02 214.42 171.54
  Q 213.18 178.11 211.63 184.59
  Q 211.61 184.69 210.58 189.93
  C 209.94 193.20 207.85 196.61 208.13 200.10
  C 208.56 205.74 208.07 211.43 208.62 217.07
  C 209.44 225.45 208.65 234.12 209.55 242.69
  Q 210.11 248.08 210.41 253.58
  Q 210.91 262.49 207.20 271.84
  Q 205.93 275.04 202.67 277.80
  C 199.84 280.19 196.14 280.81 192.93 282.60
  A 0.42 0.42 0.0 0 1 192.31 282.20
  Q 192.62 279.01 193.50 277.28
  Q 197.35 277.76 200.56 275.51
  Q 203.09 273.74 204.14 271.04
  Q 207.04 263.65 207.15 256.89
  Q 207.21 253.01 204.21 251.09
  Q 203.98 250.95 203.72 250.86
  Q 200.33 249.70 199.94 253.25
  C 199.55 256.86 199.73 260.47 198.62 263.99
  Q 197.28 268.27 194.80 272.02
  Q 196.41 260.92 194.98 249.76
  Q 193.54 238.46 192.12 226.25
  C 192.01 225.24 191.53 224.27 191.49 223.24
  Q 191.09 213.85 192.08 206.03
  Q 192.90 199.50 195.77 191.36
  Q 198.29 184.22 200.51 176.78
  Q 201.61 173.10 202.35 169.10
  Q 203.26 164.19 197.95 163.88
  Q 196.18 163.78 196.00 165.54
  Q 195.45 170.69 194.33 177.15
  C 193.88 179.75 192.41 182.20 191.69 184.80
  Q 190.81 187.95 189.73 191.21
  Q 188.18 195.87 187.05 200.84
  Q 186.11 204.95 185.93 209.85
  Q 185.46 222.57 186.49 229.96
  Q 188.17 242.01 189.69 254.36
  C 190.22 258.67 189.28 262.64 188.88 266.83
  A 0.42 0.42 0.0 0 1 188.28 267.16
  Q 176.48 261.19 174.70 248.49
  Q 174.08 244.07 174.77 236.14
  C 175.50 227.70 175.33 219.59 175.41 211.29
  Q 175.45 207.06 175.10 202.44
  Q 174.75 197.90 175.65 193.67
  Q 176.53 189.51 177.37 185.08
  C 178.28 180.25 180.11 175.95 181.45 171.26
  Q 181.89 169.69 183.44 167.52
  C 185.83 166.16 189.35 163.67 189.18 160.73
  C 188.87 155.60 182.24 156.56 179.20 157.52
  Q 176.77 158.30 175.66 161.00
  Q 175.47 161.47 175.63 161.95
  Q 176.17 163.53 176.90 164.99
  Q 177.66 166.50 176.55 167.54
  Q 173.95 174.41 171.87 181.69
  C 170.67 185.87 170.51 189.98 169.59 194.14
  C 169.02 196.77 169.60 199.64 169.31 202.35
  Q 168.41 210.87 169.62 218.11
  Q 170.19 221.58 169.98 225.18
  Q 169.46 233.65 168.85 241.51
  Q 168.79 242.28 168.26 242.82
  A 1.33 1.32 43.4 0 1 166.43 242.87
  Q 161.60 238.53 159.60 232.19
  Q 158.55 228.86 158.98 223.77
  Q 159.38 219.13 159.84 215.32
  C 160.42 210.50 160.46 205.70 160.47 200.86
  C 160.48 197.81 159.10 195.50 160.04 192.35
  Q 160.20 191.81 160.07 191.27
  C 159.72 189.74 159.06 188.43 159.05 186.83
  Q 159.02 175.97 163.59 166.98
  Q 164.84 164.53 162.48 162.59
  Q 162.09 162.27 161.52 162.30
  Q 159.14 162.44 158.13 164.60
  Q 154.68 172.00 153.95 179.69
  Q 153.00 189.75 154.26 198.07
  C 155.30 204.98 154.39 211.89 152.92 218.36
  A 1.56 1.54 -12.9 0 1 152.34 219.27
  Q 147.43 222.94 144.74 223.69
  Q 140.12 224.98 135.43 226.95
  A 0.76 0.75 64.0 0 1 134.48 226.62
  L 134.35 226.39
  A 0.48 0.48 0.0 0 1 134.53 225.75
  Q 140.87 222.16 145.01 215.49
  C 147.48 211.49 147.54 207.26 145.73 203.02
  Q 142.78 196.10 141.56 188.38
  Q 142.82 194.45 147.51 194.87
  Q 149.73 195.06 150.62 193.58
  C 151.90 191.43 150.84 186.85 149.92 184.59
  Q 148.65 181.50 145.00 181.30
  Q 140.91 181.08 141.20 184.97
  Q 140.07 180.68 140.50 178.99
  Q 142.12 172.68 143.14 166.81
  A 1.75 1.74 -64.0 0 0 142.60 165.23
  Q 139.47 162.33 135.45 162.90
  Q 133.15 163.23 131.07 162.70
  Q 126.99 161.67 122.68 158.81
  Q 115.08 153.78 110.54 148.99
  Q 105.16 142.24 101.11 135.29
  C 99.24 132.09 98.50 128.72 96.92 125.43
  C 96.54 124.64 96.68 123.74 96.36 122.85
  Q 95.10 119.28 93.93 115.63
  Q 93.53 114.38 93.35 112.05
  Q 93.21 110.30 92.66 108.41
  Q 101.23 108.74 108.76 105.11
  Q 110.69 104.18 111.26 106.33
  Q 111.55 107.45 112.12 106.44
  C 112.35 106.04 112.43 105.64 112.31 105.19
  Q 111.86 103.41 112.36 101.97
  C 114.74 94.95 116.52 89.35 113.01 82.12
  Q 111.18 78.34 108.06 76.87
  Q 103.14 74.54 99.64 74.34
  Q 98.10 74.26 96.25 74.54
  Q 94.41 74.82 93.90 73.29
  L 96.94 61.57
  Q 102.93 64.54 109.08 65.10
  Q 113.73 65.53 117.68 63.76
  Q 122.06 61.79 124.84 58.31
  Q 128.80 53.35 127.84 48.22
  Q 129.93 45.09 127.81 41.43
  Q 126.88 39.81 125.36 39.56
  Q 123.79 39.30 122.01 40.00
  Q 123.08 38.59 121.94 38.24
  Q 117.42 36.84 115.69 32.61
  Q 124.05 25.17 134.00 19.70
  Q 136.36 19.27 138.56 17.86
  Q 138.97 17.61 139.38 17.85
  L 148.32 23.27
  Q 146.76 23.36 145.36 24.12
  Q 144.20 24.74 143.07 25.28
  C 138.51 27.44 134.46 29.48 132.91 34.72
  Q 132.75 35.24 133.02 35.70
  Q 135.29 39.74 139.73 37.91
  Q 145.02 35.74 150.22 33.97
  C 152.33 33.25 154.24 32.27 156.42 31.66
  C 164.66 29.37 172.33 26.12 181.34 24.91
  Q 182.57 24.74 183.63 24.31
  C 185.66 23.50 187.52 23.95 189.23 22.34
  Q 190.59 21.05 191.65 19.59
  A 1.68 1.67 31.1 0 0 191.03 17.11
  Q 186.86 15.07 182.01 15.28
  Q 177.15 15.50 173.78 16.45
  Q 175.28 13.27 173.61 7.28
  Q 176.76 7.27 179.56 6.93
  Q 183.34 6.47 185.48 6.43
  Q 189.10 6.35 192.72 6.13
  Q 197.58 5.82 201.27 5.93
  Q 205.27 6.04 209.81 6.17
  Z
  M 182.52 39.81
  Q 178.52 41.28 174.28 42.55
  A 2.85 2.85 0.0 0 1 171.87 42.19
  Q 169.51 40.60 167.05 41.26
  Q 165.26 41.74 166.58 43.03
  Q 168.93 45.36 171.53 44.69
  A 0.96 0.96 0.0 0 1 172.70 45.84
  C 171.79 49.72 170.50 55.19 174.78 57.38
  Q 178.18 59.12 182.23 58.86
  Q 185.44 58.65 189.53 56.78
  Q 193.43 55.01 194.81 53.14
  Q 197.99 48.86 195.73 43.31
  C 193.81 38.60 186.29 38.42 182.52 39.81
  Z
  M 247.44 71.94
  Q 252.46 72.57 255.95 71.74
  Q 262.51 70.17 266.43 63.53
  Q 268.25 60.45 267.46 56.75
  C 266.64 52.92 265.71 48.48 262.75 45.66
  Q 254.67 37.96 243.90 39.36
  Q 238.18 40.11 234.35 42.89
  Q 228.41 47.22 225.47 52.23
  C 223.60 55.41 224.51 59.85 226.79 62.61
  Q 231.64 68.46 238.76 70.31
  Q 242.78 71.35 247.44 71.94
  Z
  M 148.28 61.93
  Q 148.07 61.39 147.56 61.63
  Q 145.29 62.70 142.75 63.05
  C 138.10 63.70 134.13 67.01 134.82 72.05
  C 135.39 76.19 138.91 78.65 143.03 78.47
  Q 149.43 78.20 150.30 72.35
  Q 150.75 69.29 150.81 65.95
  Q 150.82 65.43 150.55 64.99
  Q 149.77 63.73 148.98 62.37
  Q 148.82 62.09 148.50 62.08
  Q 148.34 62.07 148.28 61.93
  Z
  M 234.20 115.75
  Q 236.73 113.85 237.90 111.09
  C 239.04 108.40 237.82 105.50 234.65 105.42
  Q 231.75 105.35 229.63 107.84
  Q 225.32 112.89 219.65 116.99
  C 216.97 118.93 215.82 122.74 219.12 124.85
  C 222.19 126.82 223.13 125.19 225.26 123.54
  Q 228.89 120.71 231.52 117.70
  Q 231.98 117.18 232.68 117.17
  Q 233.24 117.16 233.49 116.63
  Q 233.73 116.10 234.20 115.75
  Z
  M 164.06 115.73
  Q 167.56 119.25 171.73 122.50
  A 2.40 2.32 -85.4 0 1 172.38 123.29
  C 174.05 126.57 177.66 126.19 179.53 123.35
  C 180.85 121.34 179.60 118.81 177.80 117.68
  Q 176.78 117.05 175.75 116.39
  Q 174.87 115.83 174.17 114.96
  Q 171.18 111.26 167.08 108.87
  Q 166.56 108.57 166.27 108.04
  Q 164.78 105.32 162.18 105.71
  C 159.02 106.17 157.82 109.21 159.35 111.81
  Q 161.08 114.75 163.91 115.64
  Q 163.99 115.67 164.06 115.73
  Z
  M 276.63 147.73
  Q 276.77 147.71 276.82 147.97
  A 0.03 0.03 0.0 0 0 276.88 147.97
  Q 278.43 142.52 277.69 136.89
  Q 277.64 136.43 277.37 136.06
  Q 276.47 134.83 276.65 133.16
  A 0.09 0.09 0.0 0 0 276.53 133.07
  Q 276.19 133.22 275.80 133.09
  A 0.75 0.74 77.4 0 1 275.49 132.89
  Q 274.51 131.91 273.61 130.93
  Q 272.60 129.83 271.08 129.65
  Q 267.86 129.26 264.59 130.93
  C 262.32 132.09 260.01 131.14 257.70 132.06
  Q 253.06 133.90 250.75 138.59
  Q 249.86 140.41 250.48 142.37
  Q 251.08 144.23 251.61 146.19
  C 251.93 147.35 251.74 148.37 252.21 149.45
  Q 252.39 149.85 252.77 150.05
  L 259.57 153.61
  Q 260.03 153.86 260.55 153.87
  C 261.72 153.89 262.81 154.56 264.02 154.72
  Q 272.76 155.86 276.49 147.83
  Q 276.54 147.74 276.63 147.73
  Z
  M 167.56 139.45
  Q 170.51 135.45 166.45 131.97
  Q 164.86 130.60 162.91 129.93
  Q 162.45 129.76 161.99 129.94
  Q 160.09 130.68 158.06 131.14
  C 155.77 131.65 155.25 133.45 154.87 135.45
  Q 154.15 139.34 158.12 142.29
  C 159.61 143.39 161.20 142.83 162.89 143.42
  A 1.11 1.08 -54.5 0 0 163.94 143.23
  Q 166.06 141.48 167.56 139.45
  Z
  M 242.10 136.50
  A 6.76 6.76 0.0 0 0 235.34 129.74
  A 6.76 6.76 0.0 0 0 228.58 136.50
  A 6.76 6.76 0.0 0 0 235.34 143.26
  A 6.76 6.76 0.0 0 0 242.10 136.50
  Z
  M 133.89 136.60
  Q 130.61 134.20 127.05 135.56
  A 1.96 1.93 38.4 0 1 126.10 135.66
  Q 124.74 135.45 123.27 136.09
  A 0.62 0.62 0.0 0 0 122.90 136.64
  Q 122.88 137.35 122.33 137.79
  Q 121.71 138.28 121.43 138.98
  Q 120.77 140.62 121.40 142.36
  Q 123.42 148.00 129.29 148.10
  C 130.63 148.12 131.65 147.24 132.91 146.86
  Q 133.42 146.70 133.68 146.23
  C 134.87 144.01 134.25 140.64 134.56 138.16
  Q 134.68 137.18 133.89 136.60
  Z
  M 251.78 188.43
  C 252.71 185.43 250.91 181.38 249.03 178.84
  A 0.82 0.82 0.0 0 0 248.21 178.52
  C 242.63 179.57 241.99 183.60 241.54 188.28
  C 241.31 190.71 243.00 192.70 244.42 194.43
  Q 244.92 195.05 245.69 194.78
  Q 250.33 193.16 251.78 188.43
  Z
  M 187.50 192.11
  Q 188.34 188.28 186.50 184.30
  Q 186.23 183.72 185.62 183.57
  C 180.72 182.39 180.02 187.00 178.86 190.25
  C 177.82 193.16 178.92 196.19 182.12 196.94
  Q 183.75 197.31 185.06 196.12
  Q 187.02 194.34 187.50 192.11
  Z
  M 219.00 191.74
  C 218.02 196.30 215.75 200.70 221.78 203.20
  A 1.54 1.51 42.7 0 0 223.07 203.16
  C 227.24 201.07 226.06 198.00 227.52 194.54
  C 228.39 192.50 228.42 187.17 226.52 185.61
  Q 226.12 185.28 225.61 185.39
  Q 220.08 186.68 219.00 191.74
  Z
  M 161.55 191.66
  Q 159.93 195.81 162.80 198.90
  C 164.47 200.71 167.02 200.13 167.91 198.03
  Q 169.20 195.01 168.62 190.75
  C 168.18 187.56 165.05 186.73 163.12 189.00
  Q 162.12 190.18 161.55 191.66
  Z
  M 206.10 201.96
  C 206.41 201.06 206.92 200.36 207.08 199.39
  Q 207.82 194.95 207.24 190.67
  C 206.71 186.69 202.69 187.21 200.70 189.47
  Q 196.95 193.72 197.13 199.36
  Q 197.21 202.01 198.03 203.59
  C 200.03 207.46 204.80 205.61 206.10 201.96
  Z
  M 246.52 224.52
  C 248.22 225.31 250.14 225.73 252.01 225.01
  Q 253.87 224.28 252.86 222.56
  C 251.33 219.94 247.12 216.85 245.45 221.54
  Q 244.70 223.67 246.52 224.52
  Z
  M 163.5051 233.6837
  A 4.49 3.34 96.2 0 0 167.3105 229.5807
  A 4.49 3.34 96.2 0 0 164.4749 224.7563
  A 4.49 3.34 96.2 0 0 160.6695 228.8593
  A 4.49 3.34 96.2 0 0 163.5051 233.6837
  Z
  M 220.82 241.83
  C 220.24 244.74 219.41 249.07 219.87 251.76
  A 2.53 2.53 0.0 0 0 224.55 252.62
  C 226.83 248.76 231.83 244.51 227.31 239.85
  C 225.49 237.98 221.31 239.38 220.82 241.83
  Z
  M 183.80 259.28
  A 0.71 0.70 34.3 0 0 184.90 259.08
  Q 187.14 254.65 186.22 249.67
  C 185.64 246.56 180.68 245.61 180.09 249.30
  Q 179.15 255.09 183.80 259.28
  Z"
/>
<path fill="#699f67" d="
  M 209.81 6.17
  Q 211.21 6.34 213.26 6.43
  C 216.57 6.59 219.85 7.26 223.14 7.52
  C 228.01 7.90 232.72 9.17 237.48 10.29
  Q 242.00 11.35 245.02 12.46
  Q 245.44 20.67 244.28 26.02
  Q 243.79 28.23 241.44 29.41
  Q 232.21 34.02 220.44 32.47
  C 214.33 31.67 208.89 27.79 204.28 23.83
  Q 201.73 21.64 201.71 18.51
  Q 201.70 16.47 203.55 13.61
  Q 206.07 9.72 209.81 6.17
  Z"
/>
<path fill="#699f67" d="
  M 173.61 7.28
  Q 175.28 13.27 173.78 16.45
  Q 166.37 16.60 160.68 19.06
  Q 159.98 19.36 159.09 19.47
  C 155.49 19.90 151.80 21.77 148.32 23.27
  L 139.38 17.85
  Q 138.97 17.61 138.56 17.86
  Q 136.36 19.27 134.00 19.70
  Q 136.06 18.34 138.40 17.51
  Q 142.12 16.18 142.97 15.79
  Q 145.96 14.41 149.07 13.08
  C 149.54 12.88 150.26 13.08 150.95 12.78
  Q 152.87 11.93 157.00 10.93
  Q 165.67 8.82 173.61 7.28
  Z"
/>
<path fill="#93c190" d="
  M 148.32 23.27
  C 151.80 21.77 155.49 19.90 159.09 19.47
  Q 159.98 19.36 160.68 19.06
  Q 166.37 16.60 173.78 16.45
  Q 177.15 15.50 182.01 15.28
  Q 186.86 15.07 191.03 17.11
  A 1.68 1.67 31.1 0 1 191.65 19.59
  Q 190.59 21.05 189.23 22.34
  C 187.52 23.95 185.66 23.50 183.63 24.31
  Q 182.57 24.74 181.34 24.91
  C 172.33 26.12 164.66 29.37 156.42 31.66
  C 154.24 32.27 152.33 33.25 150.22 33.97
  Q 145.02 35.74 139.73 37.91
  Q 135.29 39.74 133.02 35.70
  Q 132.75 35.24 132.91 34.72
  C 134.46 29.48 138.51 27.44 143.07 25.28
  Q 144.20 24.74 145.36 24.12
  Q 146.76 23.36 148.32 23.27
  Z"
/>
<path fill="#699f67" d="
  M 115.69 32.61
  Q 117.42 36.84 121.94 38.24
  Q 123.08 38.59 122.01 40.00
  Q 118.55 41.01 118.13 44.60
  C 117.37 51.17 123.95 49.48 127.84 48.22
  Q 128.80 53.35 124.84 58.31
  Q 122.06 61.79 117.68 63.76
  Q 113.73 65.53 109.08 65.10
  Q 102.93 64.54 96.94 61.57
  Q 102.46 45.28 115.69 32.61
  Z"
/>
<path fill="#699f67" d="
  M 182.52 39.81
  C 186.29 38.42 193.81 38.60 195.73 43.31
  Q 197.99 48.86 194.81 53.14
  Q 193.43 55.01 189.53 56.78
  Q 185.44 58.65 182.23 58.86
  Q 178.18 59.12 174.78 57.38
  C 170.50 55.19 171.79 49.72 172.70 45.84
  A 0.96 0.96 0.0 0 0 171.53 44.69
  Q 168.93 45.36 166.58 43.03
  Q 165.26 41.74 167.05 41.26
  Q 169.51 40.60 171.87 42.19
  A 2.85 2.85 0.0 0 0 174.28 42.55
  Q 178.52 41.28 182.52 39.81
  Z"
/>
<path fill="#699f67" d="
  M 238.76 70.31
  Q 231.64 68.46 226.79 62.61
  C 224.51 59.85 223.60 55.41 225.47 52.23
  Q 228.41 47.22 234.35 42.89
  Q 238.18 40.11 243.90 39.36
  Q 254.67 37.96 262.75 45.66
  C 265.71 48.48 266.64 52.92 267.46 56.75
  Q 268.25 60.45 266.43 63.53
  Q 262.51 70.17 255.95 71.74
  Q 252.46 72.57 247.44 71.94
  Q 242.78 71.35 238.76 70.31
  Z"
/>
<path fill="#93c190" d="
  M 127.84 48.22
  C 123.95 49.48 117.37 51.17 118.13 44.60
  Q 118.55 41.01 122.01 40.00
  Q 123.79 39.30 125.36 39.56
  Q 126.88 39.81 127.81 41.43
  Q 129.93 45.09 127.84 48.22
  Z"
/>
<path fill="#699f67" d="
  M 296.39 53.08
  Q 304.51 70.35 305.11 89.81
  Q 300.35 90.66 295.87 90.59
  Q 294.71 90.57 293.59 89.86
  Q 283.80 83.73 283.20 72.78
  Q 283.07 70.47 283.54 68.05
  Q 283.98 65.76 284.32 63.49
  Q 285.79 53.50 296.39 53.08
  Z"
/>
<path fill="#699f67" d="
  M 148.50 62.08
  Q 148.82 62.09 148.98 62.37
  Q 149.77 63.73 150.55 64.99
  Q 150.82 65.43 150.81 65.95
  Q 150.75 69.29 150.30 72.35
  Q 149.43 78.20 143.03 78.47
  C 138.91 78.65 135.39 76.19 134.82 72.05
  C 134.13 67.01 138.10 63.70 142.75 63.05
  Q 145.29 62.70 147.56 61.63
  Q 148.07 61.39 148.28 61.93
  Q 148.34 62.07 148.50 62.08
  Z"
/>
<path fill="#699f67" d="
  M 93.90 73.29
  Q 94.41 74.82 96.25 74.54
  Q 98.10 74.26 99.64 74.34
  Q 103.14 74.54 108.06 76.87
  Q 111.18 78.34 113.01 82.12
  C 116.52 89.35 114.74 94.95 112.36 101.97
  Q 111.86 103.41 112.31 105.19
  C 112.43 105.64 112.35 106.04 112.12 106.44
  Q 111.55 107.45 111.26 106.33
  Q 110.69 104.18 108.76 105.11
  Q 101.23 108.74 92.66 108.41
  Q 92.39 105.37 92.24 102.01
  Q 92.18 100.50 91.71 99.27
  Q 91.03 97.45 92.45 95.94
  A 0.86 0.86 0.0 0 0 92.26 94.60
  Q 91.26 94.01 91.73 92.93
  Q 91.97 92.39 91.79 91.83
  Q 91.22 90.08 91.71 88.12
  Q 92.12 86.54 92.28 84.78
  Q 92.81 79.00 93.90 73.29
  Z"
/>
<path fill="#5a885b" d="
  M 233.49 116.63
  Q 233.24 117.16 232.68 117.17
  Q 231.98 117.18 231.52 117.70
  Q 228.89 120.71 225.26 123.54
  C 223.13 125.19 222.19 126.82 219.12 124.85
  C 215.82 122.74 216.97 118.93 219.65 116.99
  Q 225.32 112.89 229.63 107.84
  Q 231.75 105.35 234.65 105.42
  C 237.82 105.50 239.04 108.40 237.90 111.09
  Q 236.73 113.85 234.20 115.75
  Q 233.73 116.10 233.49 116.63
  Z"
/>
<path fill="#699f67" d="
  M 163.91 115.64
  Q 161.08 114.75 159.35 111.81
  C 157.82 109.21 159.02 106.17 162.18 105.71
  Q 164.78 105.32 166.27 108.04
  Q 166.56 108.57 167.08 108.87
  Q 171.18 111.26 174.17 114.96
  Q 174.87 115.83 175.75 116.39
  Q 176.78 117.05 177.80 117.68
  C 179.60 118.81 180.85 121.34 179.53 123.35
  C 177.66 126.19 174.05 126.57 172.38 123.29
  A 2.40 2.32 -85.4 0 0 171.73 122.50
  Q 167.56 119.25 164.06 115.73
  Q 163.99 115.67 163.91 115.64
  Z"
/>
<path fill="#699f67" d="
  M 75.31 133.79
  Q 72.46 131.25 71.25 131.05
  Q 67.51 130.43 64.03 129.37
  Q 65.62 124.99 67.14 124.13
  C 70.56 122.20 72.84 119.40 77.27 120.41
  A 0.97 0.97 0.0 0 1 78.00 121.56
  L 75.31 133.79
  Z"
/>
<path fill="#699f67" d="
  M 331.82 130.08
  L 324.07 132.37
  Q 323.59 132.51 323.28 132.90
  Q 321.35 135.33 318.55 135.92
  Q 318.28 133.49 318.72 131.42
  Q 318.83 130.91 318.56 130.46
  Q 318.09 129.68 318.34 128.83
  Q 318.51 128.24 318.14 127.77
  Q 317.56 127.03 318.06 126.19
  A 0.96 0.93 61.1 0 0 318.19 125.71
  L 318.18 122.12
  A 1.46 1.45 3.5 0 1 319.82 120.67
  Q 329.54 121.89 331.82 130.08
  Z"
/>
<path fill="#5a885b" d="
  M 64.03 129.37
  Q 67.51 130.43 71.25 131.05
  Q 72.46 131.25 75.31 133.79
  Q 82.10 138.74 84.98 139.86
  Q 92.03 142.61 99.01 145.53
  Q 101.94 146.75 104.70 147.48
  Q 107.51 148.23 110.54 148.99
  Q 115.08 153.78 122.68 158.81
  Q 126.99 161.67 131.07 162.70
  Q 133.15 163.23 135.45 162.90
  Q 139.47 162.33 142.60 165.23
  A 1.75 1.74 -64.0 0 1 143.14 166.81
  Q 142.12 172.68 140.50 178.99
  Q 140.07 180.68 141.20 184.97
  L 141.56 188.38
  Q 142.78 196.10 145.73 203.02
  C 147.54 207.26 147.48 211.49 145.01 215.49
  Q 140.87 222.16 134.53 225.75
  A 0.48 0.48 0.0 0 0 134.35 226.39
  L 134.48 226.62
  A 0.76 0.75 64.0 0 0 135.43 226.95
  Q 140.12 224.98 144.74 223.69
  Q 147.43 222.94 152.34 219.27
  A 1.56 1.54 -12.9 0 0 152.92 218.36
  C 154.39 211.89 155.30 204.98 154.26 198.07
  Q 153.00 189.75 153.95 179.69
  Q 154.68 172.00 158.13 164.60
  Q 159.14 162.44 161.52 162.30
  Q 162.09 162.27 162.48 162.59
  Q 164.84 164.53 163.59 166.98
  Q 159.02 175.97 159.05 186.83
  C 159.06 188.43 159.72 189.74 160.07 191.27
  Q 160.20 191.81 160.04 192.35
  C 159.10 195.50 160.48 197.81 160.47 200.86
  C 160.46 205.70 160.42 210.50 159.84 215.32
  Q 159.38 219.13 158.98 223.77
  Q 158.55 228.86 159.60 232.19
  Q 161.60 238.53 166.43 242.87
  A 1.33 1.32 43.4 0 0 168.26 242.82
  Q 168.79 242.28 168.85 241.51
  Q 169.46 233.65 169.98 225.18
  Q 170.19 221.58 169.62 218.11
  Q 168.41 210.87 169.31 202.35
  C 169.60 199.64 169.02 196.77 169.59 194.14
  C 170.51 189.98 170.67 185.87 171.87 181.69
  Q 173.95 174.41 176.55 167.54
  Q 178.06 166.80 177.93 164.87
  Q 177.89 164.37 178.21 164.00
  Q 179.53 162.44 181.60 161.82
  Q 182.97 161.40 183.60 162.69
  Q 184.72 164.96 183.44 167.52
  Q 181.89 169.69 181.45 171.26
  C 180.11 175.95 178.28 180.25 177.37 185.08
  Q 176.53 189.51 175.65 193.67
  Q 174.75 197.90 175.10 202.44
  Q 175.45 207.06 175.41 211.29
  C 175.33 219.59 175.50 227.70 174.77 236.14
  Q 174.08 244.07 174.70 248.49
  Q 176.48 261.19 188.28 267.16
  A 0.42 0.42 0.0 0 0 188.88 266.83
  C 189.28 262.64 190.22 258.67 189.69 254.36
  Q 188.17 242.01 186.49 229.96
  Q 185.46 222.57 185.93 209.85
  Q 186.11 204.95 187.05 200.84
  Q 188.18 195.87 189.73 191.21
  Q 190.81 187.95 191.69 184.80
  C 192.41 182.20 193.88 179.75 194.33 177.15
  Q 195.45 170.69 196.00 165.54
  Q 196.18 163.78 197.95 163.88
  Q 203.26 164.19 202.35 169.10
  Q 201.61 173.10 200.51 176.78
  Q 198.29 184.22 195.77 191.36
  Q 192.90 199.50 192.08 206.03
  Q 191.09 213.85 191.49 223.24
  C 191.53 224.27 192.01 225.24 192.12 226.25
  Q 193.54 238.46 194.98 249.76
  Q 196.41 260.92 194.80 272.02
  L 193.50 277.28
  Q 192.62 279.01 192.31 282.20
  A 0.42 0.42 0.0 0 0 192.93 282.60
  C 196.14 280.81 199.84 280.19 202.67 277.80
  Q 205.93 275.04 207.20 271.84
  Q 210.91 262.49 210.41 253.58
  Q 210.11 248.08 209.55 242.69
  C 208.65 234.12 209.44 225.45 208.62 217.07
  C 208.07 211.43 208.56 205.74 208.13 200.10
  C 207.85 196.61 209.94 193.20 210.58 189.93
  Q 211.61 184.69 211.63 184.59
  Q 213.18 178.11 214.42 171.54
  L 214.60 166.31
  Q 214.62 165.78 215.04 165.46
  Q 216.39 164.44 218.14 164.92
  Q 219.50 165.29 220.01 167.32
  Q 220.51 169.32 220.39 171.49
  C 219.45 178.51 217.40 185.01 215.68 191.87
  C 214.71 195.74 214.89 199.57 214.34 203.47
  Q 213.88 206.70 214.27 210.98
  Q 214.62 214.89 214.68 219.21
  Q 214.87 232.29 216.12 245.39
  Q 216.82 252.67 215.79 260.21
  A 0.70 0.69 88.6 0 0 216.60 260.99
  Q 221.21 260.09 224.24 257.50
  C 228.48 253.88 233.75 246.43 234.41 240.15
  Q 234.75 236.95 235.43 234.06
  C 236.04 231.44 235.96 227.76 235.35 225.11
  Q 233.53 217.05 231.96 208.75
  C 230.82 202.64 231.55 196.86 233.11 189.78
  C 234.91 181.64 236.57 173.33 232.55 165.82
  C 231.97 164.74 232.12 163.67 232.07 162.50
  Q 231.98 160.17 234.32 159.98
  Q 236.77 159.78 239.22 159.57
  A 1.56 1.55 -3.4 0 1 240.90 161.06
  C 240.94 162.09 240.95 163.09 240.58 164.07
  Q 239.46 166.98 240.34 170.02
  C 241.42 173.79 241.61 177.91 240.58 181.74
  C 240.00 183.91 240.08 186.11 239.49 188.35
  C 237.96 194.16 236.76 200.19 238.02 206.28
  Q 239.29 212.45 240.20 219.11
  C 240.47 221.12 241.64 222.89 243.30 224.04
  C 248.44 227.59 252.30 229.33 258.54 229.33
  Q 263.00 229.34 266.67 227.15
  A 0.70 0.70 0.0 0 0 266.62 225.92
  Q 263.32 224.30 260.01 222.86
  C 255.95 221.10 253.19 218.03 252.24 213.70
  Q 250.47 205.71 251.99 196.92
  C 252.63 193.26 253.68 189.90 253.69 186.08
  Q 253.70 179.20 253.52 171.37
  Q 253.49 170.00 252.87 168.86
  Q 252.63 168.43 252.14 168.38
  C 250.47 168.22 249.45 166.20 248.67 164.90
  Q 248.06 163.90 248.00 162.68
  Q 247.82 158.84 252.32 158.18
  Q 257.96 157.36 260.98 160.52
  A 4.03 4.03 0.0 0 0 264.46 161.73
  Q 267.30 161.31 270.14 160.47
  C 274.02 159.32 277.85 155.95 281.36 153.48
  Q 282.69 152.55 283.88 151.33
  Q 285.18 150.00 286.27 148.98
  Q 288.06 149.06 290.07 148.48
  Q 290.63 148.32 290.88 147.79
  Q 291.13 147.26 291.65 147.54
  A 0.84 0.80 51.2 0 0 292.25 147.62
  Q 296.66 146.55 300.15 144.32
  Q 300.59 144.04 301.04 144.30
  Q 301.26 144.43 301.50 144.38
  Q 301.77 144.33 301.96 144.15
  C 303.26 142.98 304.86 142.82 306.37 142.11
  Q 308.73 141.00 311.20 140.02
  Q 312.90 139.34 314.91 137.96
  Q 316.66 136.75 318.55 135.92
  Q 321.35 135.33 323.28 132.90
  Q 323.59 132.51 324.07 132.37
  L 331.82 130.08
  Q 344.27 136.73 352.82 146.69
  Q 360.18 155.24 365.82 166.79
  Q 374.84 185.25 378.00 206.16
  Q 378.06 206.57 378.31 206.92
  Q 378.45 207.13 378.57 207.36
  Q 378.72 207.64 378.72 207.95
  Q 378.64 210.58 379.31 212.97
  C 379.74 214.51 379.19 215.83 379.43 217.37
  Q 379.52 217.96 379.17 218.44
  Q 378.52 219.32 379.16 220.13
  Q 379.46 220.51 379.26 220.96
  C 379.00 221.55 378.80 222.08 378.82 222.75
  Q 378.93 226.06 377.21 228.68
  A 0.54 0.54 0.0 0 1 376.25 228.55
  L 374.57 223.27
  Q 372.20 209.99 366.51 198.70
  Q 360.72 187.18 353.85 176.86
  C 351.88 173.90 349.43 171.54 347.39 168.67
  C 345.33 165.77 342.59 163.98 340.21 161.47
  C 338.41 159.57 336.05 158.35 333.52 157.41
  Q 332.60 157.07 332.20 157.89
  A 2.56 2.54 -44.9 0 0 332.19 160.05
  Q 334.79 165.62 335.77 171.11
  Q 337.95 183.27 337.73 197.25
  Q 337.47 213.08 337.11 219.80
  Q 336.98 222.18 335.96 231.45
  L 335.58 233.88
  Q 335.50 234.40 335.16 234.80
  Q 334.36 235.77 333.91 236.94
  Q 333.70 237.49 333.24 237.88
  Q 332.19 238.76 331.67 240.03
  Q 330.55 242.79 330.04 239.86
  L 328.62 231.66
  Q 328.65 223.24 328.05 219.50
  C 327.54 216.30 327.57 213.07 327.19 210.52
  C 326.36 205.06 326.06 199.55 325.08 194.12
  Q 324.47 190.73 323.76 187.47
  Q 322.45 181.47 318.54 173.76
  Q 315.47 167.71 309.88 162.77
  C 308.71 161.73 306.85 161.73 305.48 162.18
  Q 290.51 167.12 275.14 170.79
  Q 274.18 171.67 272.27 169.38
  Q 270.62 166.61 267.50 167.19
  Q 264.12 167.81 261.16 167.91
  A 1.71 1.71 0.0 0 0 259.51 169.63
  L 259.55 179.21
  C 259.14 183.88 259.55 188.59 258.51 193.04
  C 257.04 199.31 256.74 204.75 258.15 211.39
  C 259.22 216.45 264.06 219.51 268.96 219.70
  C 271.33 219.79 275.86 220.48 275.71 223.67
  C 275.48 228.50 272.11 230.96 268.06 233.02
  C 263.02 235.57 257.52 235.10 252.01 234.96
  Q 247.54 234.84 242.19 230.86
  Q 241.73 233.59 241.47 235.94
  Q 241.16 238.77 240.53 241.18
  Q 239.34 245.74 238.16 250.50
  C 237.75 252.14 236.88 253.46 236.68 255.17
  Q 236.62 255.72 236.13 255.99
  L 233.45 257.44
  Q 233.03 257.67 232.91 258.13
  Q 232.14 260.98 229.59 262.45
  Q 224.13 265.60 219.33 266.30
  C 217.75 266.53 214.84 267.78 214.33 269.36
  Q 213.13 273.07 211.72 276.68
  C 210.09 278.81 208.59 281.06 206.39 282.58
  Q 200.14 286.88 192.93 288.42
  C 190.35 288.97 186.70 288.42 186.49 285.22
  Q 186.21 280.95 187.17 276.92
  C 187.54 275.38 186.45 273.96 185.25 273.16
  Q 177.74 268.10 172.30 259.82
  Q 171.29 258.29 170.70 256.59
  C 170.09 254.82 169.42 251.93 167.59 251.03
  Q 166.24 250.36 165.25 249.50
  Q 164.22 248.60 163.05 247.91
  Q 160.00 246.12 158.53 243.54
  Q 156.89 240.65 154.89 237.95
  Q 153.32 235.81 152.98 233.41
  Q 152.66 231.15 152.95 228.04
  A 0.65 0.64 -87.6 0 0 152.30 227.33
  Q 149.95 227.37 147.99 228.57
  Q 137.78 234.85 126.49 231.66
  C 122.58 230.56 122.33 226.84 125.64 224.78
  Q 133.19 220.05 138.25 214.54
  Q 141.45 211.05 140.53 206.97
  Q 139.68 203.19 138.21 200.15
  Q 137.18 198.01 136.62 195.79
  Q 136.06 193.56 135.34 191.46
  Q 133.31 185.49 134.55 179.42
  Q 135.01 177.20 135.28 174.98
  Q 135.59 172.51 135.86 169.79
  Q 135.91 169.31 135.51 169.04
  Q 134.97 168.67 134.25 168.87
  A 0.35 0.32 -47.0 0 1 134.11 168.88
  L 127.08 168.21
  Q 126.49 168.15 126.01 168.50
  L 122.38 171.17
  L 90.29 161.54
  A 2.18 2.18 0.0 0 0 88.65 161.69
  Q 86.69 162.71 85.30 164.17
  Q 77.70 172.12 74.54 182.58
  Q 72.11 190.66 70.72 203.00
  Q 68.82 219.84 68.21 231.86
  L 67.60 233.82
  Q 67.44 234.33 67.60 234.84
  Q 68.48 237.54 66.39 239.94
  A 0.85 0.84 -40.2 0 1 65.03 239.83
  L 61.38 233.87
  Q 61.15 233.49 61.08 233.05
  L 60.76 231.04
  Q 60.67 227.88 59.76 222.26
  C 58.99 217.59 59.86 212.06 59.61 207.56
  Q 58.87 193.71 59.52 183.26
  Q 60.29 171.00 64.88 159.04
  A 1.08 1.07 9.3 0 0 63.83 157.58
  C 61.62 157.68 58.26 160.00 56.41 161.24
  Q 54.09 162.80 51.97 165.42
  Q 38.03 182.61 30.08 199.27
  Q 25.22 209.46 22.28 222.80
  L 20.17 228.35
  Q 19.91 229.03 19.49 228.43
  Q 18.33 226.77 18.39 224.72
  Q 18.44 222.93 18.09 221.29
  Q 17.71 219.52 17.45 217.73
  Q 17.37 217.22 17.62 216.79
  Q 18.12 215.93 17.86 214.96
  Q 17.14 212.21 17.76 209.69
  Q 18.20 207.93 17.89 206.26
  Q 17.80 205.75 17.94 205.25
  C 18.35 203.88 18.11 202.57 18.50 201.24
  C 19.88 196.47 20.58 191.53 22.12 186.79
  C 28.51 167.06 40.34 146.96 57.39 135.14
  Q 59.66 133.57 61.42 131.77
  A 1.48 1.48 0.0 0 1 62.14 131.36
  L 62.76 131.21
  Q 63.26 131.10 63.39 130.61
  Q 63.67 129.55 64.03 129.37
  Z
  M 47.29 160.07
  Q 50.39 158.45 52.89 156.13
  Q 54.44 154.68 57.16 153.71
  Q 62.22 151.91 67.27 149.97
  Q 71.85 148.20 73.05 152.63
  Q 73.23 153.29 72.72 153.76
  Q 70.91 155.43 70.54 157.81
  C 70.08 160.75 68.72 166.54 72.67 167.50
  A 1.37 1.37 0.0 0 0 73.64 167.37
  C 75.53 166.33 76.50 164.30 78.20 162.98
  C 81.15 160.68 82.36 157.33 84.77 154.60
  C 86.79 152.31 85.64 148.74 83.87 146.68
  C 80.15 142.38 75.87 140.98 70.82 139.05
  C 68.34 138.10 66.03 135.38 63.21 136.59
  Q 57.50 139.04 54.38 142.92
  Q 52.75 144.94 50.55 146.67
  Q 47.12 149.36 44.83 152.86
  Q 40.30 159.80 35.72 166.44
  C 32.90 170.52 31.70 174.26 31.68 179.05
  A 0.51 0.51 0.0 0 0 32.13 179.56
  Q 32.75 179.62 33.16 179.15
  C 35.50 176.50 36.97 173.21 39.27 170.52
  Q 42.95 166.20 46.04 161.23
  A 3.22 3.15 1.5 0 1 47.29 160.07
  Z
  M 344.24 146.77
  C 341.53 144.03 338.30 143.95 336.23 140.07
  C 334.02 135.93 329.05 135.57 325.86 138.82
  C 324.47 140.23 321.77 141.70 321.26 143.61
  Q 320.65 145.83 322.83 147.08
  Q 328.00 150.04 335.06 152.02
  C 338.05 152.87 340.68 154.71 343.52 156.12
  Q 347.96 158.32 352.05 161.80
  A 1.10 1.10 0.0 0 0 353.84 161.20
  Q 354.30 159.14 353.12 157.42
  Q 349.28 151.86 344.24 146.77
  Z
  M 311.47 157.17
  Q 314.78 158.68 317.94 160.61
  A 1.93 1.93 0.0 0 0 320.86 159.19
  C 321.38 154.81 318.18 151.00 315.53 147.72
  Q 313.44 145.13 310.79 145.62
  C 302.46 147.16 306.55 154.92 311.47 157.17
  Z"
/>
<path fill="#93c190" d="
  M 276.49 147.83
  Q 272.76 155.86 264.02 154.72
  C 262.81 154.56 261.72 153.89 260.55 153.87
  Q 260.03 153.86 259.57 153.61
  L 252.77 150.05
  Q 252.39 149.85 252.21 149.45
  C 251.74 148.37 251.93 147.35 251.61 146.19
  Q 251.08 144.23 250.48 142.37
  Q 249.86 140.41 250.75 138.59
  Q 253.06 133.90 257.70 132.06
  C 260.01 131.14 262.32 132.09 264.59 130.93
  Q 267.86 129.26 271.08 129.65
  Q 272.60 129.83 273.61 130.93
  Q 274.51 131.91 275.49 132.89
  A 0.75 0.74 77.4 0 0 275.80 133.09
  Q 276.19 133.22 276.53 133.07
  A 0.09 0.09 0.0 0 1 276.65 133.16
  Q 276.47 134.83 277.37 136.06
  Q 277.64 136.43 277.69 136.89
  Q 278.43 142.52 276.88 147.97
  A 0.03 0.03 0.0 0 1 276.82 147.97
  Q 276.77 147.71 276.63 147.73
  Q 276.54 147.74 276.49 147.83
  Z"
/>
<path fill="#000000" d="
  M 167.56 139.45
  Q 166.06 141.48 163.94 143.23
  A 1.11 1.08 -54.5 0 1 162.89 143.42
  C 161.20 142.83 159.61 143.39 158.12 142.29
  Q 154.15 139.34 154.87 135.45
  C 155.25 133.45 155.77 131.65 158.06 131.14
  Q 160.09 130.68 161.99 129.94
  Q 162.45 129.76 162.91 129.93
  Q 164.86 130.60 166.45 131.97
  Q 170.51 135.45 167.56 139.45
  Z"
/>
<circle fill="#000000" cx="235.34" cy="136.50" r="6.76"/>
<path fill="#93c190" d="
  M 133.89 136.60
  Q 134.68 137.18 134.56 138.16
  C 134.25 140.64 134.87 144.01 133.68 146.23
  Q 133.42 146.70 132.91 146.86
  C 131.65 147.24 130.63 148.12 129.29 148.10
  Q 123.42 148.00 121.40 142.36
  Q 120.77 140.62 121.43 138.98
  Q 121.71 138.28 122.33 137.79
  Q 122.88 137.35 122.90 136.64
  A 0.62 0.62 0.0 0 1 123.27 136.09
  Q 124.74 135.45 126.10 135.66
  A 1.96 1.93 38.4 0 0 127.05 135.56
  Q 130.61 134.20 133.89 136.60
  Z"
/>
<path fill="#699f67" d="
  M 47.29 160.07
  A 3.22 3.15 1.5 0 0 46.04 161.23
  Q 42.95 166.20 39.27 170.52
  C 36.97 173.21 35.50 176.50 33.16 179.15
  Q 32.75 179.62 32.13 179.56
  A 0.51 0.51 0.0 0 1 31.68 179.05
  C 31.70 174.26 32.90 170.52 35.72 166.44
  Q 40.30 159.80 44.83 152.86
  Q 47.12 149.36 50.55 146.67
  Q 52.75 144.94 54.38 142.92
  Q 57.50 139.04 63.21 136.59
  C 66.03 135.38 68.34 138.10 70.82 139.05
  C 75.87 140.98 80.15 142.38 83.87 146.68
  C 85.64 148.74 86.79 152.31 84.77 154.60
  C 82.36 157.33 81.15 160.68 78.20 162.98
  C 76.50 164.30 75.53 166.33 73.64 167.37
  A 1.37 1.37 0.0 0 1 72.67 167.50
  C 68.72 166.54 70.08 160.75 70.54 157.81
  Q 70.91 155.43 72.72 153.76
  Q 73.23 153.29 73.05 152.63
  Q 71.85 148.20 67.27 149.97
  Q 62.22 151.91 57.16 153.71
  Q 54.44 154.68 52.89 156.13
  Q 50.39 158.45 47.29 160.07
  Z"
/>
<path fill="#699f67" d="
  M 344.24 146.77
  Q 349.28 151.86 353.12 157.42
  Q 354.30 159.14 353.84 161.20
  A 1.10 1.10 0.0 0 1 352.05 161.80
  Q 347.96 158.32 343.52 156.12
  C 340.68 154.71 338.05 152.87 335.06 152.02
  Q 328.00 150.04 322.83 147.08
  Q 320.65 145.83 321.26 143.61
  C 321.77 141.70 324.47 140.23 325.86 138.82
  C 329.05 135.57 334.02 135.93 336.23 140.07
  C 338.30 143.95 341.53 144.03 344.24 146.77
  Z"
/>
<path fill="#699f67" d="
  M 311.47 157.17
  C 306.55 154.92 302.46 147.16 310.79 145.62
  Q 313.44 145.13 315.53 147.72
  C 318.18 151.00 321.38 154.81 320.86 159.19
  A 1.93 1.93 0.0 0 1 317.94 160.61
  Q 314.78 158.68 311.47 157.17
  Z"
/>
<path fill="#699f67" d="
  M 183.44 167.52
  Q 184.72 164.96 183.60 162.69
  Q 182.97 161.40 181.60 161.82
  Q 179.53 162.44 178.21 164.00
  Q 177.89 164.37 177.93 164.87
  Q 178.06 166.80 176.55 167.54
  Q 177.66 166.50 176.90 164.99
  Q 176.17 163.53 175.63 161.95
  Q 175.47 161.47 175.66 161.00
  Q 176.77 158.30 179.20 157.52
  C 182.24 156.56 188.87 155.60 189.18 160.73
  C 189.35 163.67 185.83 166.16 183.44 167.52
  Z"
/>
<path fill="#b2c993" d="
  M 60.76 231.04
  Q 54.91 227.08 52.03 226.16
  Q 49.96 225.50 48.04 224.66
  Q 45.83 223.69 44.10 223.31
  Q 38.91 222.19 33.93 221.87
  C 30.29 221.63 26.29 222.84 22.28 222.80
  Q 25.22 209.46 30.08 199.27
  Q 38.03 182.61 51.97 165.42
  Q 54.09 162.80 56.41 161.24
  C 58.26 160.00 61.62 157.68 63.83 157.58
  A 1.08 1.07 9.3 0 1 64.88 159.04
  Q 60.29 171.00 59.52 183.26
  Q 58.87 193.71 59.61 207.56
  C 59.86 212.06 58.99 217.59 59.76 222.26
  Q 60.67 227.88 60.76 231.04
  Z"
/>
<path fill="#b2c993" d="
  M 374.57 223.27
  Q 366.12 221.07 357.49 222.38
  Q 345.73 224.16 335.96 231.45
  Q 336.98 222.18 337.11 219.80
  Q 337.47 213.08 337.73 197.25
  Q 337.95 183.27 335.77 171.11
  Q 334.79 165.62 332.19 160.05
  A 2.56 2.54 -44.9 0 1 332.20 157.89
  Q 332.60 157.07 333.52 157.41
  C 336.05 158.35 338.41 159.57 340.21 161.47
  C 342.59 163.98 345.33 165.77 347.39 168.67
  C 349.43 171.54 351.88 173.90 353.85 176.86
  Q 360.72 187.18 366.51 198.70
  Q 372.20 209.99 374.57 223.27
  Z"
/>
<path fill="#699f67" d="
  M 220.39 171.49
  Q 220.51 169.32 220.01 167.32
  Q 219.50 165.29 218.14 164.92
  Q 216.39 164.44 215.04 165.46
  Q 214.62 165.78 214.60 166.31
  L 214.42 171.54
  C 214.37 170.02 214.52 168.77 213.97 167.31
  Q 211.71 161.33 217.79 159.09
  Q 219.96 158.30 223.20 158.86
  Q 223.75 158.96 224.15 159.35
  Q 226.52 161.74 225.40 164.86
  A 1.70 1.69 -1.8 0 1 224.46 165.85
  L 221.71 167.00
  Q 221.20 167.21 220.97 167.70
  Q 220.14 169.43 220.39 171.49
  Z"
/>
<path fill="#b2c993" d="
  M 122.38 171.17
  Q 123.05 171.72 122.22 173.00
  Q 120.13 176.21 119.50 177.53
  C 118.14 179.43 116.76 181.27 115.76 183.36
  Q 113.84 187.35 111.91 191.34
  C 110.77 193.69 110.11 196.09 109.30 198.62
  Q 107.66 201.46 106.73 205.01
  Q 104.39 213.94 102.20 222.98
  Q 96.34 222.79 90.46 223.18
  Q 86.64 223.43 83.36 224.68
  Q 79.73 226.07 76.09 227.20
  C 74.30 227.76 73.43 229.14 71.67 229.56
  Q 71.17 229.68 70.76 229.98
  L 68.21 231.86
  Q 68.82 219.84 70.72 203.00
  Q 72.11 190.66 74.54 182.58
  Q 77.70 172.12 85.30 164.17
  Q 86.69 162.71 88.65 161.69
  A 2.18 2.18 0.0 0 1 90.29 161.54
  L 122.38 171.17
  Z"
/>
<path fill="#b2c993" d="
  M 328.62 231.66
  L 317.26 225.73
  Q 316.80 225.49 316.29 225.55
  C 315.11 225.69 314.55 224.89 313.50 224.62
  Q 310.73 223.91 308.09 223.43
  C 303.64 222.62 299.02 222.92 294.34 222.92
  L 291.27 208.30
  Q 286.74 193.54 279.64 179.98
  Q 278.02 177.33 275.69 174.25
  Q 274.81 173.10 275.14 170.79
  Q 290.51 167.12 305.48 162.18
  C 306.85 161.73 308.71 161.73 309.88 162.77
  Q 315.47 167.71 318.54 173.76
  Q 322.45 181.47 323.76 187.47
  Q 324.47 190.73 325.08 194.12
  C 326.06 199.55 326.36 205.06 327.19 210.52
  C 327.57 213.07 327.54 216.30 328.05 219.50
  Q 328.65 223.24 328.62 231.66
  Z"
/>
<path fill="#699f67" d="
  M 272.27 169.38
  Q 269.43 168.99 266.91 170.76
  C 264.90 172.18 263.56 172.75 261.58 173.57
  A 2.80 2.78 81.6 0 0 259.87 175.89
  L 259.55 179.21
  L 259.51 169.63
  A 1.71 1.71 0.0 0 1 261.16 167.91
  Q 264.12 167.81 267.50 167.19
  Q 270.62 166.61 272.27 169.38
  Z"
/>
<path fill="#76b271" d="
  M 211.72 276.68
  Q 215.70 275.75 217.95 274.17
  Q 222.47 271.02 229.23 264.92
  Q 229.58 264.61 230.05 264.52
  C 232.03 264.16 233.98 264.91 235.77 263.87
  Q 241.88 260.33 242.58 253.61
  C 242.79 251.65 241.61 249.72 241.18 247.86
  Q 240.83 246.37 241.59 243.60
  Q 243.36 237.22 242.19 230.86
  Q 247.54 234.84 252.01 234.96
  C 257.52 235.10 263.02 235.57 268.06 233.02
  C 272.11 230.96 275.48 228.50 275.71 223.67
  C 275.86 220.48 271.33 219.79 268.96 219.70
  C 264.06 219.51 259.22 216.45 258.15 211.39
  C 256.74 204.75 257.04 199.31 258.51 193.04
  C 259.55 188.59 259.14 183.88 259.55 179.21
  L 259.87 175.89
  A 2.80 2.78 81.6 0 1 261.58 173.57
  C 263.56 172.75 264.90 172.18 266.91 170.76
  Q 269.43 168.99 272.27 169.38
  Q 274.18 171.67 275.14 170.79
  Q 274.81 173.10 275.69 174.25
  Q 278.02 177.33 279.64 179.98
  Q 277.45 180.83 275.20 181.63
  Q 272.49 182.60 271.42 184.04
  C 268.26 188.34 269.31 193.30 271.21 197.84
  C 273.15 202.47 278.50 205.58 282.98 207.27
  Q 284.84 207.97 291.27 208.30
  L 294.34 222.92
  L 295.57 226.92
  Q 295.72 227.39 295.62 227.87
  Q 295.12 230.55 295.76 233.25
  Q 289.52 232.77 286.40 237.68
  Q 285.62 238.91 285.05 244.30
  Q 284.81 246.59 285.75 249.11
  Q 286.77 251.86 287.74 253.76
  Q 290.12 258.43 296.99 256.74
  L 296.89 261.66
  A 1.70 1.65 -29.4 0 1 296.64 262.50
  Q 296.04 263.50 296.64 264.46
  A 1.77 1.76 -52.0 0 1 296.82 265.97
  Q 296.38 267.33 296.98 268.61
  Q 297.18 269.05 297.07 269.53
  C 296.46 272.09 296.92 274.57 296.70 277.16
  Q 295.83 287.47 294.63 297.97
  C 294.30 300.87 295.83 304.89 295.72 308.33
  C 295.65 310.53 296.31 312.43 295.85 314.70
  Q 295.20 317.87 294.23 320.84
  A 1.41 1.40 77.5 0 1 293.87 321.41
  Q 293.11 322.12 293.45 323.16
  Q 293.63 323.73 293.24 324.18
  C 291.38 326.33 289.74 327.50 288.06 329.21
  C 286.73 330.57 285.33 330.72 283.57 330.69
  Q 282.99 330.68 282.90 330.11
  L 282.60 328.23
  Q 284.93 321.02 284.65 317.74
  Q 284.19 312.15 280.00 308.47
  A 2.36 2.34 -34.4 0 0 277.63 308.04
  Q 274.34 309.28 273.87 311.73
  Q 271.95 314.72 269.15 315.79
  Q 268.64 315.99 268.20 315.66
  L 266.32 314.23
  Q 265.84 313.88 266.00 313.31
  L 266.15 312.78
  Q 266.28 312.32 266.11 311.87
  C 265.43 310.06 266.59 308.73 266.70 306.92
  Q 266.92 303.47 267.95 300.55
  Q 269.14 297.15 268.85 294.17
  Q 268.64 292.01 268.62 290.00
  C 268.60 288.22 267.83 286.62 267.46 284.89
  Q 263.30 265.84 255.66 247.19
  C 254.71 244.89 254.30 242.47 253.07 240.30
  Q 252.50 239.30 252.51 240.45
  L 252.69 280.40
  Q 247.89 275.55 244.50 274.22
  C 241.10 272.88 237.85 274.66 234.60 275.64
  C 231.15 276.67 228.80 279.01 226.71 281.75
  C 223.52 285.94 225.16 292.76 227.31 297.27
  Q 227.99 298.70 229.48 299.57
  Q 233.83 302.12 236.62 302.78
  Q 242.13 304.06 248.99 302.92
  Q 250.42 302.68 253.21 300.31
  L 253.75 306.88
  A 1.49 1.48 -29.3 0 1 253.47 307.86
  Q 252.60 309.08 253.35 310.24
  Q 253.65 310.70 253.65 311.25
  L 253.61 329.06
  Q 248.20 330.15 245.04 331.57
  C 241.59 333.13 239.15 336.89 238.86 340.73
  Q 238.48 345.74 239.50 349.61
  A 4.27 4.22 14.0 0 0 240.78 351.71
  Q 244.03 354.65 247.95 356.44
  C 249.37 357.08 250.50 358.47 252.00 358.73
  Q 252.53 358.81 252.61 359.34
  L 252.93 361.31
  L 252.54 375.58
  Q 252.52 376.16 252.88 376.61
  Q 254.21 378.29 256.02 379.70
  Q 260.20 382.97 262.47 386.73
  A 1.70 1.70 0.0 0 1 261.02 389.31
  Q 258.10 389.33 255.61 387.92
  A 0.52 0.52 0.0 0 0 254.84 388.43
  L 255.19 391.55
  Q 255.26 392.21 254.62 392.38
  C 253.49 392.66 252.60 392.80 251.55 392.15
  Q 249.23 390.73 246.10 390.16
  A 0.60 0.59 88.6 0 0 245.42 390.88
  Q 245.58 391.63 245.96 392.29
  A 0.81 0.81 0.0 0 1 245.40 393.51
  Q 243.54 393.82 241.53 393.65
  Q 232.95 392.90 225.98 390.71
  Q 223.91 390.06 221.98 388.72
  Q 221.49 388.38 221.23 387.84
  Q 219.35 383.92 218.41 379.08
  C 218.12 377.60 216.96 376.28 216.96 374.88
  Q 216.95 372.76 216.28 370.20
  Q 224.42 367.64 228.43 360.12
  C 229.92 357.31 228.48 355.06 227.66 352.42
  A 1.41 1.40 -7.9 0 1 229.04 350.60
  Q 230.04 350.62 231.15 351.04
  A 0.65 0.64 -2.5 0 0 231.96 350.16
  C 231.47 349.11 229.95 348.67 228.90 348.82
  Q 226.45 349.16 225.00 347.10
  C 223.38 344.79 220.01 344.08 217.59 344.64
  Q 213.45 345.59 211.92 345.67
  L 207.30 323.46
  Q 207.19 322.96 206.93 322.52
  C 205.88 320.76 206.55 319.40 206.45 317.57
  Q 206.41 316.95 205.96 316.54
  Q 204.80 315.46 205.03 314.00
  Q 205.11 313.46 204.72 313.08
  C 202.03 310.45 199.77 310.89 196.51 310.75
  A 1.65 1.64 -63.2 0 0 195.39 311.12
  L 192.24 313.73
  Q 191.70 314.17 191.58 314.85
  L 190.41 321.52
  Q 186.79 320.68 183.28 320.47
  Q 181.60 320.37 180.37 321.04
  C 177.27 322.74 174.50 325.89 171.94 328.57
  C 168.80 331.87 167.54 335.51 170.45 339.65
  Q 173.31 343.72 175.58 345.19
  Q 177.42 346.37 183.76 348.81
  C 183.07 352.41 182.89 355.98 182.08 359.35
  Q 179.38 370.59 177.43 382.35
  C 176.64 387.10 175.09 391.82 169.24 391.11
  Q 167.06 390.85 164.93 391.49
  C 163.94 391.79 163.01 391.34 162.24 391.49
  Q 157.64 392.43 153.20 393.17
  A 1.19 1.19 0.0 0 1 151.81 392.00
  L 151.80 388.81
  A 0.78 0.78 0.0 0 0 150.59 388.16
  Q 148.17 389.76 145.10 390.18
  Q 144.62 390.24 144.25 390.56
  Q 142.88 391.74 140.88 391.49
  Q 140.35 391.43 140.24 390.91
  Q 139.83 388.86 141.03 387.38
  Q 141.44 386.88 140.80 386.76
  Q 140.07 386.62 139.40 386.88
  Q 138.93 387.06 138.43 387.07
  L 132.93 387.22
  Q 132.31 387.24 132.53 386.67
  C 133.04 385.34 133.67 383.85 134.99 383.15
  Q 136.22 382.50 137.22 381.43
  C 138.37 380.20 139.90 379.73 141.52 379.44
  A 3.12 3.07 80.9 0 0 144.01 375.93
  Q 143.87 374.94 144.33 374.09
  A 2.17 2.10 58.5 0 0 144.58 372.97
  L 143.96 362.63
  L 144.68 360.57
  Q 144.86 360.04 145.39 359.87
  Q 149.80 358.42 150.96 355.66
  Q 152.28 352.50 152.69 349.11
  C 152.97 346.87 151.69 344.21 150.87 342.10
  C 149.56 338.74 146.52 338.08 143.63 336.98
  L 143.36 323.72
  Q 149.42 323.82 153.75 321.36
  C 157.44 319.26 163.11 313.96 163.82 309.09
  Q 165.52 297.38 158.58 287.60
  Q 157.90 286.64 156.73 286.27
  C 153.27 285.16 149.58 283.40 145.80 284.12
  Q 145.03 284.27 144.74 283.97
  Q 144.38 283.61 144.33 282.78
  Q 144.59 271.52 144.47 260.24
  C 144.42 254.91 144.81 249.79 144.59 244.30
  Q 144.54 242.95 144.91 241.62
  Q 145.10 240.93 144.42 240.71
  Q 143.93 240.55 143.61 240.96
  Q 141.43 243.74 140.03 247.22
  Q 137.91 252.53 136.02 257.46
  C 132.44 266.84 130.87 275.77 129.19 285.43
  Q 128.65 288.49 128.74 291.27
  Q 128.76 291.79 128.47 292.23
  Q 127.31 294.01 127.77 295.98
  Q 129.12 301.72 130.73 307.53
  Q 131.79 311.36 130.01 314.77
  A 2.17 2.17 0.0 0 1 127.13 315.71
  C 125.09 314.69 124.03 313.53 122.90 311.63
  Q 122.25 310.54 121.22 309.65
  Q 120.81 308.41 119.89 307.59
  Q 119.54 307.27 119.12 307.47
  Q 114.75 309.51 114.04 313.38
  Q 113.47 316.44 113.34 319.82
  Q 113.21 323.34 114.10 326.29
  Q 114.53 328.33 114.32 329.98
  A 1.13 1.13 0.0 0 1 112.79 330.89
  C 109.37 329.56 106.70 327.68 104.75 324.33
  Q 101.78 319.21 100.87 313.25
  Q 100.79 312.71 101.07 312.24
  Q 101.34 311.79 101.45 311.31
  A 0.93 0.93 0.0 0 0 101.14 310.40
  Q 100.41 309.78 100.83 308.93
  Q 101.15 308.30 101.29 307.60
  Q 103.02 299.08 102.37 295.01
  Q 101.48 289.47 100.68 284.40
  A 20.19 18.88 70.0 0 1 100.43 281.57
  L 100.06 261.16
  Q 108.19 262.29 110.97 255.58
  Q 112.56 251.76 112.90 247.53
  C 113.48 240.16 110.11 233.57 102.56 232.40
  Q 102.01 232.32 101.91 231.77
  L 101.49 229.45
  Q 101.81 228.66 101.84 227.52
  A 2.13 2.07 -31.4 0 1 102.08 226.59
  Q 102.91 224.97 102.20 222.98
  Q 104.39 213.94 106.73 205.01
  Q 107.66 201.46 109.30 198.62
  Q 111.50 203.71 117.37 202.84
  C 126.86 201.43 130.52 191.54 127.86 183.11
  C 127.22 181.08 125.83 179.87 123.65 179.24
  Q 121.54 178.62 119.50 177.53
  Q 120.13 176.21 122.22 173.00
  Q 123.05 171.72 122.38 171.17
  L 126.01 168.50
  Q 126.49 168.15 127.08 168.21
  L 134.11 168.88
  A 0.35 0.32 -47.0 0 0 134.25 168.87
  Q 134.97 168.67 135.51 169.04
  Q 135.91 169.31 135.86 169.79
  Q 135.59 172.51 135.28 174.98
  Q 135.01 177.20 134.55 179.42
  Q 133.31 185.49 135.34 191.46
  Q 136.06 193.56 136.62 195.79
  Q 137.18 198.01 138.21 200.15
  Q 139.68 203.19 140.53 206.97
  Q 141.45 211.05 138.25 214.54
  Q 133.19 220.05 125.64 224.78
  C 122.33 226.84 122.58 230.56 126.49 231.66
  Q 137.78 234.85 147.99 228.57
  Q 149.95 227.37 152.30 227.33
  A 0.65 0.64 -87.6 0 1 152.95 228.04
  Q 152.66 231.15 152.98 233.41
  Q 153.32 235.81 154.89 237.95
  Q 156.89 240.65 158.53 243.54
  Q 160.00 246.12 163.05 247.91
  Q 164.22 248.60 165.25 249.50
  Q 166.24 250.36 167.59 251.03
  C 169.42 251.93 170.09 254.82 170.70 256.59
  Q 171.29 258.29 172.30 259.82
  Q 177.74 268.10 185.25 273.16
  C 186.45 273.96 187.54 275.38 187.17 276.92
  Q 186.21 280.95 186.49 285.22
  C 186.70 288.42 190.35 288.97 192.93 288.42
  Q 200.14 286.88 206.39 282.58
  C 208.59 281.06 210.09 278.81 211.72 276.68
  Z
  M 122.5176 212.1241
  A 7.42 5.87 -45.1 0 0 113.1220 213.2365
  A 7.42 5.87 -45.1 0 0 112.0424 222.6359
  A 7.42 5.87 -45.1 0 0 121.4380 221.5235
  A 7.42 5.87 -45.1 0 0 122.5176 212.1241
  Z
  M 272.52 261.88
  A 2.41 2.40 -47.8 0 0 275.38 261.74
  C 279.73 258.16 277.89 254.58 275.72 250.39
  Q 275.43 249.82 274.83 249.61
  C 272.09 248.66 268.18 249.52 267.92 253.05
  Q 267.52 258.50 272.52 261.88
  Z
  M 155.97 269.48
  C 153.56 275.32 159.93 278.26 164.75 278.90
  C 168.47 279.39 171.10 276.66 170.82 273.15
  Q 170.25 265.85 163.16 263.25
  C 159.44 261.89 157.08 266.81 155.97 269.48
  Z
  M 190.3039 303.9015
  A 7.46 6.30 13.5 0 0 184.5207 296.0341
  A 7.46 6.30 13.5 0 0 175.7961 300.4185
  A 7.46 6.30 13.5 0 0 181.5793 308.2859
  A 7.46 6.30 13.5 0 0 190.3039 303.9015
  Z
  M 223.07 324.04
  Q 226.28 327.27 229.73 327.74
  C 237.15 328.78 238.83 321.54 234.27 316.93
  C 231.19 313.83 226.82 311.87 223.25 315.58
  C 221.82 317.06 222.42 319.18 222.11 321.04
  Q 221.82 322.78 223.07 324.04
  Z"
/>
<path fill="#699f67" d="
  M 119.50 177.53
  Q 121.54 178.62 123.65 179.24
  C 125.83 179.87 127.22 181.08 127.86 183.11
  C 130.52 191.54 126.86 201.43 117.37 202.84
  Q 111.50 203.71 109.30 198.62
  C 110.11 196.09 110.77 193.69 111.91 191.34
  Q 113.84 187.35 115.76 183.36
  C 116.76 181.27 118.14 179.43 119.50 177.53
  Z"
/>
<path fill="#93c190" d="
  M 251.78 188.43
  Q 250.33 193.16 245.69 194.78
  Q 244.92 195.05 244.42 194.43
  C 243.00 192.70 241.31 190.71 241.54 188.28
  C 241.99 183.60 242.63 179.57 248.21 178.52
  A 0.82 0.82 0.0 0 1 249.03 178.84
  C 250.91 181.38 252.71 185.43 251.78 188.43
  Z"
/>
<path fill="#699f67" d="
  M 279.64 179.98
  Q 286.74 193.54 291.27 208.30
  Q 284.84 207.97 282.98 207.27
  C 278.50 205.58 273.15 202.47 271.21 197.84
  C 269.31 193.30 268.26 188.34 271.42 184.04
  Q 272.49 182.60 275.20 181.63
  Q 277.45 180.83 279.64 179.98
  Z"
/>
<path fill="#93c190" d="
  M 141.56 188.38
  L 141.20 184.97
  Q 140.91 181.08 145.00 181.30
  Q 148.65 181.50 149.92 184.59
  C 150.84 186.85 151.90 191.43 150.62 193.58
  Q 149.73 195.06 147.51 194.87
  Q 142.82 194.45 141.56 188.38
  Z"
/>
<path fill="#93c190" d="
  M 187.50 192.11
  Q 187.02 194.34 185.06 196.12
  Q 183.75 197.31 182.12 196.94
  C 178.92 196.19 177.82 193.16 178.86 190.25
  C 180.02 187.00 180.72 182.39 185.62 183.57
  Q 186.23 183.72 186.50 184.30
  Q 188.34 188.28 187.50 192.11
  Z"
/>
<path fill="#93c190" d="
  M 219.00 191.74
  Q 220.08 186.68 225.61 185.39
  Q 226.12 185.28 226.52 185.61
  C 228.42 187.17 228.39 192.50 227.52 194.54
  C 226.06 198.00 227.24 201.07 223.07 203.16
  A 1.54 1.51 42.7 0 1 221.78 203.20
  C 215.75 200.70 218.02 196.30 219.00 191.74
  Z"
/>
<path fill="#93c190" d="
  M 161.55 191.66
  Q 162.12 190.18 163.12 189.00
  C 165.05 186.73 168.18 187.56 168.62 190.75
  Q 169.20 195.01 167.91 198.03
  C 167.02 200.13 164.47 200.71 162.80 198.90
  Q 159.93 195.81 161.55 191.66
  Z"
/>
<path fill="#93c190" d="
  M 206.10 201.96
  C 204.80 205.61 200.03 207.46 198.03 203.59
  Q 197.21 202.01 197.13 199.36
  Q 196.95 193.72 200.70 189.47
  C 202.69 187.21 206.71 186.69 207.24 190.67
  Q 207.82 194.95 207.08 199.39
  C 206.92 200.36 206.41 201.06 206.10 201.96
  Z"
/>
<ellipse fill="#699f67" cx="0.00" cy="0.00" transform="translate(117.28,217.38) rotate(-45.1)" rx="7.42" ry="5.87"/>
<path fill="#93c190" d="
  M 246.52 224.52
  Q 244.70 223.67 245.45 221.54
  C 247.12 216.85 251.33 219.94 252.86 222.56
  Q 253.87 224.28 252.01 225.01
  C 250.14 225.73 248.22 225.31 246.52 224.52
  Z"
/>
<ellipse fill="#93c190" cx="0.00" cy="0.00" transform="translate(163.99,229.22) rotate(96.2)" rx="4.49" ry="3.34"/>
<path fill="#699f67" d="
  M 101.49 229.45
  L 101.91 231.77
  Q 102.01 232.32 102.56 232.40
  C 110.11 233.57 113.48 240.16 112.90 247.53
  Q 112.56 251.76 110.97 255.58
  Q 108.19 262.29 100.06 261.16
  Q 100.06 255.74 100.34 249.48
  C 100.40 248.15 99.81 247.24 100.40 245.97
  Q 100.64 245.45 100.67 244.88
  L 101.49 229.45
  Z"
/>
<path fill="#699f67" d="
  M 242.19 230.86
  Q 243.36 237.22 241.59 243.60
  Q 240.83 246.37 241.18 247.86
  C 241.61 249.72 242.79 251.65 242.58 253.61
  Q 241.88 260.33 235.77 263.87
  C 233.98 264.91 232.03 264.16 230.05 264.52
  Q 229.58 264.61 229.23 264.92
  Q 222.47 271.02 217.95 274.17
  Q 215.70 275.75 211.72 276.68
  Q 213.13 273.07 214.33 269.36
  C 214.84 267.78 217.75 266.53 219.33 266.30
  Q 224.13 265.60 229.59 262.45
  Q 232.14 260.98 232.91 258.13
  Q 233.03 257.67 233.45 257.44
  L 236.13 255.99
  Q 236.62 255.72 236.68 255.17
  C 236.88 253.46 237.75 252.14 238.16 250.50
  Q 239.34 245.74 240.53 241.18
  Q 241.16 238.77 241.47 235.94
  Q 241.73 233.59 242.19 230.86
  Z"
/>
<path fill="#699f67" d="
  M 295.76 233.25
  Q 296.65 234.62 295.95 236.30
  Q 295.74 236.80 295.86 237.33
  Q 296.35 239.50 296.74 241.63
  Q 296.83 242.13 296.73 242.65
  Q 296.63 243.19 296.64 243.75
  Q 296.84 250.61 296.99 256.74
  Q 290.12 258.43 287.74 253.76
  Q 286.77 251.86 285.75 249.11
  Q 284.81 246.59 285.05 244.30
  Q 285.62 238.91 286.40 237.68
  Q 289.52 232.77 295.76 233.25
  Z"
/>
<path fill="#93c190" d="
  M 219.87 251.76
  C 219.41 249.07 220.24 244.74 220.82 241.83
  C 221.31 239.38 225.49 237.98 227.31 239.85
  C 231.83 244.51 226.83 248.76 224.55 252.62
  A 2.53 2.53 0.0 0 1 219.87 251.76
  Z"
/>
<path fill="#93c190" d="
  M 183.80 259.28
  Q 179.15 255.09 180.09 249.30
  C 180.68 245.61 185.64 246.56 186.22 249.67
  Q 187.14 254.65 184.90 259.08
  A 0.71 0.70 34.3 0 1 183.80 259.28
  Z"
/>
<path fill="#699f67" d="
  M 272.52 261.88
  Q 267.52 258.50 267.92 253.05
  C 268.18 249.52 272.09 248.66 274.83 249.61
  Q 275.43 249.82 275.72 250.39
  C 277.89 254.58 279.73 258.16 275.38 261.74
  A 2.41 2.40 -47.8 0 1 272.52 261.88
  Z"
/>
<path fill="#93c190" d="
  M 193.50 277.28
  L 194.80 272.02
  Q 197.28 268.27 198.62 263.99
  C 199.73 260.47 199.55 256.86 199.94 253.25
  Q 200.33 249.70 203.72 250.86
  Q 203.98 250.95 204.21 251.09
  Q 207.21 253.01 207.15 256.89
  Q 207.04 263.65 204.14 271.04
  Q 203.09 273.74 200.56 275.51
  Q 197.35 277.76 193.50 277.28
  Z"
/>
<path fill="#699f67" d="
  M 155.97 269.48
  C 157.08 266.81 159.44 261.89 163.16 263.25
  Q 170.25 265.85 170.82 273.15
  C 171.10 276.66 168.47 279.39 164.75 278.90
  C 159.93 278.26 153.56 275.32 155.97 269.48
  Z"
/>
<path fill="#699f67" d="
  M 252.69 280.40
  L 253.21 300.31
  Q 250.42 302.68 248.99 302.92
  Q 242.13 304.06 236.62 302.78
  Q 233.83 302.12 229.48 299.57
  Q 227.99 298.70 227.31 297.27
  C 225.16 292.76 223.52 285.94 226.71 281.75
  C 228.80 279.01 231.15 276.67 234.60 275.64
  C 237.85 274.66 241.10 272.88 244.50 274.22
  Q 247.89 275.55 252.69 280.40
  Z"
/>
<path fill="#699f67" d="
  M 144.33 282.78
  Q 144.38 283.61 144.74 283.97
  Q 145.03 284.27 145.80 284.12
  C 149.58 283.40 153.27 285.16 156.73 286.27
  Q 157.90 286.64 158.58 287.60
  Q 165.52 297.38 163.82 309.09
  C 163.11 313.96 157.44 319.26 153.75 321.36
  Q 149.42 323.82 143.36 323.72
  L 143.91 303.12
  A 1.83 1.77 -58.1 0 0 143.73 302.29
  Q 143.16 301.17 143.70 300.07
  Q 143.94 299.58 143.95 299.04
  L 144.33 282.78
  Z"
/>
<ellipse fill="#699f67" cx="0.00" cy="0.00" transform="translate(183.05,302.16) rotate(13.5)" rx="7.46" ry="6.30"/>
<path fill="#5a885b" d="
  M 121.22 309.65
  C 119.64 313.12 121.40 316.62 123.27 319.32
  A 1.91 1.91 0.0 0 1 123.59 320.53
  Q 123.47 322.06 122.16 322.45
  Q 121.65 322.61 121.18 322.35
  L 119.05 321.19
  A 0.34 0.34 0.0 0 0 118.56 321.59
  Q 119.31 324.19 119.40 326.86
  A 1.32 1.32 0.0 0 1 117.47 328.07
  L 114.10 326.29
  Q 113.21 323.34 113.34 319.82
  Q 113.47 316.44 114.04 313.38
  Q 114.75 309.51 119.12 307.47
  Q 119.54 307.27 119.89 307.59
  Q 120.81 308.41 121.22 309.65
  Z"
/>
<path fill="#5a885b" d="
  M 282.60 328.23
  Q 280.06 329.31 279.05 326.60
  Q 278.87 326.12 279.03 325.62
  Q 279.60 323.82 279.42 321.58
  Q 279.32 320.40 278.85 321.48
  Q 277.74 323.99 275.03 324.19
  Q 274.40 324.24 274.32 323.62
  Q 274.08 321.86 274.60 320.32
  Q 275.08 318.91 275.04 317.48
  Q 274.95 314.60 273.87 311.73
  Q 274.34 309.28 277.63 308.04
  A 2.36 2.34 -34.4 0 1 280.00 308.47
  Q 284.19 312.15 284.65 317.74
  Q 284.93 321.02 282.60 328.23
  Z"
/>
<path fill="#699f67" d="
  M 222.11 321.04
  C 222.42 319.18 221.82 317.06 223.25 315.58
  C 226.82 311.87 231.19 313.83 234.27 316.93
  C 238.83 321.54 237.15 328.78 229.73 327.74
  Q 226.28 327.27 223.07 324.04
  Q 221.82 322.78 222.11 321.04
  Z"
/>
<path fill="#699f67" d="
  M 190.41 321.52
  L 183.76 348.81
  Q 177.42 346.37 175.58 345.19
  Q 173.31 343.72 170.45 339.65
  C 167.54 335.51 168.80 331.87 171.94 328.57
  C 174.50 325.89 177.27 322.74 180.37 321.04
  Q 181.60 320.37 183.28 320.47
  Q 186.79 320.68 190.41 321.52
  Z"
/>
<path fill="#699f67" d="
  M 253.61 329.06
  Q 253.84 336.18 253.45 343.48
  Q 253.37 344.89 253.64 346.25
  Q 253.94 347.72 253.41 349.06
  Q 253.20 349.58 253.39 350.10
  Q 253.78 351.25 253.04 352.13
  Q 252.53 352.73 252.98 353.37
  Q 253.89 354.66 253.23 356.12
  Q 253.00 356.62 252.99 357.17
  L 252.93 361.31
  L 252.61 359.34
  Q 252.53 358.81 252.00 358.73
  C 250.50 358.47 249.37 357.08 247.95 356.44
  Q 244.03 354.65 240.78 351.71
  A 4.27 4.22 14.0 0 1 239.50 349.61
  Q 238.48 345.74 238.86 340.73
  C 239.15 336.89 241.59 333.13 245.04 331.57
  Q 248.20 330.15 253.61 329.06
  Z"
/>
<path fill="#699f67" d="
  M 143.63 336.98
  C 146.52 338.08 149.56 338.74 150.87 342.10
  C 151.69 344.21 152.97 346.87 152.69 349.11
  Q 152.28 352.50 150.96 355.66
  Q 149.80 358.42 145.39 359.87
  Q 144.86 360.04 144.68 360.57
  L 143.96 362.63
  Q 143.89 352.70 143.26 343.01
  C 143.13 340.97 143.46 339.01 143.63 336.98
  Z"
/>
<path fill="#699f67" d="
  M 216.28 370.20
  Q 215.26 365.62 214.83 359.99
  Q 214.70 358.35 213.63 356.29
  Q 213.39 355.83 213.55 355.34
  L 213.71 354.85
  Q 213.89 354.30 213.60 353.80
  Q 212.64 352.13 212.83 350.29
  Q 212.88 349.77 212.60 349.32
  Q 211.54 347.66 211.92 345.67
  Q 213.45 345.59 217.59 344.64
  C 220.01 344.08 223.38 344.79 225.00 347.10
  Q 226.45 349.16 228.90 348.82
  C 229.95 348.67 231.47 349.11 231.96 350.16
  A 0.65 0.64 -2.5 0 1 231.15 351.04
  Q 230.04 350.62 229.04 350.60
  A 1.41 1.40 -7.9 0 0 227.66 352.42
  C 228.48 355.06 229.92 357.31 228.43 360.12
  Q 224.42 367.64 216.28 370.20
  Z"
/>
</svg>
