<?xml version="1.0" encoding="UTF-8" standalone="no"?>
<!DOCTYPE svg PUBLIC "-//W3C//DTD SVG 1.1//EN" "http://www.w3.org/Graphics/SVG/1.1/DTD/svg11.dtd">
<svg xmlns="http://www.w3.org/2000/svg" version="1.1" viewBox="0.00 0.00 500.00 372.00">
<g stroke-width="2.00" fill="none" stroke-linecap="butt">
<path stroke="#c17571" vector-effect="non-scaling-stroke" d="
  M 338.43 111.48
  Q 333.59 112.64 332.24 112.22
  Q 330.71 111.73 328.97 111.63
  Q 328.43 111.60 328.03 111.96
  C 325.64 114.10 320.28 114.75 317.03 115.51
  C 314.38 116.12 312.09 115.05 309.66 114.27
  C 306.04 113.10 304.05 106.57 299.47 108.41
  Q 296.40 109.64 293.56 110.27
  Q 281.42 112.98 269.61 113.14
  Q 258.10 113.29 244.90 113.06
  C 240.20 112.98 235.45 113.52 230.97 113.52
  Q 215.96 113.52 200.01 113.36
  Q 196.26 113.33 192.11 113.12
  Q 186.16 112.83 184.22 112.81
  Q 172.50 112.67 160.48 110.63"
/>
<path stroke="#c17571" vector-effect="non-scaling-stroke" d="
  M 182.11 82.50
  Q 183.84 82.36 189.25 82.74
  Q 192.79 82.98 205.51 82.31
  Q 212.27 81.95 218.52 81.94
  Q 224.48 81.93 231.05 81.50
  Q 244.70 80.62 267.48 81.92
  C 274.26 82.30 281.06 82.04 287.99 82.60
  Q 292.00 82.93 295.15 84.48
  Q 296.80 85.29 296.00 83.65
  L 287.96 67.14"
/>
<path stroke="#923018" vector-effect="non-scaling-stroke" d="
  M 382.29 169.46
  Q 383.34 169.56 383.51 170.51
  Q 384.72 177.45 388.64 183.02
  A 1.77 1.76 74.1 0 0 389.98 183.77
  Q 397.16 184.14 404.01 182.15
  Q 404.55 182.00 404.91 182.27"
/>
<path stroke="#923018" vector-effect="non-scaling-stroke" d="
  M 92.82 182.07
  Q 96.14 181.74 99.99 183.48
  Q 101.32 184.07 107.43 183.53
  C 109.13 183.38 110.41 182.25 111.04 180.75
  Q 113.20 175.68 115.23 169.03"
/>
<path stroke="#a87e07" vector-effect="non-scaling-stroke" d="
  M 420.97 177.73
  L 418.61 173.85"
/>
<path stroke="#f8c500" vector-effect="non-scaling-stroke" d="
  M 381.71 81.60
  Q 383.27 83.35 383.03 86.75
  C 382.54 93.66 381.98 100.64 382.13 107.74
  Q 382.27 114.60 382.09 120.71
  C 382.01 123.23 382.66 125.58 382.27 128.14
  C 381.44 133.53 381.92 138.91 381.89 144.52
  Q 381.87 149.08 382.14 153.72"
/>
<path stroke="#a87e07" vector-effect="non-scaling-stroke" d="
  M 382.14 153.72
  L 378.17 153.78"
/>
<path stroke="#f8c500" vector-effect="non-scaling-stroke" d="
  M 391.16 82.19
  Q 390.86 84.70 390.53 87.98
  Q 389.54 97.84 389.59 107.75
  Q 389.63 115.23 390.32 118.08"
/>
<path stroke="#de6810" vector-effect="non-scaling-stroke" d="
  M 390.32 118.08
  Q 386.66 120.55 389.82 124.63
  A 1.14 1.14 0.0 0 0 390.99 125.05
  Q 393.65 124.43 396.12 123.64
  C 397.29 123.27 397.68 122.42 398.51 121.67
  Q 398.91 121.30 399.43 121.48
  A 0.54 0.54 0.0 0 1 399.77 122.16
  Q 398.98 124.64 397.77 126.79
  Q 394.30 132.99 391.17 139.52
  Q 389.18 143.65 393.41 145.40
  Q 393.98 145.64 394.47 145.90
  Q 397.02 147.28 398.54 144.81
  Q 403.13 137.36 405.25 131.90
  Q 406.86 127.75 409.26 123.90
  Q 409.61 123.33 409.85 123.96
  Q 411.23 127.60 410.33 131.36
  A 1.58 1.57 9.0 0 0 411.74 133.29
  L 413.71 133.45
  A 1.28 1.28 0.0 0 1 414.67 135.44
  Q 411.71 139.81 409.12 144.87
  C 408.25 146.58 407.81 148.74 407.81 150.63
  A 1.97 1.95 19.6 0 0 408.56 152.19
  Q 416.45 158.40 425.35 162.35
  Q 427.50 163.31 429.01 162.67
  C 432.73 161.09 435.53 154.38 436.82 150.82
  A 2.95 2.95 0.0 0 1 439.63 148.89
  C 442.74 148.93 445.17 149.31 447.42 146.29"
/>
<path stroke="#f8c500" vector-effect="non-scaling-stroke" d="
  M 447.42 146.29
  L 447.34 147.33
  Q 447.29 147.84 447.77 148.01
  Q 448.07 148.12 448.38 148.13
  Q 448.75 148.13 449.04 147.90
  C 450.03 147.08 450.85 145.94 451.90 145.28
  Q 457.66 141.73 463.73 138.07
  Q 463.86 137.99 468.60 134.69
  Q 472.28 132.12 476.71 131.20"
/>
<path stroke="#f8c500" vector-effect="non-scaling-stroke" d="
  M 480.45 137.02
  Q 473.72 140.54 467.54 145.22
  Q 466.16 146.27 464.77 146.97
  C 456.97 150.92 449.81 155.89 442.29 160.48
  C 440.15 161.79 437.79 162.57 435.76 164.03
  C 431.55 167.05 426.86 169.55 422.41 172.22
  Q 421.71 172.64 420.51 172.94
  Q 419.29 173.24 418.61 173.85"
/>
<path stroke="#a17407" vector-effect="non-scaling-stroke" d="
  M 418.61 173.85
  Q 416.17 170.78 413.39 167.63
  C 411.53 165.52 409.32 164.36 407.29 162.58
  C 403.42 159.18 397.58 157.04 392.87 155.50
  Q 390.71 154.80 387.55 154.48
  Q 384.74 154.19 382.14 153.72"
/>
<path stroke="#a87e07" vector-effect="non-scaling-stroke" d="
  M 108.58 154.65
  Q 101.90 156.37 96.75 158.77
  C 94.65 159.75 92.80 161.51 90.80 162.77
  Q 87.48 164.85 84.65 168.12"
/>
<path stroke="#f8c500" vector-effect="non-scaling-stroke" d="
  M 84.65 168.12
  Q 80.44 164.73 75.17 163.01
  Q 74.68 162.86 74.60 162.35
  Q 74.50 161.72 74.98 161.31"
/>
<path stroke="#e57210" vector-effect="non-scaling-stroke" d="
  M 74.98 161.31
  Q 87.74 154.41 104.24 143.54
  C 107.20 141.59 108.58 138.99 107.36 135.58
  Q 104.62 127.96 99.85 122.43
  Q 97.18 119.34 93.69 120.78
  Q 90.12 122.26 85.59 125.23
  C 80.73 128.41 75.95 130.94 70.96 133.48
  C 67.27 135.35 61.67 139.24 62.47 144.10
  C 63.34 149.42 67.28 154.99 70.55 159.31"
/>
<path stroke="#f8c500" vector-effect="non-scaling-stroke" d="
  M 70.55 159.31
  Q 70.86 160.39 69.44 160.07
  Q 69.01 159.98 68.68 159.70
  Q 64.17 155.96 58.48 153.11
  Q 53.34 150.54 47.05 145.56
  C 44.23 143.33 40.58 142.35 37.63 140.18
  C 35.42 138.55 33.37 136.79 30.98 135.40
  Q 26.59 132.85 22.22 129.96"
/>
<path stroke="#f8c500" vector-effect="non-scaling-stroke" d="
  M 115.32 81.75
  Q 115.14 93.17 115.77 104.38
  Q 116.27 113.34 116.12 121.13
  Q 115.86 134.32 116.30 147.50
  Q 116.36 149.24 117.36 153.35"
/>
<path stroke="#a17407" vector-effect="non-scaling-stroke" d="
  M 117.36 153.35
  L 108.58 154.65"
/>
<path stroke="#f8c500" vector-effect="non-scaling-stroke" d="
  M 108.58 154.65
  Q 108.55 148.82 108.90 143.04
  Q 109.27 136.68 108.89 131.46
  Q 108.07 120.23 108.10 116.00
  Q 108.24 93.38 107.35 81.88"
/>
<path stroke="#a17407" vector-effect="non-scaling-stroke" d="
  M 84.65 168.12
  L 79.48 174.46"
/>
<path stroke="#f8c500" vector-effect="non-scaling-stroke" d="
  M 79.48 174.46
  Q 75.43 171.97 71.49 169.47
  C 65.97 165.97 60.03 163.12 54.87 159.41
  C 51.31 156.85 47.33 155.10 43.84 152.51
  C 41.61 150.85 38.90 150.61 36.59 148.85
  Q 29.31 143.30 21.92 139.54
  C 20.95 139.05 20.27 138.26 19.53 137.50
  Q 18.69 136.65 17.83 137.01"
/>
<path stroke="#a87e07" vector-effect="non-scaling-stroke" d="
  M 120.32 153.23
  L 117.36 153.35"
/>
<path stroke="#a87e07" vector-effect="non-scaling-stroke" d="
  M 79.48 174.46
  L 77.41 178.04"
/>
<path stroke="#e57210" vector-effect="non-scaling-stroke" d="
  M 447.42 146.29
  Q 447.70 145.88 447.73 145.43
  Q 447.76 144.99 447.49 144.63
  Q 445.90 142.53 444.70 140.22
  C 443.58 138.05 441.76 136.57 440.72 134.33
  Q 440.43 133.73 441.08 133.57
  Q 441.48 133.47 441.88 133.57
  Q 442.27 133.66 442.65 133.57
  Q 446.10 132.71 449.03 131.74
  C 452.43 130.61 458.09 123.93 458.25 120.24
  Q 458.27 119.69 457.86 119.32
  C 453.20 115.09 447.75 111.72 442.25 108.53
  C 437.46 105.75 434.06 109.22 429.42 109.71
  Q 426.68 110.00 424.24 111.35
  Q 424.02 111.47 423.79 111.37
  Q 423.65 111.30 423.59 111.15
  Q 423.43 110.71 423.74 110.36
  C 424.32 109.69 425.19 109.04 425.35 108.13
  C 425.76 105.84 423.04 104.85 421.24 104.32
  Q 420.56 104.13 420.81 103.47
  Q 421.99 100.25 422.85 96.92
  C 423.68 93.72 418.80 92.07 416.80 93.12
  A 1.20 1.10 -0.2 0 0 416.36 93.53
  L 413.61 97.98
  A 1.75 1.75 0.0 0 1 410.82 98.23
  Q 407.71 94.75 403.79 97.75
  A 1.76 1.73 78.7 0 0 403.18 98.68
  Q 402.61 100.87 401.23 102.60
  A 1.08 1.08 0.0 0 0 401.54 104.21
  L 405.49 106.47
  Q 406.31 106.94 405.61 107.57
  Q 399.20 113.45 390.32 118.08"
/>
<path stroke="#de6810" vector-effect="non-scaling-stroke" d="
  M 74.98 161.31
  Q 72.33 160.86 70.55 159.31"
/>
<path stroke="#d6dbdf" vector-effect="non-scaling-stroke" d="
  M 315.35 81.74
  Q 317.24 81.18 317.27 79.01
  Q 317.37 73.64 315.69 68.90
  C 313.71 63.33 312.79 57.62 310.95 51.97
  Q 309.90 48.73 307.02 50.55
  Q 300.21 54.84 293.42 60.07
  A 2.12 2.11 -28.9 0 0 292.72 62.48
  C 293.63 64.96 294.43 67.49 295.90 69.71
  Q 299.98 75.88 302.92 84.18
  C 303.34 85.36 304.10 86.62 305.58 86.35
  C 307.01 86.09 308.43 85.87 309.56 84.88
  Q 312.06 82.70 315.35 81.74"
/>
<path stroke="#d6dbdf" vector-effect="non-scaling-stroke" d="
  M 338.81 56.33
  A 1.54 1.53 15.0 0 0 337.12 57.30
  C 336.00 60.31 333.96 62.57 332.82 65.51
  Q 330.89 70.48 327.75 75.64
  C 326.18 78.23 325.65 81.12 324.14 83.76
  A 1.07 1.06 38.1 0 0 324.30 85.03
  L 330.04 90.93
  A 0.75 0.73 51.8 0 0 330.96 91.05
  Q 338.16 86.72 344.53 81.13
  C 348.18 77.93 350.75 74.23 353.81 70.33
  C 355.75 67.85 355.64 64.87 352.63 63.18
  Q 346.85 59.95 341.46 57.19
  Q 340.27 56.58 338.81 56.33"
/>
<path stroke="#d6dbdf" vector-effect="non-scaling-stroke" d="
  M 228.87 87.81
  L 198.08 88.40"
/>
<path stroke="#c0c8ce" vector-effect="non-scaling-stroke" d="
  M 198.08 88.40
  Q 195.53 87.01 190.18 89.21"
/>
<path stroke="#d6dbdf" vector-effect="non-scaling-stroke" d="
  M 190.18 89.21
  Q 184.48 88.65 178.50 88.53
  Q 172.41 88.40 168.54 90.08
  C 165.75 91.30 161.21 96.28 161.27 100.20
  C 161.31 102.51 162.60 105.40 165.25 105.57
  Q 174.62 106.20 187.92 106.68
  C 191.25 106.79 196.62 107.39 201.29 107.15"
/>
<path stroke="#c0c8ce" vector-effect="non-scaling-stroke" d="
  M 201.29 107.15
  L 209.59 107.26"
/>
<path stroke="#d6dbdf" vector-effect="non-scaling-stroke" d="
  M 209.59 107.26
  L 242.51 106.94"
/>
<path stroke="#c0c8ce" vector-effect="non-scaling-stroke" d="
  M 242.51 106.94
  L 248.39 107.18"
/>
<path stroke="#d6dbdf" vector-effect="non-scaling-stroke" d="
  M 248.39 107.18
  L 279.91 106.36"
/>
<path stroke="#c0c8ce" vector-effect="non-scaling-stroke" d="
  M 279.91 106.36
  Q 284.67 106.44 288.80 104.77"
/>
<path stroke="#d6dbdf" vector-effect="non-scaling-stroke" d="
  M 288.80 104.77
  Q 292.54 104.73 296.00 103.16
  C 297.44 102.50 298.60 102.53 300.09 102.30
  A 1.19 1.18 -4.6 0 0 301.09 101.13
  L 301.09 93.97
  A 2.36 2.36 0.0 0 0 298.56 91.62
  Q 296.32 91.79 294.76 90.27
  A 2.39 2.36 -16.8 0 0 293.57 89.64
  Q 284.99 87.92 275.34 88.01"
/>
<path stroke="#c0c8ce" vector-effect="non-scaling-stroke" d="
  M 275.34 88.01
  L 266.78 87.75"
/>
<path stroke="#d6dbdf" vector-effect="non-scaling-stroke" d="
  M 266.78 87.75
  L 236.14 87.30"
/>
<path stroke="#c0c8ce" vector-effect="non-scaling-stroke" d="
  M 236.14 87.30
  L 228.87 87.81"
/>
<path stroke="#e9ecee" vector-effect="non-scaling-stroke" d="
  M 236.14 87.30
  Q 237.59 92.06 240.03 94.46
  Q 246.11 100.45 248.39 107.18"
/>
<path stroke="#e9ecee" vector-effect="non-scaling-stroke" d="
  M 242.51 106.94
  Q 240.99 104.71 239.27 102.87
  Q 236.99 100.43 235.96 98.88
  Q 232.41 93.53 228.87 87.81"
/>
<path stroke="#e9ecee" vector-effect="non-scaling-stroke" d="
  M 266.78 87.75
  Q 271.18 93.72 279.05 102.98
  Q 280.92 105.17 279.91 106.36"
/>
<path stroke="#e9ecee" vector-effect="non-scaling-stroke" d="
  M 209.59 107.26
  Q 207.48 105.72 205.13 101.92
  Q 200.34 94.20 198.08 88.40"
/>
<path stroke="#e9ecee" vector-effect="non-scaling-stroke" d="
  M 275.34 88.01
  Q 278.08 93.02 281.80 97.04
  Q 282.69 98.00 284.63 100.86
  Q 286.19 103.16 288.80 104.77"
/>
<path stroke="#e9ecee" vector-effect="non-scaling-stroke" d="
  M 201.29 107.15
  L 190.18 89.21"
/>
<path stroke="#d6dbdf" vector-effect="non-scaling-stroke" d="
  M 318.17 88.08
  C 315.06 88.07 308.80 90.93 308.01 94.41
  Q 307.00 98.85 307.32 102.68
  C 307.59 105.93 310.54 107.81 313.29 109.03
  C 315.92 110.20 318.82 108.57 321.52 108.22
  C 323.90 107.92 325.71 105.39 325.54 103.13
  Q 325.35 100.50 325.17 97.78
  C 324.93 94.12 321.53 91.03 319.15 88.50
  A 1.35 1.35 0.0 0 0 318.17 88.08"
/>
<path stroke="#d6dbdf" vector-effect="non-scaling-stroke" d="
  M 332.31 97.79
  A 2.51 2.51 0.0 0 0 331.55 99.44
  L 331.33 103.34
  A 2.51 2.51 0.0 0 0 335.06 105.68
  L 337.84 104.13
  A 2.51 2.51 0.0 0 0 339.02 101.17
  L 337.84 97.47
  A 2.51 2.51 0.0 0 0 333.70 96.44
  L 332.31 97.79"
/>
<path stroke="#e57210" vector-effect="non-scaling-stroke" d="
  M 58.41 132.33
  L 61.40 133.56
  Q 61.88 133.76 62.34 133.52
  Q 71.69 128.69 81.70 123.60
  C 85.32 121.76 90.99 117.94 91.29 113.38
  A 0.97 0.97 0.0 0 1 92.40 112.48
  C 93.85 112.69 95.39 113.27 96.83 112.71
  Q 100.45 111.29 99.68 106.54
  Q 99.14 103.20 95.53 102.83
  C 93.63 102.63 91.80 103.76 90.02 104.33
  Q 89.50 104.49 88.98 104.36
  Q 81.72 102.54 74.06 100.76
  C 67.91 99.33 61.95 99.79 58.61 105.89
  Q 52.58 116.93 47.39 127.30
  C 45.73 130.61 45.13 133.26 47.40 136.20
  C 48.47 137.58 50.14 137.31 51.67 137.36
  C 54.06 137.44 56.53 134.25 57.69 132.55
  A 0.60 0.60 0.0 0 1 58.41 132.33"
/>
<path stroke="#e57210" vector-effect="non-scaling-stroke" d="
  M 424.75 120.02
  C 421.10 120.26 419.79 117.45 420.82 114.14
  A 1.19 1.19 0.0 0 0 420.00 112.64
  L 418.88 112.32
  Q 417.78 112.01 417.45 113.12
  Q 416.54 116.23 417.61 118.86
  Q 419.28 122.96 417.48 126.39
  A 0.61 0.61 0.0 0 0 418.02 127.28
  C 420.46 127.27 422.76 126.74 425.19 127.25
  Q 426.92 127.62 428.52 127.73
  Q 429.66 127.80 429.61 126.67
  L 429.35 120.81
  Q 429.30 119.68 428.18 119.77
  Q 426.53 119.91 424.75 120.02"
/>
<path stroke="#e57210" vector-effect="non-scaling-stroke" d="
  M 443.75 122.56
  A 1.99 1.99 0.0 0 0 444.26 119.18
  L 442.28 117.55
  A 1.99 1.99 0.0 0 0 439.74 117.56
  L 437.93 119.07
  A 1.99 1.99 0.0 0 0 437.54 121.68
  L 438.39 123.00
  A 1.99 1.99 0.0 0 0 440.82 123.76
  L 443.75 122.56"
/>
<path stroke="#e57210" vector-effect="non-scaling-stroke" d="
  M 426.31 135.01
  A 0.64 0.64 0.0 0 0 425.95 136.18
  L 432.66 140.87
  A 0.64 0.64 0.0 0 0 433.58 140.03
  L 430.95 135.28
  A 0.64 0.64 0.0 0 0 430.38 134.96
  L 426.31 135.01"
/>
<path stroke="#e57210" vector-effect="non-scaling-stroke" d="
  M 428.27 147.68
  L 422.87 143.09
  A 1.33 1.33 0.0 0 0 421.00 143.24
  L 419.91 144.52
  A 3.75 3.63 -49.6 0 0 420.25 149.73
  L 422.13 151.34
  A 3.75 3.63 -49.6 0 0 427.33 150.83
  L 428.42 149.56
  A 1.33 1.33 0.0 0 0 428.27 147.68"
/>
<path stroke="#e57210" vector-effect="non-scaling-stroke" d="
  M 67.21 111.21
  C 66.29 114.88 65.01 117.76 63.60 120.94
  Q 63.05 122.19 64.24 121.52
  L 79.49 112.89
  Q 82.89 110.97 78.99 111.17
  C 76.08 111.33 73.16 110.02 70.29 109.34
  A 2.57 2.57 0.0 0 0 67.21 111.21"
/>
<path stroke="#6a1a11" vector-effect="non-scaling-stroke" d="
  M 299.98 141.69
  C 299.10 140.01 296.07 139.91 294.41 139.57
  Q 292.82 139.24 291.27 140.00
  Q 286.14 142.51 285.57 147.94
  C 285.29 150.61 285.90 154.00 288.69 155.19
  Q 294.09 157.51 299.15 154.45
  C 303.38 151.89 301.84 145.22 299.98 141.69"
/>
<path stroke="#6a1a11" vector-effect="non-scaling-stroke" d="
  M 211.84 152.42
  Q 214.66 146.70 210.01 142.53
  Q 204.14 137.26 199.07 141.96
  C 196.07 144.74 196.18 147.41 196.56 151.05
  Q 196.85 153.79 199.25 154.93
  C 203.43 156.90 209.46 157.23 211.84 152.42"
/>
<path stroke="#bc2c1f" vector-effect="non-scaling-stroke" d="
  M 245.91 208.96
  C 248.81 209.24 252.40 209.89 255.25 209.14
  Q 260.07 207.87 265.31 205.61
  C 270.49 203.37 273.70 199.04 277.28 194.92
  C 284.09 187.08 283.85 175.36 281.02 166.05
  Q 279.31 160.41 274.70 155.22
  Q 268.35 148.07 258.75 144.72
  C 255.91 143.73 252.65 143.78 249.63 143.49
  Q 246.21 143.16 243.01 143.75
  Q 227.02 146.66 220.07 160.17
  Q 219.10 162.05 217.78 163.85
  C 214.61 168.20 214.93 175.68 215.57 181.52
  C 216.06 186.02 218.26 189.48 220.33 193.24
  C 225.81 203.21 235.09 207.91 245.91 208.96"
/>
<path stroke="#bc2c1f" vector-effect="non-scaling-stroke" d="
  M 192.63 237.69
  C 184.76 232.97 176.58 228.78 170.48 221.31
  Q 164.94 214.53 160.22 207.58
  Q 157.34 203.34 155.88 197.51
  C 155.14 194.55 153.00 191.61 149.44 193.74
  C 148.36 194.38 147.24 195.30 147.22 196.68
  Q 147.19 199.76 148.60 201.89
  C 151.36 206.05 152.48 210.96 155.34 215.20
  C 157.88 218.97 160.27 222.89 163.40 225.98
  Q 172.06 234.52 178.99 240.27
  Q 183.92 244.35 188.53 246.20
  Q 195.95 249.18 204.81 252.95
  Q 209.73 255.05 214.12 255.88
  Q 221.89 257.37 229.51 258.79
  Q 236.17 260.04 248.24 259.97
  Q 270.74 259.85 290.19 253.89
  C 293.45 252.89 296.49 251.47 299.75 250.44
  C 304.06 249.06 307.44 246.60 311.55 244.83
  C 315.50 243.13 318.93 240.29 322.39 237.82
  Q 325.17 235.84 327.39 233.69
  Q 338.13 223.26 345.89 210.38
  Q 348.69 205.73 350.92 199.30
  Q 351.73 196.98 350.03 194.55
  Q 349.73 194.12 349.16 193.85
  Q 345.64 192.14 343.97 195.15
  Q 339.45 203.32 334.72 212.05
  C 332.42 216.30 329.05 219.64 325.81 223.16
  Q 322.70 226.54 318.56 229.72
  C 314.36 232.95 310.11 236.62 305.28 238.64
  C 296.33 242.37 287.48 246.56 278.13 248.48
  Q 267.22 250.72 256.33 251.56
  C 241.87 252.68 225.56 249.50 210.93 245.72
  Q 206.11 244.48 201.76 242.48
  Q 196.93 240.26 192.63 237.69"
/>
<path stroke="#e57210" vector-effect="non-scaling-stroke" d="
  M 95.9058 133.3013
  A 3.65 3.65 0.0 0 0 90.9245 131.9480
  L 74.3329 141.4501
  A 3.65 3.65 0.0 0 0 72.9795 146.4314
  L 73.8542 147.9587
  A 3.65 3.65 0.0 0 0 78.8355 149.3120
  L 95.4271 139.8099
  A 3.65 3.65 0.0 0 0 96.7805 134.8286
  L 95.9058 133.3013"
/>
<path stroke="#bc2c1f" vector-effect="non-scaling-stroke" d="
  M 273.86 172.42
  C 273.08 167.91 270.87 163.02 267.38 159.89
  Q 266.06 158.71 264.80 157.48
  C 262.47 155.19 259.45 154.46 256.65 152.90
  C 249.13 148.71 238.79 153.55 232.24 158.25
  C 228.35 161.04 227.48 164.66 225.36 168.52
  Q 223.35 172.18 223.58 176.82
  Q 223.86 182.36 226.50 187.46
  C 228.58 191.49 233.00 195.25 236.64 197.68
  Q 238.94 199.22 243.33 199.94
  C 256.57 202.10 269.08 196.74 273.75 183.87
  C 275.06 180.24 274.50 176.13 273.86 172.42"
/>
<path stroke="#bc2c1f" vector-effect="non-scaling-stroke" d="
  M 261.6258 176.4641
  A 12.38 11.79 1.5 0 0 249.5586 164.3540
  A 12.38 11.79 1.5 0 0 236.8742 175.8159
  A 12.38 11.79 1.5 0 0 248.9414 187.9260
  A 12.38 11.79 1.5 0 0 261.6258 176.4641"
/>
</g>
<path fill="#adb6bf" d="
  M 338.43 111.48
  Q 333.59 112.64 332.24 112.22
  Q 330.71 111.73 328.97 111.63
  Q 328.43 111.60 328.03 111.96
  C 325.64 114.10 320.28 114.75 317.03 115.51
  C 314.38 116.12 312.09 115.05 309.66 114.27
  C 306.04 113.10 304.05 106.57 299.47 108.41
  Q 296.40 109.64 293.56 110.27
  Q 281.42 112.98 269.61 113.14
  Q 258.10 113.29 244.90 113.06
  C 240.20 112.98 235.45 113.52 230.97 113.52
  Q 215.96 113.52 200.01 113.36
  Q 196.26 113.33 192.11 113.12
  Q 186.16 112.83 184.22 112.81
  Q 172.50 112.67 160.48 110.63
  Q 152.91 103.24 156.75 94.04
  C 159.79 86.76 165.36 83.72 172.72 82.31
  Q 173.28 82.20 173.80 82.43
  Q 175.54 83.21 177.34 82.09
  Q 177.86 81.76 178.45 81.97
  Q 180.11 82.57 182.11 82.50
  Q 183.84 82.36 189.25 82.74
  Q 192.79 82.98 205.51 82.31
  Q 212.27 81.95 218.52 81.94
  Q 224.48 81.93 231.05 81.50
  Q 244.70 80.62 267.48 81.92
  C 274.26 82.30 281.06 82.04 287.99 82.60
  Q 292.00 82.93 295.15 84.48
  Q 296.80 85.29 296.00 83.65
  L 287.96 67.14
  L 286.45 60.02
  A 1.34 1.33 52.2 0 1 286.56 59.14
  Q 287.61 56.93 290.14 54.80
  Q 300.40 46.13 308.96 43.88
  Q 311.14 43.31 313.62 44.01
  Q 314.16 44.16 314.29 44.71
  Q 314.70 46.42 315.78 48.03
  C 317.35 50.37 317.81 53.39 318.56 56.09
  C 319.32 58.80 319.61 61.62 320.58 64.19
  C 321.53 66.68 321.71 69.26 321.98 71.85
  A 0.39 0.38 -23.4 0 0 322.62 72.10
  Q 323.20 71.60 323.53 70.92
  C 326.95 63.83 329.64 56.93 334.47 50.47
  Q 335.51 49.07 337.25 49.32
  Q 339.28 49.61 341.20 50.43
  C 347.46 53.10 353.66 56.13 358.93 60.44
  C 364.14 64.70 360.54 72.29 357.27 76.09
  Q 351.13 83.21 343.21 90.42
  C 341.35 92.11 343.54 95.80 344.39 97.60
  C 345.79 100.56 345.12 104.45 343.47 107.10
  C 342.35 108.91 340.05 109.82 338.43 111.48
  Z
  M 315.35 81.74
  Q 317.24 81.18 317.27 79.01
  Q 317.37 73.64 315.69 68.90
  C 313.71 63.33 312.79 57.62 310.95 51.97
  Q 309.90 48.73 307.02 50.55
  Q 300.21 54.84 293.42 60.07
  A 2.12 2.11 -28.9 0 0 292.72 62.48
  C 293.63 64.96 294.43 67.49 295.90 69.71
  Q 299.98 75.88 302.92 84.18
  C 303.34 85.36 304.10 86.62 305.58 86.35
  C 307.01 86.09 308.43 85.87 309.56 84.88
  Q 312.06 82.70 315.35 81.74
  Z
  M 338.81 56.33
  A 1.54 1.53 15.0 0 0 337.12 57.30
  C 336.00 60.31 333.96 62.57 332.82 65.51
  Q 330.89 70.48 327.75 75.64
  C 326.18 78.23 325.65 81.12 324.14 83.76
  A 1.07 1.06 38.1 0 0 324.30 85.03
  L 330.04 90.93
  A 0.75 0.73 51.8 0 0 330.96 91.05
  Q 338.16 86.72 344.53 81.13
  C 348.18 77.93 350.75 74.23 353.81 70.33
  C 355.75 67.85 355.64 64.87 352.63 63.18
  Q 346.85 59.95 341.46 57.19
  Q 340.27 56.58 338.81 56.33
  Z
  M 228.87 87.81
  L 198.08 88.40
  Q 195.53 87.01 190.18 89.21
  Q 184.48 88.65 178.50 88.53
  Q 172.41 88.40 168.54 90.08
  C 165.75 91.30 161.21 96.28 161.27 100.20
  C 161.31 102.51 162.60 105.40 165.25 105.57
  Q 174.62 106.20 187.92 106.68
  C 191.25 106.79 196.62 107.39 201.29 107.15
  L 209.59 107.26
  L 242.51 106.94
  L 248.39 107.18
  L 279.91 106.36
  Q 284.67 106.44 288.80 104.77
  Q 292.54 104.73 296.00 103.16
  C 297.44 102.50 298.60 102.53 300.09 102.30
  A 1.19 1.18 -4.6 0 0 301.09 101.13
  L 301.09 93.97
  A 2.36 2.36 0.0 0 0 298.56 91.62
  Q 296.32 91.79 294.76 90.27
  A 2.39 2.36 -16.8 0 0 293.57 89.64
  Q 284.99 87.92 275.34 88.01
  L 266.78 87.75
  L 236.14 87.30
  L 228.87 87.81
  Z
  M 318.17 88.08
  C 315.06 88.07 308.80 90.93 308.01 94.41
  Q 307.00 98.85 307.32 102.68
  C 307.59 105.93 310.54 107.81 313.29 109.03
  C 315.92 110.20 318.82 108.57 321.52 108.22
  C 323.90 107.92 325.71 105.39 325.54 103.13
  Q 325.35 100.50 325.17 97.78
  C 324.93 94.12 321.53 91.03 319.15 88.50
  A 1.35 1.35 0.0 0 0 318.17 88.08
  Z
  M 332.31 97.79
  A 2.51 2.51 0.0 0 0 331.55 99.44
  L 331.33 103.34
  A 2.51 2.51 0.0 0 0 335.06 105.68
  L 337.84 104.13
  A 2.51 2.51 0.0 0 0 339.02 101.17
  L 337.84 97.47
  A 2.51 2.51 0.0 0 0 333.70 96.44
  L 332.31 97.79
  Z"
/>
<path fill="#ffffff" d="
  M 315.35 81.74
  Q 312.06 82.70 309.56 84.88
  C 308.43 85.87 307.01 86.09 305.58 86.35
  C 304.10 86.62 303.34 85.36 302.92 84.18
  Q 299.98 75.88 295.90 69.71
  C 294.43 67.49 293.63 64.96 292.72 62.48
  A 2.12 2.11 -28.9 0 1 293.42 60.07
  Q 300.21 54.84 307.02 50.55
  Q 309.90 48.73 310.95 51.97
  C 312.79 57.62 313.71 63.33 315.69 68.90
  Q 317.37 73.64 317.27 79.01
  Q 317.24 81.18 315.35 81.74
  Z"
/>
<path fill="#ffffff" d="
  M 338.81 56.33
  Q 340.27 56.58 341.46 57.19
  Q 346.85 59.95 352.63 63.18
  C 355.64 64.87 355.75 67.85 353.81 70.33
  C 350.75 74.23 348.18 77.93 344.53 81.13
  Q 338.16 86.72 330.96 91.05
  A 0.75 0.73 51.8 0 1 330.04 90.93
  L 324.30 85.03
  A 1.07 1.06 38.1 0 1 324.14 83.76
  C 325.65 81.12 326.18 78.23 327.75 75.64
  Q 330.89 70.48 332.82 65.51
  C 333.96 62.57 336.00 60.31 337.12 57.30
  A 1.54 1.53 15.0 0 1 338.81 56.33
  Z"
/>
<path fill="#d43422" d="
  M 287.96 67.14
  L 296.00 83.65
  Q 296.80 85.29 295.15 84.48
  Q 292.00 82.93 287.99 82.60
  C 281.06 82.04 274.26 82.30 267.48 81.92
  Q 244.70 80.62 231.05 81.50
  Q 224.48 81.93 218.52 81.94
  Q 212.27 81.95 205.51 82.31
  Q 192.79 82.98 189.25 82.74
  Q 183.84 82.36 182.11 82.50
  Q 196.74 72.15 210.20 67.15
  Q 226.57 61.06 243.87 60.87
  Q 250.67 60.80 257.39 61.08
  Q 270.33 61.61 281.74 65.17
  Q 282.34 65.36 284.66 66.54
  Q 286.36 67.40 287.96 67.14
  Z"
/>
<path fill="#f1bb00" d="
  M 115.32 81.75
  Q 115.14 93.17 115.77 104.38
  Q 116.27 113.34 116.12 121.13
  Q 115.86 134.32 116.30 147.50
  Q 116.36 149.24 117.36 153.35
  L 108.58 154.65
  Q 108.55 148.82 108.90 143.04
  Q 109.27 136.68 108.89 131.46
  Q 108.07 120.23 108.10 116.00
  Q 108.24 93.38 107.35 81.88
  Q 109.34 81.18 111.26 81.56
  C 112.79 81.86 113.82 81.73 115.32 81.75
  Z"
/>
<path fill="#ffcf00" d="
  M 107.35 81.88
  Q 108.24 93.38 108.10 116.00
  Q 108.07 120.23 108.89 131.46
  Q 109.27 136.68 108.90 143.04
  Q 108.55 148.82 108.58 154.65
  Q 101.90 156.37 96.75 158.77
  C 94.65 159.75 92.80 161.51 90.80 162.77
  Q 87.48 164.85 84.65 168.12
  Q 80.44 164.73 75.17 163.01
  Q 74.68 162.86 74.60 162.35
  Q 74.50 161.72 74.98 161.31
  Q 87.74 154.41 104.24 143.54
  C 107.20 141.59 108.58 138.99 107.36 135.58
  Q 104.62 127.96 99.85 122.43
  Q 97.18 119.34 93.69 120.78
  Q 90.12 122.26 85.59 125.23
  C 80.73 128.41 75.95 130.94 70.96 133.48
  C 67.27 135.35 61.67 139.24 62.47 144.10
  C 63.34 149.42 67.28 154.99 70.55 159.31
  Q 70.86 160.39 69.44 160.07
  Q 69.01 159.98 68.68 159.70
  Q 64.17 155.96 58.48 153.11
  Q 53.34 150.54 47.05 145.56
  C 44.23 143.33 40.58 142.35 37.63 140.18
  C 35.42 138.55 33.37 136.79 30.98 135.40
  Q 26.59 132.85 22.22 129.96
  C 36.22 109.82 54.89 94.71 78.34 87.16
  Q 79.41 86.81 83.18 85.89
  Q 84.81 85.50 86.41 84.98
  Q 88.35 84.34 89.63 84.09
  Q 98.25 82.38 107.35 81.88
  Z
  M 58.41 132.33
  L 61.40 133.56
  Q 61.88 133.76 62.34 133.52
  Q 71.69 128.69 81.70 123.60
  C 85.32 121.76 90.99 117.94 91.29 113.38
  A 0.97 0.97 0.0 0 1 92.40 112.48
  C 93.85 112.69 95.39 113.27 96.83 112.71
  Q 100.45 111.29 99.68 106.54
  Q 99.14 103.20 95.53 102.83
  C 93.63 102.63 91.80 103.76 90.02 104.33
  Q 89.50 104.49 88.98 104.36
  Q 81.72 102.54 74.06 100.76
  C 67.91 99.33 61.95 99.79 58.61 105.89
  Q 52.58 116.93 47.39 127.30
  C 45.73 130.61 45.13 133.26 47.40 136.20
  C 48.47 137.58 50.14 137.31 51.67 137.36
  C 54.06 137.44 56.53 134.25 57.69 132.55
  A 0.60 0.60 0.0 0 1 58.41 132.33
  Z"
/>
<path fill="#ffcf00" d="
  M 120.32 153.23
  L 117.36 153.35
  Q 116.36 149.24 116.30 147.50
  Q 115.86 134.32 116.12 121.13
  Q 116.27 113.34 115.77 104.38
  Q 115.14 93.17 115.32 81.75
  Q 117.87 81.54 120.79 81.76
  Q 123.57 81.96 126.21 81.81
  C 129.74 81.62 132.86 82.84 136.46 82.76
  A 1.21 1.19 68.8 0 1 137.39 83.18
  Q 138.83 84.87 138.57 86.89
  Q 137.73 93.33 134.79 103.65
  Q 127.70 128.51 120.32 153.23
  Z"
/>
<path fill="#ffcf00" d="
  M 381.71 81.60
  Q 383.27 83.35 383.03 86.75
  C 382.54 93.66 381.98 100.64 382.13 107.74
  Q 382.27 114.60 382.09 120.71
  C 382.01 123.23 382.66 125.58 382.27 128.14
  C 381.44 133.53 381.92 138.91 381.89 144.52
  Q 381.87 149.08 382.14 153.72
  L 378.17 153.78
  Q 369.70 125.98 361.74 98.01
  Q 359.95 91.73 359.16 85.79
  A 1.79 1.78 79.6 0 1 360.52 83.82
  Q 370.69 81.39 381.71 81.60
  Z"
/>
<path fill="#f1bb00" d="
  M 381.71 81.60
  L 391.16 82.19
  Q 390.86 84.70 390.53 87.98
  Q 389.54 97.84 389.59 107.75
  Q 389.63 115.23 390.32 118.08
  Q 386.66 120.55 389.82 124.63
  A 1.14 1.14 0.0 0 0 390.99 125.05
  Q 393.65 124.43 396.12 123.64
  C 397.29 123.27 397.68 122.42 398.51 121.67
  Q 398.91 121.30 399.43 121.48
  A 0.54 0.54 0.0 0 1 399.77 122.16
  Q 398.98 124.64 397.77 126.79
  Q 394.30 132.99 391.17 139.52
  Q 389.18 143.65 393.41 145.40
  Q 393.98 145.64 394.47 145.90
  Q 397.02 147.28 398.54 144.81
  Q 403.13 137.36 405.25 131.90
  Q 406.86 127.75 409.26 123.90
  Q 409.61 123.33 409.85 123.96
  Q 411.23 127.60 410.33 131.36
  A 1.58 1.57 9.0 0 0 411.74 133.29
  L 413.71 133.45
  A 1.28 1.28 0.0 0 1 414.67 135.44
  Q 411.71 139.81 409.12 144.87
  C 408.25 146.58 407.81 148.74 407.81 150.63
  A 1.97 1.95 19.6 0 0 408.56 152.19
  Q 416.45 158.40 425.35 162.35
  Q 427.50 163.31 429.01 162.67
  C 432.73 161.09 435.53 154.38 436.82 150.82
  A 2.95 2.95 0.0 0 1 439.63 148.89
  C 442.74 148.93 445.17 149.31 447.42 146.29
  L 447.34 147.33
  Q 447.29 147.84 447.77 148.01
  Q 448.07 148.12 448.38 148.13
  Q 448.75 148.13 449.04 147.90
  C 450.03 147.08 450.85 145.94 451.90 145.28
  Q 457.66 141.73 463.73 138.07
  Q 463.86 137.99 468.60 134.69
  Q 472.28 132.12 476.71 131.20
  L 480.45 137.02
  Q 473.72 140.54 467.54 145.22
  Q 466.16 146.27 464.77 146.97
  C 456.97 150.92 449.81 155.89 442.29 160.48
  C 440.15 161.79 437.79 162.57 435.76 164.03
  C 431.55 167.05 426.86 169.55 422.41 172.22
  Q 421.71 172.64 420.51 172.94
  Q 419.29 173.24 418.61 173.85
  Q 416.17 170.78 413.39 167.63
  C 411.53 165.52 409.32 164.36 407.29 162.58
  C 403.42 159.18 397.58 157.04 392.87 155.50
  Q 390.71 154.80 387.55 154.48
  Q 384.74 154.19 382.14 153.72
  Q 381.87 149.08 381.89 144.52
  C 381.92 138.91 381.44 133.53 382.27 128.14
  C 382.66 125.58 382.01 123.23 382.09 120.71
  Q 382.27 114.60 382.13 107.74
  C 381.98 100.64 382.54 93.66 383.03 86.75
  Q 383.27 83.35 381.71 81.60
  Z"
/>
<path fill="#ffcf00" d="
  M 391.16 82.19
  Q 397.02 81.84 401.99 83.31
  Q 403.34 83.71 406.19 83.42
  Q 406.71 83.37 407.17 83.64
  Q 408.02 84.13 408.99 84.09
  C 410.78 84.01 411.77 84.95 413.39 85.32
  C 439.65 91.43 462.11 108.81 476.71 131.20
  Q 472.28 132.12 468.60 134.69
  Q 463.86 137.99 463.73 138.07
  Q 457.66 141.73 451.90 145.28
  C 450.85 145.94 450.03 147.08 449.04 147.90
  Q 448.75 148.13 448.38 148.13
  Q 448.07 148.12 447.77 148.01
  Q 447.29 147.84 447.34 147.33
  L 447.42 146.29
  Q 447.70 145.88 447.73 145.43
  Q 447.76 144.99 447.49 144.63
  Q 445.90 142.53 444.70 140.22
  C 443.58 138.05 441.76 136.57 440.72 134.33
  Q 440.43 133.73 441.08 133.57
  Q 441.48 133.47 441.88 133.57
  Q 442.27 133.66 442.65 133.57
  Q 446.10 132.71 449.03 131.74
  C 452.43 130.61 458.09 123.93 458.25 120.24
  Q 458.27 119.69 457.86 119.32
  C 453.20 115.09 447.75 111.72 442.25 108.53
  C 437.46 105.75 434.06 109.22 429.42 109.71
  Q 426.68 110.00 424.24 111.35
  Q 424.02 111.47 423.79 111.37
  Q 423.65 111.30 423.59 111.15
  Q 423.43 110.71 423.74 110.36
  C 424.32 109.69 425.19 109.04 425.35 108.13
  C 425.76 105.84 423.04 104.85 421.24 104.32
  Q 420.56 104.13 420.81 103.47
  Q 421.99 100.25 422.85 96.92
  C 423.68 93.72 418.80 92.07 416.80 93.12
  A 1.20 1.10 -0.2 0 0 416.36 93.53
  L 413.61 97.98
  A 1.75 1.75 0.0 0 1 410.82 98.23
  Q 407.71 94.75 403.79 97.75
  A 1.76 1.73 78.7 0 0 403.18 98.68
  Q 402.61 100.87 401.23 102.60
  A 1.08 1.08 0.0 0 0 401.54 104.21
  L 405.49 106.47
  Q 406.31 106.94 405.61 107.57
  Q 399.20 113.45 390.32 118.08
  Q 389.63 115.23 389.59 107.75
  Q 389.54 97.84 390.53 87.98
  Q 390.86 84.70 391.16 82.19
  Z"
/>
<path fill="#d3d9dd" d="
  M 236.14 87.30
  Q 237.59 92.06 240.03 94.46
  Q 246.11 100.45 248.39 107.18
  L 242.51 106.94
  Q 240.99 104.71 239.27 102.87
  Q 236.99 100.43 235.96 98.88
  Q 232.41 93.53 228.87 87.81
  L 236.14 87.30
  Z"
/>
<path fill="#ffffff" d="
  M 236.14 87.30
  L 266.78 87.75
  Q 271.18 93.72 279.05 102.98
  Q 280.92 105.17 279.91 106.36
  L 248.39 107.18
  Q 246.11 100.45 240.03 94.46
  Q 237.59 92.06 236.14 87.30
  Z"
/>
<path fill="#ffffff" d="
  M 228.87 87.81
  Q 232.41 93.53 235.96 98.88
  Q 236.99 100.43 239.27 102.87
  Q 240.99 104.71 242.51 106.94
  L 209.59 107.26
  Q 207.48 105.72 205.13 101.92
  Q 200.34 94.20 198.08 88.40
  L 228.87 87.81
  Z"
/>
<path fill="#d3d9dd" d="
  M 266.78 87.75
  L 275.34 88.01
  Q 278.08 93.02 281.80 97.04
  Q 282.69 98.00 284.63 100.86
  Q 286.19 103.16 288.80 104.77
  Q 284.67 106.44 279.91 106.36
  Q 280.92 105.17 279.05 102.98
  Q 271.18 93.72 266.78 87.75
  Z"
/>
<path fill="#ffffff" d="
  M 288.80 104.77
  Q 286.19 103.16 284.63 100.86
  Q 282.69 98.00 281.80 97.04
  Q 278.08 93.02 275.34 88.01
  Q 284.99 87.92 293.57 89.64
  A 2.39 2.36 -16.8 0 1 294.76 90.27
  Q 296.32 91.79 298.56 91.62
  A 2.36 2.36 0.0 0 1 301.09 93.97
  L 301.09 101.13
  A 1.19 1.18 -4.6 0 1 300.09 102.30
  C 298.60 102.53 297.44 102.50 296.00 103.16
  Q 292.54 104.73 288.80 104.77
  Z"
/>
<path fill="#d3d9dd" d="
  M 198.08 88.40
  Q 200.34 94.20 205.13 101.92
  Q 207.48 105.72 209.59 107.26
  L 201.29 107.15
  L 190.18 89.21
  Q 195.53 87.01 198.08 88.40
  Z"
/>
<path fill="#ffffff" d="
  M 308.01 94.41
  C 308.80 90.93 315.06 88.07 318.17 88.08
  A 1.35 1.35 0.0 0 1 319.15 88.50
  C 321.53 91.03 324.93 94.12 325.17 97.78
  Q 325.35 100.50 325.54 103.13
  C 325.71 105.39 323.90 107.92 321.52 108.22
  C 318.82 108.57 315.92 110.20 313.29 109.03
  C 310.54 107.81 307.59 105.93 307.32 102.68
  Q 307.00 98.85 308.01 94.41
  Z"
/>
<path fill="#ffffff" d="
  M 190.18 89.21
  L 201.29 107.15
  C 196.62 107.39 191.25 106.79 187.92 106.68
  Q 174.62 106.20 165.25 105.57
  C 162.60 105.40 161.31 102.51 161.27 100.20
  C 161.21 96.28 165.75 91.30 168.54 90.08
  Q 172.41 88.40 178.50 88.53
  Q 184.48 88.65 190.18 89.21
  Z"
/>
<path fill="#ca151f" d="
  M 447.42 146.29
  C 445.17 149.31 442.74 148.93 439.63 148.89
  A 2.95 2.95 0.0 0 0 436.82 150.82
  C 435.53 154.38 432.73 161.09 429.01 162.67
  Q 427.50 163.31 425.35 162.35
  Q 416.45 158.40 408.56 152.19
  A 1.97 1.95 19.6 0 1 407.81 150.63
  C 407.81 148.74 408.25 146.58 409.12 144.87
  Q 411.71 139.81 414.67 135.44
  A 1.28 1.28 0.0 0 0 413.71 133.45
  L 411.74 133.29
  A 1.58 1.57 9.0 0 1 410.33 131.36
  Q 411.23 127.60 409.85 123.96
  Q 409.61 123.33 409.26 123.90
  Q 406.86 127.75 405.25 131.90
  Q 403.13 137.36 398.54 144.81
  Q 397.02 147.28 394.47 145.90
  Q 393.98 145.64 393.41 145.40
  Q 389.18 143.65 391.17 139.52
  Q 394.30 132.99 397.77 126.79
  Q 398.98 124.64 399.77 122.16
  A 0.54 0.54 0.0 0 0 399.43 121.48
  Q 398.91 121.30 398.51 121.67
  C 397.68 122.42 397.29 123.27 396.12 123.64
  Q 393.65 124.43 390.99 125.05
  A 1.14 1.14 0.0 0 1 389.82 124.63
  Q 386.66 120.55 390.32 118.08
  Q 399.20 113.45 405.61 107.57
  Q 406.31 106.94 405.49 106.47
  L 401.54 104.21
  A 1.08 1.08 0.0 0 1 401.23 102.60
  Q 402.61 100.87 403.18 98.68
  A 1.76 1.73 78.7 0 1 403.79 97.75
  Q 407.71 94.75 410.82 98.23
  A 1.75 1.75 0.0 0 0 413.61 97.98
  L 416.36 93.53
  A 1.20 1.10 -0.2 0 1 416.80 93.12
  C 418.80 92.07 423.68 93.72 422.85 96.92
  Q 421.99 100.25 420.81 103.47
  Q 420.56 104.13 421.24 104.32
  C 423.04 104.85 425.76 105.84 425.35 108.13
  C 425.19 109.04 424.32 109.69 423.74 110.36
  Q 423.43 110.71 423.59 111.15
  Q 423.65 111.30 423.79 111.37
  Q 424.02 111.47 424.24 111.35
  Q 426.68 110.00 429.42 109.71
  C 434.06 109.22 437.46 105.75 442.25 108.53
  C 447.75 111.72 453.20 115.09 457.86 119.32
  Q 458.27 119.69 458.25 120.24
  C 458.09 123.93 452.43 130.61 449.03 131.74
  Q 446.10 132.71 442.65 133.57
  Q 442.27 133.66 441.88 133.57
  Q 441.48 133.47 441.08 133.57
  Q 440.43 133.73 440.72 134.33
  C 441.76 136.57 443.58 138.05 444.70 140.22
  Q 445.90 142.53 447.49 144.63
  Q 447.76 144.99 447.73 145.43
  Q 447.70 145.88 447.42 146.29
  Z
  M 424.75 120.02
  C 421.10 120.26 419.79 117.45 420.82 114.14
  A 1.19 1.19 0.0 0 0 420.00 112.64
  L 418.88 112.32
  Q 417.78 112.01 417.45 113.12
  Q 416.54 116.23 417.61 118.86
  Q 419.28 122.96 417.48 126.39
  A 0.61 0.61 0.0 0 0 418.02 127.28
  C 420.46 127.27 422.76 126.74 425.19 127.25
  Q 426.92 127.62 428.52 127.73
  Q 429.66 127.80 429.61 126.67
  L 429.35 120.81
  Q 429.30 119.68 428.18 119.77
  Q 426.53 119.91 424.75 120.02
  Z
  M 443.75 122.56
  A 1.99 1.99 0.0 0 0 444.26 119.18
  L 442.28 117.55
  A 1.99 1.99 0.0 0 0 439.74 117.56
  L 437.93 119.07
  A 1.99 1.99 0.0 0 0 437.54 121.68
  L 438.39 123.00
  A 1.99 1.99 0.0 0 0 440.82 123.76
  L 443.75 122.56
  Z
  M 426.31 135.01
  A 0.64 0.64 0.0 0 0 425.95 136.18
  L 432.66 140.87
  A 0.64 0.64 0.0 0 0 433.58 140.03
  L 430.95 135.28
  A 0.64 0.64 0.0 0 0 430.38 134.96
  L 426.31 135.01
  Z
  M 428.27 147.68
  L 422.87 143.09
  A 1.33 1.33 0.0 0 0 421.00 143.24
  L 419.91 144.52
  A 3.75 3.63 -49.6 0 0 420.25 149.73
  L 422.13 151.34
  A 3.75 3.63 -49.6 0 0 427.33 150.83
  L 428.42 149.56
  A 1.33 1.33 0.0 0 0 428.27 147.68
  Z"
/>
<path fill="#ffffff" d="
  M 332.31 97.79
  L 333.70 96.44
  A 2.51 2.51 0.0 0 1 337.84 97.47
  L 339.02 101.17
  A 2.51 2.51 0.0 0 1 337.84 104.13
  L 335.06 105.68
  A 2.51 2.51 0.0 0 1 331.33 103.34
  L 331.55 99.44
  A 2.51 2.51 0.0 0 1 332.31 97.79
  Z"
/>
<path fill="#ca151f" d="
  M 58.41 132.33
  A 0.60 0.60 0.0 0 0 57.69 132.55
  C 56.53 134.25 54.06 137.44 51.67 137.36
  C 50.14 137.31 48.47 137.58 47.40 136.20
  C 45.13 133.26 45.73 130.61 47.39 127.30
  Q 52.58 116.93 58.61 105.89
  C 61.95 99.79 67.91 99.33 74.06 100.76
  Q 81.72 102.54 88.98 104.36
  Q 89.50 104.49 90.02 104.33
  C 91.80 103.76 93.63 102.63 95.53 102.83
  Q 99.14 103.20 99.68 106.54
  Q 100.45 111.29 96.83 112.71
  C 95.39 113.27 93.85 112.69 92.40 112.48
  A 0.97 0.97 0.0 0 0 91.29 113.38
  C 90.99 117.94 85.32 121.76 81.70 123.60
  Q 71.69 128.69 62.34 133.52
  Q 61.88 133.76 61.40 133.56
  L 58.41 132.33
  Z
  M 67.21 111.21
  C 66.29 114.88 65.01 117.76 63.60 120.94
  Q 63.05 122.19 64.24 121.52
  L 79.49 112.89
  Q 82.89 110.97 78.99 111.17
  C 76.08 111.33 73.16 110.02 70.29 109.34
  A 2.57 2.57 0.0 0 0 67.21 111.21
  Z"
/>
<path fill="#d43422" d="
  M 338.43 111.48
  C 339.51 114.29 340.97 116.98 341.87 119.69
  Q 345.62 131.05 347.73 141.54
  Q 348.51 145.41 348.98 150.80
  C 349.35 154.94 349.29 159.05 349.58 163.16
  Q 349.74 165.42 349.48 167.96
  Q 348.68 176.12 348.94 184.74
  Q 349.00 186.83 348.50 188.91
  A 0.60 0.60 0.0 0 0 349.27 189.62
  Q 354.39 187.92 359.12 185.59
  Q 362.72 183.81 368.19 179.69
  Q 375.13 174.44 382.29 169.46
  Q 383.34 169.56 383.51 170.51
  Q 384.72 177.45 388.64 183.02
  A 1.77 1.76 74.1 0 0 389.98 183.77
  Q 397.16 184.14 404.01 182.15
  Q 404.55 182.00 404.91 182.27
  C 405.14 184.24 403.42 187.62 402.78 189.88
  Q 401.62 193.97 398.57 198.77
  Q 389.25 213.45 373.81 226.41
  C 369.36 230.15 364.74 232.54 360.09 235.76
  Q 356.88 237.99 353.39 239.80
  Q 351.03 241.02 353.59 241.74
  Q 357.24 242.77 360.58 243.14
  C 362.62 243.37 364.20 244.43 366.30 244.44
  C 373.65 244.50 390.49 246.46 390.30 256.24
  C 390.18 261.81 384.99 265.91 379.80 267.08
  Q 373.80 268.44 367.50 268.36
  Q 358.17 268.25 350.65 267.18
  Q 346.29 266.55 342.64 266.97
  C 341.28 267.12 340.07 266.83 338.75 266.90
  Q 338.48 266.92 338.30 267.14
  Q 338.21 267.25 338.21 267.41
  Q 338.23 267.77 338.59 267.79
  Q 339.32 267.82 339.97 268.16
  Q 348.29 272.45 356.85 276.65
  Q 359.75 278.07 361.30 281.76
  C 362.90 285.57 359.46 290.16 356.11 291.38
  C 352.10 292.84 347.77 294.34 343.26 293.85
  C 339.61 293.45 335.83 293.82 332.02 293.46
  C 327.95 293.07 324.05 292.81 320.04 291.65
  Q 309.54 288.64 298.23 285.83
  Q 297.23 285.59 297.36 286.61
  C 297.74 289.54 300.69 290.88 301.48 293.64
  Q 303.37 300.28 298.58 303.07
  Q 295.42 304.92 290.13 304.75
  C 273.83 304.23 260.77 295.11 249.90 283.73
  Q 249.34 283.15 248.71 283.65
  C 245.83 286.00 243.46 288.90 240.57 291.20
  Q 231.07 298.76 219.56 302.97
  C 216.55 304.08 213.71 304.68 210.46 304.45
  C 206.44 304.17 202.64 304.86 199.02 302.46
  C 192.86 298.37 197.29 291.95 200.33 287.88
  A 0.86 0.85 35.1 0 0 200.11 286.66
  Q 198.09 285.35 196.15 286.78
  Q 195.61 287.18 194.95 287.30
  Q 189.72 288.21 184.48 289.95
  C 180.59 291.24 176.61 291.97 172.71 292.72
  C 171.92 292.87 171.28 292.69 170.59 292.85
  Q 166.83 293.71 162.64 293.81
  Q 162.12 293.82 161.72 294.14
  Q 161.50 294.32 161.23 294.39
  Q 160.80 294.49 160.44 294.22
  Q 159.50 293.51 158.50 294.28
  A 0.83 0.82 -47.8 0 1 157.55 294.33
  Q 156.66 293.77 155.55 293.79
  Q 148.27 293.91 143.01 291.96
  C 137.54 289.93 132.88 281.90 139.75 277.66
  Q 145.75 273.97 153.67 270.63
  Q 156.71 269.35 159.77 267.33
  Q 160.37 266.93 159.68 266.71
  Q 158.26 266.25 156.87 266.42
  Q 141.52 268.32 127.19 268.60
  C 119.39 268.75 111.50 265.81 108.13 258.70
  Q 107.14 256.60 107.95 254.45
  C 110.45 247.81 115.85 246.46 122.38 245.64
  Q 123.98 245.43 125.50 245.70
  Q 126.89 245.95 128.22 245.16
  Q 128.68 244.89 129.22 244.92
  Q 132.58 245.12 135.48 243.91
  Q 135.97 243.71 136.46 243.93
  Q 136.96 244.16 137.51 244.18
  A 1.50 1.49 27.9 0 0 138.40 243.91
  Q 140.80 242.28 144.05 241.61
  Q 145.85 241.24 144.50 239.99
  C 142.10 237.75 138.66 236.79 136.04 234.71
  Q 131.37 231.01 126.48 227.56
  C 114.67 219.26 104.60 207.72 98.08 195.44
  Q 95.57 190.71 92.82 182.07
  Q 96.14 181.74 99.99 183.48
  Q 101.32 184.07 107.43 183.53
  C 109.13 183.38 110.41 182.25 111.04 180.75
  Q 113.20 175.68 115.23 169.03
  C 119.97 172.31 124.24 176.04 128.99 179.09
  C 131.72 180.84 134.06 182.89 137.04 184.36
  Q 142.13 186.89 147.01 189.49
  A 1.79 1.79 0.0 0 0 149.60 188.25
  C 149.78 187.27 149.82 186.06 149.60 185.08
  Q 148.63 180.80 149.21 176.57
  Q 149.74 172.71 148.60 168.17
  C 148.32 167.04 148.64 166.15 148.88 165.07
  Q 149.00 164.53 148.85 163.99
  Q 148.25 161.96 148.51 159.93
  C 149.22 154.39 149.17 148.72 150.16 143.37
  Q 153.28 126.41 160.48 110.63
  Q 172.50 112.67 184.22 112.81
  Q 186.16 112.83 192.11 113.12
  Q 196.26 113.33 200.01 113.36
  Q 215.96 113.52 230.97 113.52
  C 235.45 113.52 240.20 112.98 244.90 113.06
  Q 258.10 113.29 269.61 113.14
  Q 281.42 112.98 293.56 110.27
  Q 296.40 109.64 299.47 108.41
  C 304.05 106.57 306.04 113.10 309.66 114.27
  C 312.09 115.05 314.38 116.12 317.03 115.51
  C 320.28 114.75 325.64 114.10 328.03 111.96
  Q 328.43 111.60 328.97 111.63
  Q 330.71 111.73 332.24 112.22
  Q 333.59 112.64 338.43 111.48
  Z
  M 299.98 141.69
  C 299.10 140.01 296.07 139.91 294.41 139.57
  Q 292.82 139.24 291.27 140.00
  Q 286.14 142.51 285.57 147.94
  C 285.29 150.61 285.90 154.00 288.69 155.19
  Q 294.09 157.51 299.15 154.45
  C 303.38 151.89 301.84 145.22 299.98 141.69
  Z
  M 211.84 152.42
  Q 214.66 146.70 210.01 142.53
  Q 204.14 137.26 199.07 141.96
  C 196.07 144.74 196.18 147.41 196.56 151.05
  Q 196.85 153.79 199.25 154.93
  C 203.43 156.90 209.46 157.23 211.84 152.42
  Z
  M 245.91 208.96
  C 248.81 209.24 252.40 209.89 255.25 209.14
  Q 260.07 207.87 265.31 205.61
  C 270.49 203.37 273.70 199.04 277.28 194.92
  C 284.09 187.08 283.85 175.36 281.02 166.05
  Q 279.31 160.41 274.70 155.22
  Q 268.35 148.07 258.75 144.72
  C 255.91 143.73 252.65 143.78 249.63 143.49
  Q 246.21 143.16 243.01 143.75
  Q 227.02 146.66 220.07 160.17
  Q 219.10 162.05 217.78 163.85
  C 214.61 168.20 214.93 175.68 215.57 181.52
  C 216.06 186.02 218.26 189.48 220.33 193.24
  C 225.81 203.21 235.09 207.91 245.91 208.96
  Z
  M 192.63 237.69
  C 184.76 232.97 176.58 228.78 170.48 221.31
  Q 164.94 214.53 160.22 207.58
  Q 157.34 203.34 155.88 197.51
  C 155.14 194.55 153.00 191.61 149.44 193.74
  C 148.36 194.38 147.24 195.30 147.22 196.68
  Q 147.19 199.76 148.60 201.89
  C 151.36 206.05 152.48 210.96 155.34 215.20
  C 157.88 218.97 160.27 222.89 163.40 225.98
  Q 172.06 234.52 178.99 240.27
  Q 183.92 244.35 188.53 246.20
  Q 195.95 249.18 204.81 252.95
  Q 209.73 255.05 214.12 255.88
  Q 221.89 257.37 229.51 258.79
  Q 236.17 260.04 248.24 259.97
  Q 270.74 259.85 290.19 253.89
  C 293.45 252.89 296.49 251.47 299.75 250.44
  C 304.06 249.06 307.44 246.60 311.55 244.83
  C 315.50 243.13 318.93 240.29 322.39 237.82
  Q 325.17 235.84 327.39 233.69
  Q 338.13 223.26 345.89 210.38
  Q 348.69 205.73 350.92 199.30
  Q 351.73 196.98 350.03 194.55
  Q 349.73 194.12 349.16 193.85
  Q 345.64 192.14 343.97 195.15
  Q 339.45 203.32 334.72 212.05
  C 332.42 216.30 329.05 219.64 325.81 223.16
  Q 322.70 226.54 318.56 229.72
  C 314.36 232.95 310.11 236.62 305.28 238.64
  C 296.33 242.37 287.48 246.56 278.13 248.48
  Q 267.22 250.72 256.33 251.56
  C 241.87 252.68 225.56 249.50 210.93 245.72
  Q 206.11 244.48 201.76 242.48
  Q 196.93 240.26 192.63 237.69
  Z"
/>
<path fill="#ffcf00" d="
  M 63.60 120.94
  C 65.01 117.76 66.29 114.88 67.21 111.21
  A 2.57 2.57 0.0 0 1 70.29 109.34
  C 73.16 110.02 76.08 111.33 78.99 111.17
  Q 82.89 110.97 79.49 112.89
  L 64.24 121.52
  Q 63.05 122.19 63.60 120.94
  Z"
/>
<path fill="#ffcf00" d="
  M 420.82 114.14
  C 419.79 117.45 421.10 120.26 424.75 120.02
  Q 426.53 119.91 428.18 119.77
  Q 429.30 119.68 429.35 120.81
  L 429.61 126.67
  Q 429.66 127.80 428.52 127.73
  Q 426.92 127.62 425.19 127.25
  C 422.76 126.74 420.46 127.27 418.02 127.28
  A 0.61 0.61 0.0 0 1 417.48 126.39
  Q 419.28 122.96 417.61 118.86
  Q 416.54 116.23 417.45 113.12
  Q 417.78 112.01 418.88 112.32
  L 420.00 112.64
  A 1.19 1.19 0.0 0 1 420.82 114.14
  Z"
/>
<path fill="#ffcf00" d="
  M 443.75 122.56
  L 440.82 123.76
  A 1.99 1.99 0.0 0 1 438.39 123.00
  L 437.54 121.68
  A 1.99 1.99 0.0 0 1 437.93 119.07
  L 439.74 117.56
  A 1.99 1.99 0.0 0 1 442.28 117.55
  L 444.26 119.18
  A 1.99 1.99 0.0 0 1 443.75 122.56
  Z"
/>
<path fill="#ca151f" d="
  M 74.98 161.31
  Q 72.33 160.86 70.55 159.31
  C 67.28 154.99 63.34 149.42 62.47 144.10
  C 61.67 139.24 67.27 135.35 70.96 133.48
  C 75.95 130.94 80.73 128.41 85.59 125.23
  Q 90.12 122.26 93.69 120.78
  Q 97.18 119.34 99.85 122.43
  Q 104.62 127.96 107.36 135.58
  C 108.58 138.99 107.20 141.59 104.24 143.54
  Q 87.74 154.41 74.98 161.31
  Z
  M 95.9058 133.3013
  A 3.65 3.65 0.0 0 0 90.9245 131.9480
  L 74.3329 141.4501
  A 3.65 3.65 0.0 0 0 72.9795 146.4314
  L 73.8542 147.9587
  A 3.65 3.65 0.0 0 0 78.8355 149.3120
  L 95.4271 139.8099
  A 3.65 3.65 0.0 0 0 96.7805 134.8286
  L 95.9058 133.3013
  Z"
/>
<path fill="#f1bb00" d="
  M 22.22 129.96
  Q 26.59 132.85 30.98 135.40
  C 33.37 136.79 35.42 138.55 37.63 140.18
  C 40.58 142.35 44.23 143.33 47.05 145.56
  Q 53.34 150.54 58.48 153.11
  Q 64.17 155.96 68.68 159.70
  Q 69.01 159.98 69.44 160.07
  Q 70.86 160.39 70.55 159.31
  Q 72.33 160.86 74.98 161.31
  Q 74.50 161.72 74.60 162.35
  Q 74.68 162.86 75.17 163.01
  Q 80.44 164.73 84.65 168.12
  L 79.48 174.46
  Q 75.43 171.97 71.49 169.47
  C 65.97 165.97 60.03 163.12 54.87 159.41
  C 51.31 156.85 47.33 155.10 43.84 152.51
  C 41.61 150.85 38.90 150.61 36.59 148.85
  Q 29.31 143.30 21.92 139.54
  C 20.95 139.05 20.27 138.26 19.53 137.50
  Q 18.69 136.65 17.83 137.01
  L 22.22 129.96
  Z"
/>
<rect fill="#ffcf00" x="-13.21" y="-4.53" transform="translate(84.88,140.63) rotate(-29.8)" width="26.42" height="9.06" rx="3.65"/>
<path fill="#ffcf00" d="
  M 426.31 135.01
  L 430.38 134.96
  A 0.64 0.64 0.0 0 1 430.95 135.28
  L 433.58 140.03
  A 0.64 0.64 0.0 0 1 432.66 140.87
  L 425.95 136.18
  A 0.64 0.64 0.0 0 1 426.31 135.01
  Z"
/>
<path fill="#ffcf00" d="
  M 17.83 137.01
  Q 18.69 136.65 19.53 137.50
  C 20.27 138.26 20.95 139.05 21.92 139.54
  Q 29.31 143.30 36.59 148.85
  C 38.90 150.61 41.61 150.85 43.84 152.51
  C 47.33 155.10 51.31 156.85 54.87 159.41
  C 60.03 163.12 65.97 165.97 71.49 169.47
  Q 75.43 171.97 79.48 174.46
  L 77.41 178.04
  C 57.45 172.80 37.19 168.42 17.46 162.46
  C 15.02 161.72 8.38 160.01 8.78 156.69
  C 9.65 149.66 13.84 143.06 17.83 137.01
  Z"
/>
<path fill="#ffcf00" d="
  M 480.45 137.02
  Q 485.39 145.20 488.20 151.76
  Q 489.25 154.21 489.84 157.47
  A 1.20 1.19 -32.3 0 1 489.64 158.35
  Q 488.86 159.45 487.49 160.04
  Q 480.87 162.86 473.89 164.68
  Q 447.57 171.58 420.97 177.73
  L 418.61 173.85
  Q 419.29 173.24 420.51 172.94
  Q 421.71 172.64 422.41 172.22
  C 426.86 169.55 431.55 167.05 435.76 164.03
  C 437.79 162.57 440.15 161.79 442.29 160.48
  C 449.81 155.89 456.97 150.92 464.77 146.97
  Q 466.16 146.27 467.54 145.22
  Q 473.72 140.54 480.45 137.02
  Z"
/>
<path fill="#000000" d="
  M 299.98 141.69
  C 301.84 145.22 303.38 151.89 299.15 154.45
  Q 294.09 157.51 288.69 155.19
  C 285.90 154.00 285.29 150.61 285.57 147.94
  Q 286.14 142.51 291.27 140.00
  Q 292.82 139.24 294.41 139.57
  C 296.07 139.91 299.10 140.01 299.98 141.69
  Z"
/>
<path fill="#000000" d="
  M 211.84 152.42
  C 209.46 157.23 203.43 156.90 199.25 154.93
  Q 196.85 153.79 196.56 151.05
  C 196.18 147.41 196.07 144.74 199.07 141.96
  Q 204.14 137.26 210.01 142.53
  Q 214.66 146.70 211.84 152.42
  Z"
/>
<path fill="#ffcf00" d="
  M 428.27 147.68
  A 1.33 1.33 0.0 0 1 428.42 149.56
  L 427.33 150.83
  A 3.75 3.63 -49.6 0 1 422.13 151.34
  L 420.25 149.73
  A 3.75 3.63 -49.6 0 1 419.91 144.52
  L 421.00 143.24
  A 1.33 1.33 0.0 0 1 422.87 143.09
  L 428.27 147.68
  Z"
/>
<path fill="#a4231c" d="
  M 245.91 208.96
  C 235.09 207.91 225.81 203.21 220.33 193.24
  C 218.26 189.48 216.06 186.02 215.57 181.52
  C 214.93 175.68 214.61 168.20 217.78 163.85
  Q 219.10 162.05 220.07 160.17
  Q 227.02 146.66 243.01 143.75
  Q 246.21 143.16 249.63 143.49
  C 252.65 143.78 255.91 143.73 258.75 144.72
  Q 268.35 148.07 274.70 155.22
  Q 279.31 160.41 281.02 166.05
  C 283.85 175.36 284.09 187.08 277.28 194.92
  C 273.70 199.04 270.49 203.37 265.31 205.61
  Q 260.07 207.87 255.25 209.14
  C 252.40 209.89 248.81 209.24 245.91 208.96
  Z
  M 273.86 172.42
  C 273.08 167.91 270.87 163.02 267.38 159.89
  Q 266.06 158.71 264.80 157.48
  C 262.47 155.19 259.45 154.46 256.65 152.90
  C 249.13 148.71 238.79 153.55 232.24 158.25
  C 228.35 161.04 227.48 164.66 225.36 168.52
  Q 223.35 172.18 223.58 176.82
  Q 223.86 182.36 226.50 187.46
  C 228.58 191.49 233.00 195.25 236.64 197.68
  Q 238.94 199.22 243.33 199.94
  C 256.57 202.10 269.08 196.74 273.75 183.87
  C 275.06 180.24 274.50 176.13 273.86 172.42
  Z"
/>
<path fill="#d43422" d="
  M 273.86 172.42
  C 274.50 176.13 275.06 180.24 273.75 183.87
  C 269.08 196.74 256.57 202.10 243.33 199.94
  Q 238.94 199.22 236.64 197.68
  C 233.00 195.25 228.58 191.49 226.50 187.46
  Q 223.86 182.36 223.58 176.82
  Q 223.35 172.18 225.36 168.52
  C 227.48 164.66 228.35 161.04 232.24 158.25
  C 238.79 153.55 249.13 148.71 256.65 152.90
  C 259.45 154.46 262.47 155.19 264.80 157.48
  Q 266.06 158.71 267.38 159.89
  C 270.87 163.02 273.08 167.91 273.86 172.42
  Z
  M 261.6258 176.4641
  A 12.38 11.79 1.5 0 0 249.5586 164.3540
  A 12.38 11.79 1.5 0 0 236.8742 175.8159
  A 12.38 11.79 1.5 0 0 248.9414 187.9260
  A 12.38 11.79 1.5 0 0 261.6258 176.4641
  Z"
/>
<path fill="#502c0e" d="
  M 117.36 153.35
  L 120.32 153.23
  L 115.23 169.03
  Q 113.20 175.68 111.04 180.75
  C 110.41 182.25 109.13 183.38 107.43 183.53
  Q 101.32 184.07 99.99 183.48
  Q 96.14 181.74 92.82 182.07
  Q 85.58 179.31 77.41 178.04
  L 79.48 174.46
  L 84.65 168.12
  Q 87.48 164.85 90.80 162.77
  C 92.80 161.51 94.65 159.75 96.75 158.77
  Q 101.90 156.37 108.58 154.65
  L 117.36 153.35
  Z"
/>
<path fill="#502c0e" d="
  M 378.17 153.78
  L 382.14 153.72
  Q 384.74 154.19 387.55 154.48
  Q 390.71 154.80 392.87 155.50
  C 397.58 157.04 403.42 159.18 407.29 162.58
  C 409.32 164.36 411.53 165.52 413.39 167.63
  Q 416.17 170.78 418.61 173.85
  L 420.97 177.73
  Q 413.50 179.85 405.81 181.40
  Q 404.97 181.57 404.91 182.27
  Q 404.55 182.00 404.01 182.15
  Q 397.16 184.14 389.98 183.77
  A 1.77 1.76 74.1 0 1 388.64 183.02
  Q 384.72 177.45 383.51 170.51
  Q 383.34 169.56 382.29 169.46
  Q 383.04 168.79 382.57 167.48
  Q 380.09 160.71 378.17 153.78
  Z"
/>
<ellipse fill="#a4231c" cx="0.00" cy="0.00" transform="translate(249.25,176.14) rotate(1.5)" rx="12.38" ry="11.79"/>
<path fill="#a4231c" d="
  M 170.48 221.31
  C 176.58 228.78 184.76 232.97 192.63 237.69
  Q 196.93 240.26 201.76 242.48
  Q 206.11 244.48 210.93 245.72
  C 225.56 249.50 241.87 252.68 256.33 251.56
  Q 267.22 250.72 278.13 248.48
  C 287.48 246.56 296.33 242.37 305.28 238.64
  C 310.11 236.62 314.36 232.95 318.56 229.72
  Q 322.70 226.54 325.81 223.16
  C 329.05 219.64 332.42 216.30 334.72 212.05
  Q 339.45 203.32 343.97 195.15
  Q 345.64 192.14 349.16 193.85
  Q 349.73 194.12 350.03 194.55
  Q 351.73 196.98 350.92 199.30
  Q 348.69 205.73 345.89 210.38
  Q 338.13 223.26 327.39 233.69
  Q 325.17 235.84 322.39 237.82
  C 318.93 240.29 315.50 243.13 311.55 244.83
  C 307.44 246.60 304.06 249.06 299.75 250.44
  C 296.49 251.47 293.45 252.89 290.19 253.89
  Q 270.74 259.85 248.24 259.97
  Q 236.17 260.04 229.51 258.79
  Q 221.89 257.37 214.12 255.88
  Q 209.73 255.05 204.81 252.95
  Q 195.95 249.18 188.53 246.20
  Q 183.92 244.35 178.99 240.27
  Q 172.06 234.52 163.40 225.98
  C 160.27 222.89 157.88 218.97 155.34 215.20
  C 152.48 210.96 151.36 206.05 148.60 201.89
  Q 147.19 199.76 147.22 196.68
  C 147.24 195.30 148.36 194.38 149.44 193.74
  C 153.00 191.61 155.14 194.55 155.88 197.51
  Q 157.34 203.34 160.22 207.58
  Q 164.94 214.53 170.48 221.31
  Z"
/>
</svg>
